<svg xmlns="http://www.w3.org/2000/svg" version="1.1" xmlns:xlink="http://www.w3.org/1999/xlink" xmlns:svgjs="http://svgjs.com/svgjs" width="1440" height="4500" preserveAspectRatio="none" viewBox="0 0 1440 4500">
    <g mask="url(&quot;#SvgjsMask1090&quot;)" fill="none">
        <rect width="1440" height="4500" x="0" y="0" fill="url(#SvgjsRadialGradient1091)"></rect>
        <path d="M152.54 -123.16L291.11 -43.16L291.11 116.84L152.54 196.84L13.97 116.84L13.97 -43.16zM291.11 2516.84L429.68 2596.84L429.68 2756.84L291.11 2836.84L152.54 2756.84L152.54 2596.84zM291.11 3476.84L429.68 3556.84L429.68 3716.84L291.11 3796.84L152.54 3716.84L152.54 3556.84zM152.54 4196.84L291.11 4276.84L291.11 4436.84L152.54 4516.84L13.97 4436.84L13.97 4276.84zM429.68 -123.16L568.24 -43.16L568.24 116.84L429.68 196.84L291.11 116.84L291.11 -43.16zM568.24 596.84L706.81 676.84L706.81 836.84L568.24 916.84L429.68 836.84L429.68 676.84zM568.24 1076.84L706.81 1156.84L706.81 1316.84L568.24 1396.84L429.68 1316.84L429.68 1156.84zM568.24 2516.84L706.81 2596.84L706.81 2756.84L568.24 2836.84L429.68 2756.84L429.68 2596.84zM568.24 3956.84L706.81 4036.84L706.81 4196.84L568.24 4276.84L429.68 4196.84L429.68 4036.84zM845.38 1076.84L983.95 1156.84L983.95 1316.84L845.38 1396.84L706.81 1316.84L706.81 1156.84zM706.81 1796.84L845.38 1876.84L845.38 2036.84L706.81 2116.84L568.24 2036.84L568.24 1876.84zM706.81 2276.84L845.38 2356.84L845.38 2516.84L706.81 2596.84L568.24 2516.84L568.24 2356.84zM845.38 3956.84L983.95 4036.84L983.95 4196.84L845.38 4276.84L706.81 4196.84L706.81 4036.84zM845.38 4436.84L983.95 4516.84L983.95 4676.84L845.38 4756.84L706.81 4676.84L706.81 4516.84zM983.95 356.84L1122.52 436.84L1122.52 596.84L983.95 676.84L845.38 596.84L845.38 436.84zM1122.52 596.84L1261.08 676.84L1261.08 836.84L1122.52 916.84L983.95 836.84L983.95 676.84zM983.95 836.84L1122.52 916.84L1122.52 1076.84L983.95 1156.84L845.38 1076.84L845.38 916.84zM1122.52 2036.84L1261.08 2116.84L1261.08 2276.84L1122.52 2356.84L983.95 2276.84L983.95 2116.84zM1122.52 2516.84L1261.08 2596.84L1261.08 2756.84L1122.52 2836.84L983.95 2756.84L983.95 2596.84zM1122.52 2996.84L1261.08 3076.84L1261.08 3236.84L1122.52 3316.84L983.95 3236.84L983.95 3076.84zM983.95 3236.84L1122.52 3316.84L1122.52 3476.84L983.95 3556.84L845.38 3476.84L845.38 3316.84zM1122.52 3476.84L1261.08 3556.84L1261.08 3716.84L1122.52 3796.84L983.95 3716.84L983.95 3556.84zM1399.65 116.84L1538.22 196.84L1538.22 356.84L1399.65 436.84L1261.08 356.84L1261.08 196.84zM1261.08 836.84L1399.65 916.84L1399.65 1076.84L1261.08 1156.84L1122.52 1076.84L1122.52 916.84zM1399.65 1556.84L1538.22 1636.84L1538.22 1796.84L1399.65 1876.84L1261.08 1796.84L1261.08 1636.84zM1399.65 2516.84L1538.22 2596.84L1538.22 2756.84L1399.65 2836.84L1261.08 2756.84L1261.08 2596.84zM1538.22 356.84L1676.79 436.84L1676.79 596.84L1538.22 676.84L1399.65 596.84L1399.65 436.84zM1676.79 2036.84L1815.36 2116.84L1815.36 2276.84L1676.79 2356.84L1538.22 2276.84L1538.22 2116.84zM1538.22 2756.84L1676.79 2836.84L1676.79 2996.84L1538.22 3076.84L1399.65 2996.84L1399.65 2836.84zM1676.79 3956.84L1815.36 4036.84L1815.36 4196.84L1676.79 4276.84L1538.22 4196.84L1538.22 4036.84zM1538.22 4196.84L1676.79 4276.84L1676.79 4436.84L1538.22 4516.84L1399.65 4436.84L1399.65 4276.84z" stroke="rgba(74, 92, 102, 1)" stroke-width="2"></path>
        <path d="M4.12 -23.94L134.03 51.06L134.03 201.06L4.12 276.06L-125.79 201.06L-125.79 51.06zM4.12 876.06L134.03 951.06L134.03 1101.06L4.12 1176.06L-125.79 1101.06L-125.79 951.06zM4.12 1326.06L134.03 1401.06L134.03 1551.06L4.12 1626.06L-125.79 1551.06L-125.79 1401.06zM134.03 2001.06L263.94 2076.06L263.94 2226.06L134.03 2301.06L4.12 2226.06L4.12 2076.06zM4.12 2226.06L134.03 2301.06L134.03 2451.06L4.12 2526.06L-125.79 2451.06L-125.79 2301.06zM4.12 3126.06L134.03 3201.06L134.03 3351.06L4.12 3426.06L-125.79 3351.06L-125.79 3201.06zM134.03 3801.06L263.94 3876.06L263.94 4026.06L134.03 4101.06L4.12 4026.06L4.12 3876.06zM4.12 4026.06L134.03 4101.06L134.03 4251.06L4.12 4326.06L-125.79 4251.06L-125.79 4101.06zM263.94 -23.94L393.84 51.06L393.84 201.06L263.94 276.06L134.03 201.06L134.03 51.06zM263.94 426.06L393.84 501.06L393.84 651.06L263.94 726.06L134.03 651.06L134.03 501.06zM263.94 876.06L393.84 951.06L393.84 1101.06L263.94 1176.06L134.03 1101.06L134.03 951.06zM393.84 1551.06L523.75 1626.06L523.75 1776.06L393.84 1851.06L263.94 1776.06L263.94 1626.06zM263.94 1776.06L393.84 1851.06L393.84 2001.06L263.94 2076.06L134.03 2001.06L134.03 1851.06zM393.84 2901.06L523.75 2976.06L523.75 3126.06L393.84 3201.06L263.94 3126.06L263.94 2976.06zM263.94 3126.06L393.84 3201.06L393.84 3351.06L263.94 3426.06L134.03 3351.06L134.03 3201.06zM393.84 4251.06L523.75 4326.06L523.75 4476.06L393.84 4551.06L263.94 4476.06L263.94 4326.06zM263.94 4476.06L393.84 4551.06L393.84 4701.06L263.94 4776.06L134.03 4701.06L134.03 4551.06zM523.75 426.06L653.66 501.06L653.66 651.06L523.75 726.06L393.84 651.06L393.84 501.06zM653.66 1551.06L783.57 1626.06L783.57 1776.06L653.66 1851.06L523.75 1776.06L523.75 1626.06zM653.66 4251.06L783.57 4326.06L783.57 4476.06L653.66 4551.06L523.75 4476.06L523.75 4326.06zM913.47 651.06L1043.38 726.06L1043.38 876.06L913.47 951.06L783.56 876.06L783.56 726.06zM783.56 876.06L913.47 951.06L913.47 1101.06L783.56 1176.06L653.66 1101.06L653.66 951.06zM913.47 1101.06L1043.38 1176.06L1043.38 1326.06L913.47 1401.06L783.56 1326.06L783.56 1176.06zM783.56 1776.06L913.47 1851.06L913.47 2001.06L783.56 2076.06L653.66 2001.06L653.66 1851.06zM783.56 2226.06L913.47 2301.06L913.47 2451.06L783.56 2526.06L653.66 2451.06L653.66 2301.06zM783.56 3126.06L913.47 3201.06L913.47 3351.06L783.56 3426.06L653.66 3351.06L653.66 3201.06zM783.56 3576.06L913.47 3651.06L913.47 3801.06L783.56 3876.06L653.66 3801.06L653.66 3651.06zM783.56 4026.06L913.47 4101.06L913.47 4251.06L783.56 4326.06L653.66 4251.06L653.66 4101.06zM913.47 4251.06L1043.38 4326.06L1043.38 4476.06L913.47 4551.06L783.56 4476.06L783.56 4326.06zM1043.38 -23.94L1173.29 51.06L1173.29 201.06L1043.38 276.06L913.47 201.06L913.47 51.06zM1043.38 876.06L1173.29 951.06L1173.29 1101.06L1043.38 1176.06L913.47 1101.06L913.47 951.06zM1173.29 1101.06L1303.19 1176.06L1303.19 1326.06L1173.29 1401.06L1043.38 1326.06L1043.38 1176.06zM1043.38 1326.06L1173.29 1401.06L1173.29 1551.06L1043.38 1626.06L913.47 1551.06L913.47 1401.06zM1173.29 1551.06L1303.19 1626.06L1303.19 1776.06L1173.29 1851.06L1043.38 1776.06L1043.38 1626.06zM1173.29 2001.06L1303.19 2076.06L1303.19 2226.06L1173.29 2301.06L1043.38 2226.06L1043.38 2076.06zM1043.38 2226.06L1173.29 2301.06L1173.29 2451.06L1043.38 2526.06L913.47 2451.06L913.47 2301.06zM1173.29 2451.06L1303.19 2526.06L1303.19 2676.06L1173.29 2751.06L1043.38 2676.06L1043.38 2526.06zM1043.38 3576.06L1173.29 3651.06L1173.29 3801.06L1043.38 3876.06L913.47 3801.06L913.47 3651.06zM1433.1 201.06L1563.01 276.06L1563.01 426.06L1433.1 501.06L1303.19 426.06L1303.19 276.06zM1433.1 651.06L1563.01 726.06L1563.01 876.06L1433.1 951.06L1303.19 876.06L1303.19 726.06zM1433.1 1101.06L1563.01 1176.06L1563.01 1326.06L1433.1 1401.06L1303.19 1326.06L1303.19 1176.06zM1303.19 2226.06L1433.1 2301.06L1433.1 2451.06L1303.19 2526.06L1173.29 2451.06L1173.29 2301.06zM1303.19 3126.06L1433.1 3201.06L1433.1 3351.06L1303.19 3426.06L1173.29 3351.06L1173.29 3201.06z" stroke="rgba(128, 186, 36, 1)" stroke-width="2"></path>
        <path d="M-10.88 -23.94 a15 15 0 1 0 30 0 a15 15 0 1 0 -30 0zM119.03 51.06 a15 15 0 1 0 30 0 a15 15 0 1 0 -30 0zM119.03 201.06 a15 15 0 1 0 30 0 a15 15 0 1 0 -30 0zM-10.88 276.06 a15 15 0 1 0 30 0 a15 15 0 1 0 -30 0zM-140.79 201.06 a15 15 0 1 0 30 0 a15 15 0 1 0 -30 0zM-140.79 51.06 a15 15 0 1 0 30 0 a15 15 0 1 0 -30 0zM-10.88 876.06 a15 15 0 1 0 30 0 a15 15 0 1 0 -30 0zM119.03 951.06 a15 15 0 1 0 30 0 a15 15 0 1 0 -30 0zM119.03 1101.06 a15 15 0 1 0 30 0 a15 15 0 1 0 -30 0zM-10.88 1176.06 a15 15 0 1 0 30 0 a15 15 0 1 0 -30 0zM-140.79 1101.06 a15 15 0 1 0 30 0 a15 15 0 1 0 -30 0zM-140.79 951.06 a15 15 0 1 0 30 0 a15 15 0 1 0 -30 0zM-10.88 1326.06 a15 15 0 1 0 30 0 a15 15 0 1 0 -30 0zM119.03 1401.06 a15 15 0 1 0 30 0 a15 15 0 1 0 -30 0zM119.03 1551.06 a15 15 0 1 0 30 0 a15 15 0 1 0 -30 0zM-10.88 1626.06 a15 15 0 1 0 30 0 a15 15 0 1 0 -30 0zM-140.79 1551.06 a15 15 0 1 0 30 0 a15 15 0 1 0 -30 0zM-140.79 1401.06 a15 15 0 1 0 30 0 a15 15 0 1 0 -30 0zM119.03 2001.06 a15 15 0 1 0 30 0 a15 15 0 1 0 -30 0zM248.94 2076.06 a15 15 0 1 0 30 0 a15 15 0 1 0 -30 0zM248.94 2226.06 a15 15 0 1 0 30 0 a15 15 0 1 0 -30 0zM119.03 2301.06 a15 15 0 1 0 30 0 a15 15 0 1 0 -30 0zM-10.88 2226.06 a15 15 0 1 0 30 0 a15 15 0 1 0 -30 0zM-10.88 2076.06 a15 15 0 1 0 30 0 a15 15 0 1 0 -30 0zM119.03 2451.06 a15 15 0 1 0 30 0 a15 15 0 1 0 -30 0zM-10.88 2526.06 a15 15 0 1 0 30 0 a15 15 0 1 0 -30 0zM-140.79 2451.06 a15 15 0 1 0 30 0 a15 15 0 1 0 -30 0zM-140.79 2301.06 a15 15 0 1 0 30 0 a15 15 0 1 0 -30 0zM-10.88 3126.06 a15 15 0 1 0 30 0 a15 15 0 1 0 -30 0zM119.03 3201.06 a15 15 0 1 0 30 0 a15 15 0 1 0 -30 0zM119.03 3351.06 a15 15 0 1 0 30 0 a15 15 0 1 0 -30 0zM-10.88 3426.06 a15 15 0 1 0 30 0 a15 15 0 1 0 -30 0zM-140.79 3351.06 a15 15 0 1 0 30 0 a15 15 0 1 0 -30 0zM-140.79 3201.06 a15 15 0 1 0 30 0 a15 15 0 1 0 -30 0zM119.03 3801.06 a15 15 0 1 0 30 0 a15 15 0 1 0 -30 0zM248.94 3876.06 a15 15 0 1 0 30 0 a15 15 0 1 0 -30 0zM248.94 4026.06 a15 15 0 1 0 30 0 a15 15 0 1 0 -30 0zM119.03 4101.06 a15 15 0 1 0 30 0 a15 15 0 1 0 -30 0zM-10.88 4026.06 a15 15 0 1 0 30 0 a15 15 0 1 0 -30 0zM-10.88 3876.06 a15 15 0 1 0 30 0 a15 15 0 1 0 -30 0zM119.03 4251.06 a15 15 0 1 0 30 0 a15 15 0 1 0 -30 0zM-10.88 4326.06 a15 15 0 1 0 30 0 a15 15 0 1 0 -30 0zM-140.79 4251.06 a15 15 0 1 0 30 0 a15 15 0 1 0 -30 0zM-140.79 4101.06 a15 15 0 1 0 30 0 a15 15 0 1 0 -30 0zM248.94 -23.94 a15 15 0 1 0 30 0 a15 15 0 1 0 -30 0zM378.84 51.06 a15 15 0 1 0 30 0 a15 15 0 1 0 -30 0zM378.84 201.06 a15 15 0 1 0 30 0 a15 15 0 1 0 -30 0zM248.94 276.06 a15 15 0 1 0 30 0 a15 15 0 1 0 -30 0zM248.94 426.06 a15 15 0 1 0 30 0 a15 15 0 1 0 -30 0zM378.84 501.06 a15 15 0 1 0 30 0 a15 15 0 1 0 -30 0zM378.84 651.06 a15 15 0 1 0 30 0 a15 15 0 1 0 -30 0zM248.94 726.06 a15 15 0 1 0 30 0 a15 15 0 1 0 -30 0zM119.03 651.06 a15 15 0 1 0 30 0 a15 15 0 1 0 -30 0zM119.03 501.06 a15 15 0 1 0 30 0 a15 15 0 1 0 -30 0zM248.94 876.06 a15 15 0 1 0 30 0 a15 15 0 1 0 -30 0zM378.84 951.06 a15 15 0 1 0 30 0 a15 15 0 1 0 -30 0zM378.84 1101.06 a15 15 0 1 0 30 0 a15 15 0 1 0 -30 0zM248.94 1176.06 a15 15 0 1 0 30 0 a15 15 0 1 0 -30 0zM378.84 1551.06 a15 15 0 1 0 30 0 a15 15 0 1 0 -30 0zM508.75 1626.06 a15 15 0 1 0 30 0 a15 15 0 1 0 -30 0zM508.75 1776.06 a15 15 0 1 0 30 0 a15 15 0 1 0 -30 0zM378.84 1851.06 a15 15 0 1 0 30 0 a15 15 0 1 0 -30 0zM248.94 1776.06 a15 15 0 1 0 30 0 a15 15 0 1 0 -30 0zM248.94 1626.06 a15 15 0 1 0 30 0 a15 15 0 1 0 -30 0zM378.84 2001.06 a15 15 0 1 0 30 0 a15 15 0 1 0 -30 0zM119.03 1851.06 a15 15 0 1 0 30 0 a15 15 0 1 0 -30 0zM378.84 2901.06 a15 15 0 1 0 30 0 a15 15 0 1 0 -30 0zM508.75 2976.06 a15 15 0 1 0 30 0 a15 15 0 1 0 -30 0zM508.75 3126.06 a15 15 0 1 0 30 0 a15 15 0 1 0 -30 0zM378.84 3201.06 a15 15 0 1 0 30 0 a15 15 0 1 0 -30 0zM248.94 3126.06 a15 15 0 1 0 30 0 a15 15 0 1 0 -30 0zM248.94 2976.06 a15 15 0 1 0 30 0 a15 15 0 1 0 -30 0zM378.84 3351.06 a15 15 0 1 0 30 0 a15 15 0 1 0 -30 0zM248.94 3426.06 a15 15 0 1 0 30 0 a15 15 0 1 0 -30 0zM378.84 4251.06 a15 15 0 1 0 30 0 a15 15 0 1 0 -30 0zM508.75 4326.06 a15 15 0 1 0 30 0 a15 15 0 1 0 -30 0zM508.75 4476.06 a15 15 0 1 0 30 0 a15 15 0 1 0 -30 0zM378.84 4551.06 a15 15 0 1 0 30 0 a15 15 0 1 0 -30 0zM248.94 4476.06 a15 15 0 1 0 30 0 a15 15 0 1 0 -30 0zM248.94 4326.06 a15 15 0 1 0 30 0 a15 15 0 1 0 -30 0zM378.84 4701.06 a15 15 0 1 0 30 0 a15 15 0 1 0 -30 0zM248.94 4776.06 a15 15 0 1 0 30 0 a15 15 0 1 0 -30 0zM119.03 4701.06 a15 15 0 1 0 30 0 a15 15 0 1 0 -30 0zM119.03 4551.06 a15 15 0 1 0 30 0 a15 15 0 1 0 -30 0zM508.75 426.06 a15 15 0 1 0 30 0 a15 15 0 1 0 -30 0zM638.66 501.06 a15 15 0 1 0 30 0 a15 15 0 1 0 -30 0zM638.66 651.06 a15 15 0 1 0 30 0 a15 15 0 1 0 -30 0zM508.75 726.06 a15 15 0 1 0 30 0 a15 15 0 1 0 -30 0zM638.66 1551.06 a15 15 0 1 0 30 0 a15 15 0 1 0 -30 0zM768.57 1626.06 a15 15 0 1 0 30 0 a15 15 0 1 0 -30 0zM768.57 1776.06 a15 15 0 1 0 30 0 a15 15 0 1 0 -30 0zM638.66 1851.06 a15 15 0 1 0 30 0 a15 15 0 1 0 -30 0zM638.66 4251.06 a15 15 0 1 0 30 0 a15 15 0 1 0 -30 0zM768.57 4326.06 a15 15 0 1 0 30 0 a15 15 0 1 0 -30 0zM768.57 4476.06 a15 15 0 1 0 30 0 a15 15 0 1 0 -30 0zM638.66 4551.06 a15 15 0 1 0 30 0 a15 15 0 1 0 -30 0zM898.47 651.06 a15 15 0 1 0 30 0 a15 15 0 1 0 -30 0zM1028.38 726.06 a15 15 0 1 0 30 0 a15 15 0 1 0 -30 0zM1028.38 876.06 a15 15 0 1 0 30 0 a15 15 0 1 0 -30 0zM898.47 951.06 a15 15 0 1 0 30 0 a15 15 0 1 0 -30 0zM768.56 876.06 a15 15 0 1 0 30 0 a15 15 0 1 0 -30 0zM768.56 726.06 a15 15 0 1 0 30 0 a15 15 0 1 0 -30 0zM898.47 1101.06 a15 15 0 1 0 30 0 a15 15 0 1 0 -30 0zM768.56 1176.06 a15 15 0 1 0 30 0 a15 15 0 1 0 -30 0zM638.66 1101.06 a15 15 0 1 0 30 0 a15 15 0 1 0 -30 0zM638.66 951.06 a15 15 0 1 0 30 0 a15 15 0 1 0 -30 0zM1028.38 1176.06 a15 15 0 1 0 30 0 a15 15 0 1 0 -30 0zM1028.38 1326.06 a15 15 0 1 0 30 0 a15 15 0 1 0 -30 0zM898.47 1401.06 a15 15 0 1 0 30 0 a15 15 0 1 0 -30 0zM768.56 1326.06 a15 15 0 1 0 30 0 a15 15 0 1 0 -30 0zM768.56 1776.06 a15 15 0 1 0 30 0 a15 15 0 1 0 -30 0zM898.47 1851.06 a15 15 0 1 0 30 0 a15 15 0 1 0 -30 0zM898.47 2001.06 a15 15 0 1 0 30 0 a15 15 0 1 0 -30 0zM768.56 2076.06 a15 15 0 1 0 30 0 a15 15 0 1 0 -30 0zM638.66 2001.06 a15 15 0 1 0 30 0 a15 15 0 1 0 -30 0zM768.56 2226.06 a15 15 0 1 0 30 0 a15 15 0 1 0 -30 0zM898.47 2301.06 a15 15 0 1 0 30 0 a15 15 0 1 0 -30 0zM898.47 2451.06 a15 15 0 1 0 30 0 a15 15 0 1 0 -30 0zM768.56 2526.06 a15 15 0 1 0 30 0 a15 15 0 1 0 -30 0zM638.66 2451.06 a15 15 0 1 0 30 0 a15 15 0 1 0 -30 0zM638.66 2301.06 a15 15 0 1 0 30 0 a15 15 0 1 0 -30 0zM768.56 3126.06 a15 15 0 1 0 30 0 a15 15 0 1 0 -30 0zM898.47 3201.06 a15 15 0 1 0 30 0 a15 15 0 1 0 -30 0zM898.47 3351.06 a15 15 0 1 0 30 0 a15 15 0 1 0 -30 0zM768.56 3426.06 a15 15 0 1 0 30 0 a15 15 0 1 0 -30 0zM638.66 3351.06 a15 15 0 1 0 30 0 a15 15 0 1 0 -30 0zM638.66 3201.06 a15 15 0 1 0 30 0 a15 15 0 1 0 -30 0zM768.56 3576.06 a15 15 0 1 0 30 0 a15 15 0 1 0 -30 0zM898.47 3651.06 a15 15 0 1 0 30 0 a15 15 0 1 0 -30 0zM898.47 3801.06 a15 15 0 1 0 30 0 a15 15 0 1 0 -30 0zM768.56 3876.06 a15 15 0 1 0 30 0 a15 15 0 1 0 -30 0zM638.66 3801.06 a15 15 0 1 0 30 0 a15 15 0 1 0 -30 0zM638.66 3651.06 a15 15 0 1 0 30 0 a15 15 0 1 0 -30 0zM768.56 4026.06 a15 15 0 1 0 30 0 a15 15 0 1 0 -30 0zM898.47 4101.06 a15 15 0 1 0 30 0 a15 15 0 1 0 -30 0zM898.47 4251.06 a15 15 0 1 0 30 0 a15 15 0 1 0 -30 0zM768.56 4326.06 a15 15 0 1 0 30 0 a15 15 0 1 0 -30 0zM638.66 4101.06 a15 15 0 1 0 30 0 a15 15 0 1 0 -30 0zM1028.38 4326.06 a15 15 0 1 0 30 0 a15 15 0 1 0 -30 0zM1028.38 4476.06 a15 15 0 1 0 30 0 a15 15 0 1 0 -30 0zM898.47 4551.06 a15 15 0 1 0 30 0 a15 15 0 1 0 -30 0zM768.56 4476.06 a15 15 0 1 0 30 0 a15 15 0 1 0 -30 0zM1028.38 -23.94 a15 15 0 1 0 30 0 a15 15 0 1 0 -30 0zM1158.29 51.06 a15 15 0 1 0 30 0 a15 15 0 1 0 -30 0zM1158.29 201.06 a15 15 0 1 0 30 0 a15 15 0 1 0 -30 0zM1028.38 276.06 a15 15 0 1 0 30 0 a15 15 0 1 0 -30 0zM898.47 201.06 a15 15 0 1 0 30 0 a15 15 0 1 0 -30 0zM898.47 51.06 a15 15 0 1 0 30 0 a15 15 0 1 0 -30 0zM1158.29 951.06 a15 15 0 1 0 30 0 a15 15 0 1 0 -30 0zM1158.29 1101.06 a15 15 0 1 0 30 0 a15 15 0 1 0 -30 0zM1288.19 1176.06 a15 15 0 1 0 30 0 a15 15 0 1 0 -30 0zM1288.19 1326.06 a15 15 0 1 0 30 0 a15 15 0 1 0 -30 0zM1158.29 1401.06 a15 15 0 1 0 30 0 a15 15 0 1 0 -30 0zM1158.29 1551.06 a15 15 0 1 0 30 0 a15 15 0 1 0 -30 0zM1028.38 1626.06 a15 15 0 1 0 30 0 a15 15 0 1 0 -30 0zM898.47 1551.06 a15 15 0 1 0 30 0 a15 15 0 1 0 -30 0zM1288.19 1626.06 a15 15 0 1 0 30 0 a15 15 0 1 0 -30 0zM1288.19 1776.06 a15 15 0 1 0 30 0 a15 15 0 1 0 -30 0zM1158.29 1851.06 a15 15 0 1 0 30 0 a15 15 0 1 0 -30 0zM1028.38 1776.06 a15 15 0 1 0 30 0 a15 15 0 1 0 -30 0zM1158.29 2001.06 a15 15 0 1 0 30 0 a15 15 0 1 0 -30 0zM1288.19 2076.06 a15 15 0 1 0 30 0 a15 15 0 1 0 -30 0zM1288.19 2226.06 a15 15 0 1 0 30 0 a15 15 0 1 0 -30 0zM1158.29 2301.06 a15 15 0 1 0 30 0 a15 15 0 1 0 -30 0zM1028.38 2226.06 a15 15 0 1 0 30 0 a15 15 0 1 0 -30 0zM1028.38 2076.06 a15 15 0 1 0 30 0 a15 15 0 1 0 -30 0zM1158.29 2451.06 a15 15 0 1 0 30 0 a15 15 0 1 0 -30 0zM1028.38 2526.06 a15 15 0 1 0 30 0 a15 15 0 1 0 -30 0zM1288.19 2526.06 a15 15 0 1 0 30 0 a15 15 0 1 0 -30 0zM1288.19 2676.06 a15 15 0 1 0 30 0 a15 15 0 1 0 -30 0zM1158.29 2751.06 a15 15 0 1 0 30 0 a15 15 0 1 0 -30 0zM1028.38 2676.06 a15 15 0 1 0 30 0 a15 15 0 1 0 -30 0zM1028.38 3576.06 a15 15 0 1 0 30 0 a15 15 0 1 0 -30 0zM1158.29 3651.06 a15 15 0 1 0 30 0 a15 15 0 1 0 -30 0zM1158.29 3801.06 a15 15 0 1 0 30 0 a15 15 0 1 0 -30 0zM1028.38 3876.06 a15 15 0 1 0 30 0 a15 15 0 1 0 -30 0zM1418.1 201.06 a15 15 0 1 0 30 0 a15 15 0 1 0 -30 0zM1548.01 276.06 a15 15 0 1 0 30 0 a15 15 0 1 0 -30 0zM1548.01 426.06 a15 15 0 1 0 30 0 a15 15 0 1 0 -30 0zM1418.1 501.06 a15 15 0 1 0 30 0 a15 15 0 1 0 -30 0zM1288.19 426.06 a15 15 0 1 0 30 0 a15 15 0 1 0 -30 0zM1288.19 276.06 a15 15 0 1 0 30 0 a15 15 0 1 0 -30 0zM1418.1 651.06 a15 15 0 1 0 30 0 a15 15 0 1 0 -30 0zM1548.01 726.06 a15 15 0 1 0 30 0 a15 15 0 1 0 -30 0zM1548.01 876.06 a15 15 0 1 0 30 0 a15 15 0 1 0 -30 0zM1418.1 951.06 a15 15 0 1 0 30 0 a15 15 0 1 0 -30 0zM1288.19 876.06 a15 15 0 1 0 30 0 a15 15 0 1 0 -30 0zM1288.19 726.06 a15 15 0 1 0 30 0 a15 15 0 1 0 -30 0zM1418.1 1101.06 a15 15 0 1 0 30 0 a15 15 0 1 0 -30 0zM1548.01 1176.06 a15 15 0 1 0 30 0 a15 15 0 1 0 -30 0zM1548.01 1326.06 a15 15 0 1 0 30 0 a15 15 0 1 0 -30 0zM1418.1 1401.06 a15 15 0 1 0 30 0 a15 15 0 1 0 -30 0zM1418.1 2301.06 a15 15 0 1 0 30 0 a15 15 0 1 0 -30 0zM1418.1 2451.06 a15 15 0 1 0 30 0 a15 15 0 1 0 -30 0zM1288.19 3126.06 a15 15 0 1 0 30 0 a15 15 0 1 0 -30 0zM1418.1 3201.06 a15 15 0 1 0 30 0 a15 15 0 1 0 -30 0zM1418.1 3351.06 a15 15 0 1 0 30 0 a15 15 0 1 0 -30 0zM1288.19 3426.06 a15 15 0 1 0 30 0 a15 15 0 1 0 -30 0zM1158.29 3351.06 a15 15 0 1 0 30 0 a15 15 0 1 0 -30 0zM1158.29 3201.06 a15 15 0 1 0 30 0 a15 15 0 1 0 -30 0z" fill="rgba(128, 186, 36, 1)"></path>
    </g>
    <defs>
        <mask id="SvgjsMask1090">
            <rect width="1440" height="4500" fill="#ffffff"></rect>
        </mask>
        <radialGradient cx="50%" cy="50%" r="2362.39" gradientUnits="userSpaceOnUse" id="SvgjsRadialGradient1091">
            <stop stop-color="rgba(255, 255, 255, 1)" offset="0"></stop>
            <stop stop-color="rgba(255, 255, 255, 1)" offset="0.28"></stop>
            <stop stop-color="rgba(152, 212, 57, 1)" offset="1"></stop>
        </radialGradient>
    </defs>
</svg>