<svg xmlns="http://www.w3.org/2000/svg" version="1.1" xmlns:xlink="http://www.w3.org/1999/xlink" xmlns:svgjs="http://svgjs.com/svgjs" width="4040" height="9251" preserveAspectRatio="none" viewBox="0 0 4040 9251">
    <g mask="url(&quot;#SvgjsMask1008&quot;)" fill="none">
        <rect width="4040" height="9251" x="0" y="0" fill="url(#SvgjsRadialGradient1009)"></rect>
        <path d="M26.51 -67.8L125.24 -10.8L125.24 103.2L26.51 160.2L-72.22 103.2L-72.22 -10.8zM125.24 1129.2L223.97 1186.2L223.97 1300.2L125.24 1357.2L26.51 1300.2L26.51 1186.2zM26.51 1300.2L125.24 1357.2L125.24 1471.2L26.51 1528.2L-72.22 1471.2L-72.22 1357.2zM26.51 1642.2L125.24 1699.2L125.24 1813.2L26.51 1870.2L-72.22 1813.2L-72.22 1699.2zM26.51 1984.2L125.24 2041.2L125.24 2155.2L26.51 2212.2L-72.22 2155.2L-72.22 2041.2zM125.24 2155.2L223.97 2212.2L223.97 2326.2L125.24 2383.2L26.51 2326.2L26.51 2212.2zM125.24 2497.2L223.97 2554.2L223.97 2668.2L125.24 2725.2L26.51 2668.2L26.51 2554.2zM26.51 2668.2L125.24 2725.2L125.24 2839.2L26.51 2896.2L-72.22 2839.2L-72.22 2725.2zM26.51 3694.2L125.24 3751.2L125.24 3865.2L26.51 3922.2L-72.22 3865.2L-72.22 3751.2zM26.51 4378.2L125.24 4435.2L125.24 4549.2L26.51 4606.2L-72.22 4549.2L-72.22 4435.2zM26.51 5404.2L125.24 5461.2L125.24 5575.2L26.51 5632.2L-72.22 5575.2L-72.22 5461.2zM125.24 6601.2L223.97 6658.2L223.97 6772.2L125.24 6829.2L26.51 6772.2L26.51 6658.2zM125.24 7285.2L223.97 7342.2L223.97 7456.2L125.24 7513.2L26.51 7456.2L26.51 7342.2zM26.51 8140.2L125.24 8197.2L125.24 8311.2L26.51 8368.2L-72.22 8311.2L-72.22 8197.2zM125.24 8311.2L223.97 8368.2L223.97 8482.2L125.24 8539.2L26.51 8482.2L26.51 8368.2zM26.51 9166.2L125.24 9223.2L125.24 9337.2L26.51 9394.2L-72.22 9337.2L-72.22 9223.2zM223.97 958.2L322.7 1015.2L322.7 1129.2L223.97 1186.2L125.24 1129.2L125.24 1015.2zM322.7 2497.2L421.43 2554.2L421.43 2668.2L322.7 2725.2L223.97 2668.2L223.97 2554.2zM322.7 3523.2L421.43 3580.2L421.43 3694.2L322.7 3751.2L223.97 3694.2L223.97 3580.2zM322.7 3865.2L421.43 3922.2L421.43 4036.2L322.7 4093.2L223.97 4036.2L223.97 3922.2zM322.7 4207.2L421.43 4264.2L421.43 4378.2L322.7 4435.2L223.97 4378.2L223.97 4264.2zM223.97 4378.2L322.7 4435.2L322.7 4549.2L223.97 4606.2L125.24 4549.2L125.24 4435.2zM223.97 5062.2L322.7 5119.2L322.7 5233.2L223.97 5290.2L125.24 5233.2L125.24 5119.2zM322.7 5917.2L421.43 5974.2L421.43 6088.2L322.7 6145.2L223.97 6088.2L223.97 5974.2zM322.7 7285.2L421.43 7342.2L421.43 7456.2L322.7 7513.2L223.97 7456.2L223.97 7342.2zM322.7 7627.2L421.43 7684.2L421.43 7798.2L322.7 7855.2L223.97 7798.2L223.97 7684.2zM223.97 8482.2L322.7 8539.2L322.7 8653.2L223.97 8710.2L125.24 8653.2L125.24 8539.2zM520.16 103.2L618.89 160.2L618.89 274.2L520.16 331.2L421.43 274.2L421.43 160.2zM520.16 1471.2L618.89 1528.2L618.89 1642.2L520.16 1699.2L421.43 1642.2L421.43 1528.2zM421.43 1642.2L520.16 1699.2L520.16 1813.2L421.43 1870.2L322.7 1813.2L322.7 1699.2zM520.16 2155.2L618.89 2212.2L618.89 2326.2L520.16 2383.2L421.43 2326.2L421.43 2212.2zM421.43 2668.2L520.16 2725.2L520.16 2839.2L421.43 2896.2L322.7 2839.2L322.7 2725.2zM421.43 3694.2L520.16 3751.2L520.16 3865.2L421.43 3922.2L322.7 3865.2L322.7 3751.2zM520.16 4549.2L618.89 4606.2L618.89 4720.2L520.16 4777.2L421.43 4720.2L421.43 4606.2zM421.43 5062.2L520.16 5119.2L520.16 5233.2L421.43 5290.2L322.7 5233.2L322.7 5119.2zM520.16 5233.2L618.89 5290.2L618.89 5404.2L520.16 5461.2L421.43 5404.2L421.43 5290.2zM520.16 7285.2L618.89 7342.2L618.89 7456.2L520.16 7513.2L421.43 7456.2L421.43 7342.2zM520.16 7627.2L618.89 7684.2L618.89 7798.2L520.16 7855.2L421.43 7798.2L421.43 7684.2zM421.43 8140.2L520.16 8197.2L520.16 8311.2L421.43 8368.2L322.7 8311.2L322.7 8197.2zM520.16 8653.2L618.89 8710.2L618.89 8824.2L520.16 8881.2L421.43 8824.2L421.43 8710.2zM520.16 8995.2L618.89 9052.2L618.89 9166.2L520.16 9223.2L421.43 9166.2L421.43 9052.2zM618.89 274.2L717.62 331.2L717.62 445.2L618.89 502.2L520.16 445.2L520.16 331.2zM618.89 616.2L717.62 673.2L717.62 787.2L618.89 844.2L520.16 787.2L520.16 673.2zM717.62 787.2L816.35 844.2L816.35 958.2L717.62 1015.2L618.89 958.2L618.89 844.2zM618.89 958.2L717.62 1015.2L717.62 1129.2L618.89 1186.2L520.16 1129.2L520.16 1015.2zM618.89 1642.2L717.62 1699.2L717.62 1813.2L618.89 1870.2L520.16 1813.2L520.16 1699.2zM717.62 1813.2L816.35 1870.2L816.35 1984.2L717.62 2041.2L618.89 1984.2L618.89 1870.2zM717.62 5575.2L816.35 5632.2L816.35 5746.2L717.62 5803.2L618.89 5746.2L618.89 5632.2zM717.62 5917.2L816.35 5974.2L816.35 6088.2L717.62 6145.2L618.89 6088.2L618.89 5974.2zM618.89 6430.2L717.62 6487.2L717.62 6601.2L618.89 6658.2L520.16 6601.2L520.16 6487.2zM618.89 8824.2L717.62 8881.2L717.62 8995.2L618.89 9052.2L520.16 8995.2L520.16 8881.2zM816.35 -67.8L915.08 -10.8L915.08 103.2L816.35 160.2L717.62 103.2L717.62 -10.8zM816.35 616.2L915.08 673.2L915.08 787.2L816.35 844.2L717.62 787.2L717.62 673.2zM816.35 1300.2L915.08 1357.2L915.08 1471.2L816.35 1528.2L717.62 1471.2L717.62 1357.2zM816.35 1984.2L915.08 2041.2L915.08 2155.2L816.35 2212.2L717.62 2155.2L717.62 2041.2zM915.08 2497.2L1013.81 2554.2L1013.81 2668.2L915.08 2725.2L816.35 2668.2L816.35 2554.2zM915.08 4207.2L1013.81 4264.2L1013.81 4378.2L915.08 4435.2L816.35 4378.2L816.35 4264.2zM816.35 6088.2L915.08 6145.2L915.08 6259.2L816.35 6316.2L717.62 6259.2L717.62 6145.2zM816.35 7114.2L915.08 7171.2L915.08 7285.2L816.35 7342.2L717.62 7285.2L717.62 7171.2zM816.35 8482.2L915.08 8539.2L915.08 8653.2L816.35 8710.2L717.62 8653.2L717.62 8539.2zM816.35 9166.2L915.08 9223.2L915.08 9337.2L816.35 9394.2L717.62 9337.2L717.62 9223.2zM1013.81 274.2L1112.54 331.2L1112.54 445.2L1013.81 502.2L915.08 445.2L915.08 331.2zM1013.81 1984.2L1112.54 2041.2L1112.54 2155.2L1013.81 2212.2L915.08 2155.2L915.08 2041.2zM1112.54 2155.2L1211.27 2212.2L1211.27 2326.2L1112.54 2383.2L1013.81 2326.2L1013.81 2212.2zM1112.54 2497.2L1211.27 2554.2L1211.27 2668.2L1112.54 2725.2L1013.81 2668.2L1013.81 2554.2zM1013.81 2668.2L1112.54 2725.2L1112.54 2839.2L1013.81 2896.2L915.08 2839.2L915.08 2725.2zM1112.54 2839.2L1211.27 2896.2L1211.27 3010.2L1112.54 3067.2L1013.81 3010.2L1013.81 2896.2zM1013.81 3010.2L1112.54 3067.2L1112.54 3181.2L1013.81 3238.2L915.08 3181.2L915.08 3067.2zM1112.54 3181.2L1211.27 3238.2L1211.27 3352.2L1112.54 3409.2L1013.81 3352.2L1013.81 3238.2zM1112.54 4207.2L1211.27 4264.2L1211.27 4378.2L1112.54 4435.2L1013.81 4378.2L1013.81 4264.2zM1013.81 4378.2L1112.54 4435.2L1112.54 4549.2L1013.81 4606.2L915.08 4549.2L915.08 4435.2zM1112.54 4549.2L1211.27 4606.2L1211.27 4720.2L1112.54 4777.2L1013.81 4720.2L1013.81 4606.2zM1013.81 5062.2L1112.54 5119.2L1112.54 5233.2L1013.81 5290.2L915.08 5233.2L915.08 5119.2zM1013.81 5404.2L1112.54 5461.2L1112.54 5575.2L1013.81 5632.2L915.08 5575.2L915.08 5461.2zM1112.54 5917.2L1211.27 5974.2L1211.27 6088.2L1112.54 6145.2L1013.81 6088.2L1013.81 5974.2zM1112.54 7285.2L1211.27 7342.2L1211.27 7456.2L1112.54 7513.2L1013.81 7456.2L1013.81 7342.2zM1013.81 7798.2L1112.54 7855.2L1112.54 7969.2L1013.81 8026.2L915.08 7969.2L915.08 7855.2zM1112.54 7969.2L1211.27 8026.2L1211.27 8140.2L1112.54 8197.2L1013.81 8140.2L1013.81 8026.2zM1310 787.2L1408.73 844.2L1408.73 958.2L1310 1015.2L1211.27 958.2L1211.27 844.2zM1310 1813.2L1408.73 1870.2L1408.73 1984.2L1310 2041.2L1211.27 1984.2L1211.27 1870.2zM1211.27 2326.2L1310 2383.2L1310 2497.2L1211.27 2554.2L1112.54 2497.2L1112.54 2383.2zM1211.27 3694.2L1310 3751.2L1310 3865.2L1211.27 3922.2L1112.54 3865.2L1112.54 3751.2zM1310 4549.2L1408.73 4606.2L1408.73 4720.2L1310 4777.2L1211.27 4720.2L1211.27 4606.2zM1310 5917.2L1408.73 5974.2L1408.73 6088.2L1310 6145.2L1211.27 6088.2L1211.27 5974.2zM1211.27 6430.2L1310 6487.2L1310 6601.2L1211.27 6658.2L1112.54 6601.2L1112.54 6487.2zM1211.27 7798.2L1310 7855.2L1310 7969.2L1211.27 8026.2L1112.54 7969.2L1112.54 7855.2zM1310 8995.2L1408.73 9052.2L1408.73 9166.2L1310 9223.2L1211.27 9166.2L1211.27 9052.2zM1408.73 -67.8L1507.46 -10.8L1507.46 103.2L1408.73 160.2L1310 103.2L1310 -10.8zM1408.73 616.2L1507.46 673.2L1507.46 787.2L1408.73 844.2L1310 787.2L1310 673.2zM1507.46 2497.2L1606.19 2554.2L1606.19 2668.2L1507.46 2725.2L1408.73 2668.2L1408.73 2554.2zM1408.73 3010.2L1507.46 3067.2L1507.46 3181.2L1408.73 3238.2L1310 3181.2L1310 3067.2zM1507.46 3523.2L1606.19 3580.2L1606.19 3694.2L1507.46 3751.2L1408.73 3694.2L1408.73 3580.2zM1507.46 3865.2L1606.19 3922.2L1606.19 4036.2L1507.46 4093.2L1408.73 4036.2L1408.73 3922.2zM1408.73 4036.2L1507.46 4093.2L1507.46 4207.2L1408.73 4264.2L1310 4207.2L1310 4093.2zM1507.46 4207.2L1606.19 4264.2L1606.19 4378.2L1507.46 4435.2L1408.73 4378.2L1408.73 4264.2zM1408.73 4378.2L1507.46 4435.2L1507.46 4549.2L1408.73 4606.2L1310 4549.2L1310 4435.2zM1408.73 5404.2L1507.46 5461.2L1507.46 5575.2L1408.73 5632.2L1310 5575.2L1310 5461.2zM1507.46 5575.2L1606.19 5632.2L1606.19 5746.2L1507.46 5803.2L1408.73 5746.2L1408.73 5632.2zM1507.46 6601.2L1606.19 6658.2L1606.19 6772.2L1507.46 6829.2L1408.73 6772.2L1408.73 6658.2zM1408.73 8482.2L1507.46 8539.2L1507.46 8653.2L1408.73 8710.2L1310 8653.2L1310 8539.2zM1507.46 8653.2L1606.19 8710.2L1606.19 8824.2L1507.46 8881.2L1408.73 8824.2L1408.73 8710.2zM1408.73 8824.2L1507.46 8881.2L1507.46 8995.2L1408.73 9052.2L1310 8995.2L1310 8881.2zM1507.46 8995.2L1606.19 9052.2L1606.19 9166.2L1507.46 9223.2L1408.73 9166.2L1408.73 9052.2zM1606.19 1642.2L1704.91 1699.2L1704.91 1813.2L1606.19 1870.2L1507.46 1813.2L1507.46 1699.2zM1704.91 1813.2L1803.64 1870.2L1803.64 1984.2L1704.91 2041.2L1606.19 1984.2L1606.19 1870.2zM1606.19 2326.2L1704.91 2383.2L1704.91 2497.2L1606.19 2554.2L1507.46 2497.2L1507.46 2383.2zM1606.19 3694.2L1704.91 3751.2L1704.91 3865.2L1606.19 3922.2L1507.46 3865.2L1507.46 3751.2zM1704.91 3865.2L1803.64 3922.2L1803.64 4036.2L1704.91 4093.2L1606.19 4036.2L1606.19 3922.2zM1704.91 4891.2L1803.64 4948.2L1803.64 5062.2L1704.91 5119.2L1606.19 5062.2L1606.19 4948.2zM1704.91 5575.2L1803.64 5632.2L1803.64 5746.2L1704.91 5803.2L1606.19 5746.2L1606.19 5632.2zM1704.91 6259.2L1803.64 6316.2L1803.64 6430.2L1704.91 6487.2L1606.19 6430.2L1606.19 6316.2zM1606.19 7114.2L1704.91 7171.2L1704.91 7285.2L1606.19 7342.2L1507.46 7285.2L1507.46 7171.2zM1704.91 8311.2L1803.64 8368.2L1803.64 8482.2L1704.91 8539.2L1606.19 8482.2L1606.19 8368.2zM1606.19 9166.2L1704.91 9223.2L1704.91 9337.2L1606.19 9394.2L1507.46 9337.2L1507.46 9223.2zM1803.64 616.2L1902.37 673.2L1902.37 787.2L1803.64 844.2L1704.91 787.2L1704.91 673.2zM1902.37 1471.2L2001.1 1528.2L2001.1 1642.2L1902.37 1699.2L1803.64 1642.2L1803.64 1528.2zM1803.64 2668.2L1902.37 2725.2L1902.37 2839.2L1803.64 2896.2L1704.91 2839.2L1704.91 2725.2zM1803.64 3352.2L1902.37 3409.2L1902.37 3523.2L1803.64 3580.2L1704.91 3523.2L1704.91 3409.2zM1902.37 3865.2L2001.1 3922.2L2001.1 4036.2L1902.37 4093.2L1803.64 4036.2L1803.64 3922.2zM1902.37 4207.2L2001.1 4264.2L2001.1 4378.2L1902.37 4435.2L1803.64 4378.2L1803.64 4264.2zM1902.37 4549.2L2001.1 4606.2L2001.1 4720.2L1902.37 4777.2L1803.64 4720.2L1803.64 4606.2zM1902.37 4891.2L2001.1 4948.2L2001.1 5062.2L1902.37 5119.2L1803.64 5062.2L1803.64 4948.2zM1803.64 5746.2L1902.37 5803.2L1902.37 5917.2L1803.64 5974.2L1704.91 5917.2L1704.91 5803.2zM1902.37 5917.2L2001.1 5974.2L2001.1 6088.2L1902.37 6145.2L1803.64 6088.2L1803.64 5974.2zM1803.64 6088.2L1902.37 6145.2L1902.37 6259.2L1803.64 6316.2L1704.91 6259.2L1704.91 6145.2zM1902.37 6259.2L2001.1 6316.2L2001.1 6430.2L1902.37 6487.2L1803.64 6430.2L1803.64 6316.2zM1803.64 7114.2L1902.37 7171.2L1902.37 7285.2L1803.64 7342.2L1704.91 7285.2L1704.91 7171.2zM1803.64 7456.2L1902.37 7513.2L1902.37 7627.2L1803.64 7684.2L1704.91 7627.2L1704.91 7513.2zM1902.37 7969.2L2001.1 8026.2L2001.1 8140.2L1902.37 8197.2L1803.64 8140.2L1803.64 8026.2zM2001.1 -67.8L2099.83 -10.8L2099.83 103.2L2001.1 160.2L1902.37 103.2L1902.37 -10.8zM2001.1 274.2L2099.83 331.2L2099.83 445.2L2001.1 502.2L1902.37 445.2L1902.37 331.2zM2001.1 958.2L2099.83 1015.2L2099.83 1129.2L2001.1 1186.2L1902.37 1129.2L1902.37 1015.2zM2099.83 1471.2L2198.56 1528.2L2198.56 1642.2L2099.83 1699.2L2001.1 1642.2L2001.1 1528.2zM2001.1 1984.2L2099.83 2041.2L2099.83 2155.2L2001.1 2212.2L1902.37 2155.2L1902.37 2041.2zM2099.83 2155.2L2198.56 2212.2L2198.56 2326.2L2099.83 2383.2L2001.1 2326.2L2001.1 2212.2zM2099.83 2497.2L2198.56 2554.2L2198.56 2668.2L2099.83 2725.2L2001.1 2668.2L2001.1 2554.2zM2099.83 2839.2L2198.56 2896.2L2198.56 3010.2L2099.83 3067.2L2001.1 3010.2L2001.1 2896.2zM2001.1 3010.2L2099.83 3067.2L2099.83 3181.2L2001.1 3238.2L1902.37 3181.2L1902.37 3067.2zM2001.1 4378.2L2099.83 4435.2L2099.83 4549.2L2001.1 4606.2L1902.37 4549.2L1902.37 4435.2zM2001.1 5062.2L2099.83 5119.2L2099.83 5233.2L2001.1 5290.2L1902.37 5233.2L1902.37 5119.2zM2001.1 6430.2L2099.83 6487.2L2099.83 6601.2L2001.1 6658.2L1902.37 6601.2L1902.37 6487.2zM2099.83 6601.2L2198.56 6658.2L2198.56 6772.2L2099.83 6829.2L2001.1 6772.2L2001.1 6658.2zM2099.83 7285.2L2198.56 7342.2L2198.56 7456.2L2099.83 7513.2L2001.1 7456.2L2001.1 7342.2zM2001.1 7798.2L2099.83 7855.2L2099.83 7969.2L2001.1 8026.2L1902.37 7969.2L1902.37 7855.2zM2001.1 8140.2L2099.83 8197.2L2099.83 8311.2L2001.1 8368.2L1902.37 8311.2L1902.37 8197.2zM2099.83 8311.2L2198.56 8368.2L2198.56 8482.2L2099.83 8539.2L2001.1 8482.2L2001.1 8368.2zM2001.1 8482.2L2099.83 8539.2L2099.83 8653.2L2001.1 8710.2L1902.37 8653.2L1902.37 8539.2zM2099.83 8653.2L2198.56 8710.2L2198.56 8824.2L2099.83 8881.2L2001.1 8824.2L2001.1 8710.2zM2297.29 1129.2L2396.02 1186.2L2396.02 1300.2L2297.29 1357.2L2198.56 1300.2L2198.56 1186.2zM2297.29 2497.2L2396.02 2554.2L2396.02 2668.2L2297.29 2725.2L2198.56 2668.2L2198.56 2554.2zM2297.29 3523.2L2396.02 3580.2L2396.02 3694.2L2297.29 3751.2L2198.56 3694.2L2198.56 3580.2zM2297.29 5233.2L2396.02 5290.2L2396.02 5404.2L2297.29 5461.2L2198.56 5404.2L2198.56 5290.2zM2297.29 6943.2L2396.02 7000.2L2396.02 7114.2L2297.29 7171.2L2198.56 7114.2L2198.56 7000.2zM2198.56 7114.2L2297.29 7171.2L2297.29 7285.2L2198.56 7342.2L2099.83 7285.2L2099.83 7171.2zM2297.29 8311.2L2396.02 8368.2L2396.02 8482.2L2297.29 8539.2L2198.56 8482.2L2198.56 8368.2zM2198.56 9166.2L2297.29 9223.2L2297.29 9337.2L2198.56 9394.2L2099.83 9337.2L2099.83 9223.2zM2396.02 274.2L2494.75 331.2L2494.75 445.2L2396.02 502.2L2297.29 445.2L2297.29 331.2zM2396.02 616.2L2494.75 673.2L2494.75 787.2L2396.02 844.2L2297.29 787.2L2297.29 673.2zM2494.75 787.2L2593.48 844.2L2593.48 958.2L2494.75 1015.2L2396.02 958.2L2396.02 844.2zM2396.02 1300.2L2494.75 1357.2L2494.75 1471.2L2396.02 1528.2L2297.29 1471.2L2297.29 1357.2zM2494.75 2497.2L2593.48 2554.2L2593.48 2668.2L2494.75 2725.2L2396.02 2668.2L2396.02 2554.2zM2494.75 4891.2L2593.48 4948.2L2593.48 5062.2L2494.75 5119.2L2396.02 5062.2L2396.02 4948.2zM2396.02 5062.2L2494.75 5119.2L2494.75 5233.2L2396.02 5290.2L2297.29 5233.2L2297.29 5119.2zM2494.75 5233.2L2593.48 5290.2L2593.48 5404.2L2494.75 5461.2L2396.02 5404.2L2396.02 5290.2zM2396.02 7114.2L2494.75 7171.2L2494.75 7285.2L2396.02 7342.2L2297.29 7285.2L2297.29 7171.2zM2494.75 7969.2L2593.48 8026.2L2593.48 8140.2L2494.75 8197.2L2396.02 8140.2L2396.02 8026.2zM2396.02 8824.2L2494.75 8881.2L2494.75 8995.2L2396.02 9052.2L2297.29 8995.2L2297.29 8881.2zM2494.75 8995.2L2593.48 9052.2L2593.48 9166.2L2494.75 9223.2L2396.02 9166.2L2396.02 9052.2zM2593.48 274.2L2692.21 331.2L2692.21 445.2L2593.48 502.2L2494.75 445.2L2494.75 331.2zM2692.21 445.2L2790.94 502.2L2790.94 616.2L2692.21 673.2L2593.48 616.2L2593.48 502.2zM2692.21 787.2L2790.94 844.2L2790.94 958.2L2692.21 1015.2L2593.48 958.2L2593.48 844.2zM2593.48 958.2L2692.21 1015.2L2692.21 1129.2L2593.48 1186.2L2494.75 1129.2L2494.75 1015.2zM2692.21 2155.2L2790.94 2212.2L2790.94 2326.2L2692.21 2383.2L2593.48 2326.2L2593.48 2212.2zM2692.21 2497.2L2790.94 2554.2L2790.94 2668.2L2692.21 2725.2L2593.48 2668.2L2593.48 2554.2zM2593.48 2668.2L2692.21 2725.2L2692.21 2839.2L2593.48 2896.2L2494.75 2839.2L2494.75 2725.2zM2593.48 3010.2L2692.21 3067.2L2692.21 3181.2L2593.48 3238.2L2494.75 3181.2L2494.75 3067.2zM2692.21 3523.2L2790.94 3580.2L2790.94 3694.2L2692.21 3751.2L2593.48 3694.2L2593.48 3580.2zM2692.21 4207.2L2790.94 4264.2L2790.94 4378.2L2692.21 4435.2L2593.48 4378.2L2593.48 4264.2zM2692.21 4549.2L2790.94 4606.2L2790.94 4720.2L2692.21 4777.2L2593.48 4720.2L2593.48 4606.2zM2692.21 5233.2L2790.94 5290.2L2790.94 5404.2L2692.21 5461.2L2593.48 5404.2L2593.48 5290.2zM2692.21 8311.2L2790.94 8368.2L2790.94 8482.2L2692.21 8539.2L2593.48 8482.2L2593.48 8368.2zM2593.48 9166.2L2692.21 9223.2L2692.21 9337.2L2593.48 9394.2L2494.75 9337.2L2494.75 9223.2zM2790.94 1300.2L2889.67 1357.2L2889.67 1471.2L2790.94 1528.2L2692.21 1471.2L2692.21 1357.2zM2790.94 1642.2L2889.67 1699.2L2889.67 1813.2L2790.94 1870.2L2692.21 1813.2L2692.21 1699.2zM2889.67 1813.2L2988.4 1870.2L2988.4 1984.2L2889.67 2041.2L2790.94 1984.2L2790.94 1870.2zM2790.94 1984.2L2889.67 2041.2L2889.67 2155.2L2790.94 2212.2L2692.21 2155.2L2692.21 2041.2zM2790.94 3010.2L2889.67 3067.2L2889.67 3181.2L2790.94 3238.2L2692.21 3181.2L2692.21 3067.2zM2889.67 3181.2L2988.4 3238.2L2988.4 3352.2L2889.67 3409.2L2790.94 3352.2L2790.94 3238.2zM2889.67 3523.2L2988.4 3580.2L2988.4 3694.2L2889.67 3751.2L2790.94 3694.2L2790.94 3580.2zM2889.67 3865.2L2988.4 3922.2L2988.4 4036.2L2889.67 4093.2L2790.94 4036.2L2790.94 3922.2zM2790.94 6430.2L2889.67 6487.2L2889.67 6601.2L2790.94 6658.2L2692.21 6601.2L2692.21 6487.2zM2889.67 6601.2L2988.4 6658.2L2988.4 6772.2L2889.67 6829.2L2790.94 6772.2L2790.94 6658.2zM2889.67 6943.2L2988.4 7000.2L2988.4 7114.2L2889.67 7171.2L2790.94 7114.2L2790.94 7000.2zM2889.67 8653.2L2988.4 8710.2L2988.4 8824.2L2889.67 8881.2L2790.94 8824.2L2790.94 8710.2zM2889.67 8995.2L2988.4 9052.2L2988.4 9166.2L2889.67 9223.2L2790.94 9166.2L2790.94 9052.2zM2988.4 616.2L3087.13 673.2L3087.13 787.2L2988.4 844.2L2889.67 787.2L2889.67 673.2zM2988.4 1300.2L3087.13 1357.2L3087.13 1471.2L2988.4 1528.2L2889.67 1471.2L2889.67 1357.2zM3087.13 1813.2L3185.86 1870.2L3185.86 1984.2L3087.13 2041.2L2988.4 1984.2L2988.4 1870.2zM2988.4 1984.2L3087.13 2041.2L3087.13 2155.2L2988.4 2212.2L2889.67 2155.2L2889.67 2041.2zM2988.4 3352.2L3087.13 3409.2L3087.13 3523.2L2988.4 3580.2L2889.67 3523.2L2889.67 3409.2zM3087.13 4891.2L3185.86 4948.2L3185.86 5062.2L3087.13 5119.2L2988.4 5062.2L2988.4 4948.2zM3087.13 5917.2L3185.86 5974.2L3185.86 6088.2L3087.13 6145.2L2988.4 6088.2L2988.4 5974.2zM3087.13 6601.2L3185.86 6658.2L3185.86 6772.2L3087.13 6829.2L2988.4 6772.2L2988.4 6658.2zM2988.4 6772.2L3087.13 6829.2L3087.13 6943.2L2988.4 7000.2L2889.67 6943.2L2889.67 6829.2zM2988.4 7456.2L3087.13 7513.2L3087.13 7627.2L2988.4 7684.2L2889.67 7627.2L2889.67 7513.2zM3087.13 7627.2L3185.86 7684.2L3185.86 7798.2L3087.13 7855.2L2988.4 7798.2L2988.4 7684.2zM3284.59 103.2L3383.32 160.2L3383.32 274.2L3284.59 331.2L3185.86 274.2L3185.86 160.2zM3185.86 958.2L3284.59 1015.2L3284.59 1129.2L3185.86 1186.2L3087.13 1129.2L3087.13 1015.2zM3185.86 1300.2L3284.59 1357.2L3284.59 1471.2L3185.86 1528.2L3087.13 1471.2L3087.13 1357.2zM3185.86 1642.2L3284.59 1699.2L3284.59 1813.2L3185.86 1870.2L3087.13 1813.2L3087.13 1699.2zM3284.59 1813.2L3383.32 1870.2L3383.32 1984.2L3284.59 2041.2L3185.86 1984.2L3185.86 1870.2zM3185.86 2326.2L3284.59 2383.2L3284.59 2497.2L3185.86 2554.2L3087.13 2497.2L3087.13 2383.2zM3185.86 2668.2L3284.59 2725.2L3284.59 2839.2L3185.86 2896.2L3087.13 2839.2L3087.13 2725.2zM3185.86 3352.2L3284.59 3409.2L3284.59 3523.2L3185.86 3580.2L3087.13 3523.2L3087.13 3409.2zM3284.59 3523.2L3383.32 3580.2L3383.32 3694.2L3284.59 3751.2L3185.86 3694.2L3185.86 3580.2zM3185.86 3694.2L3284.59 3751.2L3284.59 3865.2L3185.86 3922.2L3087.13 3865.2L3087.13 3751.2zM3185.86 4036.2L3284.59 4093.2L3284.59 4207.2L3185.86 4264.2L3087.13 4207.2L3087.13 4093.2zM3284.59 4207.2L3383.32 4264.2L3383.32 4378.2L3284.59 4435.2L3185.86 4378.2L3185.86 4264.2zM3185.86 4378.2L3284.59 4435.2L3284.59 4549.2L3185.86 4606.2L3087.13 4549.2L3087.13 4435.2zM3284.59 5575.2L3383.32 5632.2L3383.32 5746.2L3284.59 5803.2L3185.86 5746.2L3185.86 5632.2zM3284.59 5917.2L3383.32 5974.2L3383.32 6088.2L3284.59 6145.2L3185.86 6088.2L3185.86 5974.2zM3284.59 6259.2L3383.32 6316.2L3383.32 6430.2L3284.59 6487.2L3185.86 6430.2L3185.86 6316.2zM3185.86 7114.2L3284.59 7171.2L3284.59 7285.2L3185.86 7342.2L3087.13 7285.2L3087.13 7171.2zM3284.59 7285.2L3383.32 7342.2L3383.32 7456.2L3284.59 7513.2L3185.86 7456.2L3185.86 7342.2zM3383.32 -67.8L3482.05 -10.8L3482.05 103.2L3383.32 160.2L3284.59 103.2L3284.59 -10.8zM3482.05 103.2L3580.78 160.2L3580.78 274.2L3482.05 331.2L3383.32 274.2L3383.32 160.2zM3482.05 1813.2L3580.78 1870.2L3580.78 1984.2L3482.05 2041.2L3383.32 1984.2L3383.32 1870.2zM3383.32 1984.2L3482.05 2041.2L3482.05 2155.2L3383.32 2212.2L3284.59 2155.2L3284.59 2041.2zM3482.05 2155.2L3580.78 2212.2L3580.78 2326.2L3482.05 2383.2L3383.32 2326.2L3383.32 2212.2zM3482.05 3181.2L3580.78 3238.2L3580.78 3352.2L3482.05 3409.2L3383.32 3352.2L3383.32 3238.2zM3383.32 3352.2L3482.05 3409.2L3482.05 3523.2L3383.32 3580.2L3284.59 3523.2L3284.59 3409.2zM3482.05 3523.2L3580.78 3580.2L3580.78 3694.2L3482.05 3751.2L3383.32 3694.2L3383.32 3580.2zM3383.32 3694.2L3482.05 3751.2L3482.05 3865.2L3383.32 3922.2L3284.59 3865.2L3284.59 3751.2zM3383.32 4036.2L3482.05 4093.2L3482.05 4207.2L3383.32 4264.2L3284.59 4207.2L3284.59 4093.2zM3383.32 4378.2L3482.05 4435.2L3482.05 4549.2L3383.32 4606.2L3284.59 4549.2L3284.59 4435.2zM3383.32 4720.2L3482.05 4777.2L3482.05 4891.2L3383.32 4948.2L3284.59 4891.2L3284.59 4777.2zM3482.05 4891.2L3580.78 4948.2L3580.78 5062.2L3482.05 5119.2L3383.32 5062.2L3383.32 4948.2zM3482.05 5917.2L3580.78 5974.2L3580.78 6088.2L3482.05 6145.2L3383.32 6088.2L3383.32 5974.2zM3383.32 8140.2L3482.05 8197.2L3482.05 8311.2L3383.32 8368.2L3284.59 8311.2L3284.59 8197.2zM3482.05 8653.2L3580.78 8710.2L3580.78 8824.2L3482.05 8881.2L3383.32 8824.2L3383.32 8710.2zM3383.32 8824.2L3482.05 8881.2L3482.05 8995.2L3383.32 9052.2L3284.59 8995.2L3284.59 8881.2zM3679.51 1471.2L3778.24 1528.2L3778.24 1642.2L3679.51 1699.2L3580.78 1642.2L3580.78 1528.2zM3679.51 2839.2L3778.24 2896.2L3778.24 3010.2L3679.51 3067.2L3580.78 3010.2L3580.78 2896.2zM3679.51 3181.2L3778.24 3238.2L3778.24 3352.2L3679.51 3409.2L3580.78 3352.2L3580.78 3238.2zM3580.78 3352.2L3679.51 3409.2L3679.51 3523.2L3580.78 3580.2L3482.05 3523.2L3482.05 3409.2zM3580.78 3694.2L3679.51 3751.2L3679.51 3865.2L3580.78 3922.2L3482.05 3865.2L3482.05 3751.2zM3679.51 3865.2L3778.24 3922.2L3778.24 4036.2L3679.51 4093.2L3580.78 4036.2L3580.78 3922.2zM3580.78 4036.2L3679.51 4093.2L3679.51 4207.2L3580.78 4264.2L3482.05 4207.2L3482.05 4093.2zM3580.78 5062.2L3679.51 5119.2L3679.51 5233.2L3580.78 5290.2L3482.05 5233.2L3482.05 5119.2zM3580.78 5404.2L3679.51 5461.2L3679.51 5575.2L3580.78 5632.2L3482.05 5575.2L3482.05 5461.2zM3580.78 6430.2L3679.51 6487.2L3679.51 6601.2L3580.78 6658.2L3482.05 6601.2L3482.05 6487.2zM3679.51 6601.2L3778.24 6658.2L3778.24 6772.2L3679.51 6829.2L3580.78 6772.2L3580.78 6658.2zM3580.78 7114.2L3679.51 7171.2L3679.51 7285.2L3580.78 7342.2L3482.05 7285.2L3482.05 7171.2zM3679.51 7285.2L3778.24 7342.2L3778.24 7456.2L3679.51 7513.2L3580.78 7456.2L3580.78 7342.2zM3580.78 8140.2L3679.51 8197.2L3679.51 8311.2L3580.78 8368.2L3482.05 8311.2L3482.05 8197.2zM3679.51 8653.2L3778.24 8710.2L3778.24 8824.2L3679.51 8881.2L3580.78 8824.2L3580.78 8710.2zM3778.24 274.2L3876.97 331.2L3876.97 445.2L3778.24 502.2L3679.51 445.2L3679.51 331.2zM3778.24 1984.2L3876.97 2041.2L3876.97 2155.2L3778.24 2212.2L3679.51 2155.2L3679.51 2041.2zM3778.24 2326.2L3876.97 2383.2L3876.97 2497.2L3778.24 2554.2L3679.51 2497.2L3679.51 2383.2zM3876.97 3181.2L3975.7 3238.2L3975.7 3352.2L3876.97 3409.2L3778.24 3352.2L3778.24 3238.2zM3876.97 3523.2L3975.7 3580.2L3975.7 3694.2L3876.97 3751.2L3778.24 3694.2L3778.24 3580.2zM3778.24 4036.2L3876.97 4093.2L3876.97 4207.2L3778.24 4264.2L3679.51 4207.2L3679.51 4093.2zM3778.24 5746.2L3876.97 5803.2L3876.97 5917.2L3778.24 5974.2L3679.51 5917.2L3679.51 5803.2zM3778.24 6772.2L3876.97 6829.2L3876.97 6943.2L3778.24 7000.2L3679.51 6943.2L3679.51 6829.2zM3876.97 7285.2L3975.7 7342.2L3975.7 7456.2L3876.97 7513.2L3778.24 7456.2L3778.24 7342.2zM3778.24 9166.2L3876.97 9223.2L3876.97 9337.2L3778.24 9394.2L3679.51 9337.2L3679.51 9223.2zM3975.7 -67.8L4074.43 -10.8L4074.43 103.2L3975.7 160.2L3876.97 103.2L3876.97 -10.8zM3975.7 1300.2L4074.43 1357.2L4074.43 1471.2L3975.7 1528.2L3876.97 1471.2L3876.97 1357.2zM3975.7 1642.2L4074.43 1699.2L4074.43 1813.2L3975.7 1870.2L3876.97 1813.2L3876.97 1699.2zM4074.43 1813.2L4173.16 1870.2L4173.16 1984.2L4074.43 2041.2L3975.7 1984.2L3975.7 1870.2zM3975.7 2668.2L4074.43 2725.2L4074.43 2839.2L3975.7 2896.2L3876.97 2839.2L3876.97 2725.2zM3975.7 3352.2L4074.43 3409.2L4074.43 3523.2L3975.7 3580.2L3876.97 3523.2L3876.97 3409.2zM3975.7 4378.2L4074.43 4435.2L4074.43 4549.2L3975.7 4606.2L3876.97 4549.2L3876.97 4435.2zM4074.43 4891.2L4173.16 4948.2L4173.16 5062.2L4074.43 5119.2L3975.7 5062.2L3975.7 4948.2zM3975.7 6088.2L4074.43 6145.2L4074.43 6259.2L3975.7 6316.2L3876.97 6259.2L3876.97 6145.2zM4074.43 6259.2L4173.16 6316.2L4173.16 6430.2L4074.43 6487.2L3975.7 6430.2L3975.7 6316.2zM4074.43 8653.2L4173.16 8710.2L4173.16 8824.2L4074.43 8881.2L3975.7 8824.2L3975.7 8710.2zM3975.7 9166.2L4074.43 9223.2L4074.43 9337.2L3975.7 9394.2L3876.97 9337.2L3876.97 9223.2z" stroke="rgba(74, 92, 102, 1)" stroke-width="2"></path>
        <path d="M234.76 1007.97L364.66 1082.97L364.66 1232.97L234.76 1307.97L104.85 1232.97L104.85 1082.97zM104.85 1232.97L234.76 1307.97L234.76 1457.97L104.85 1532.97L-25.06 1457.97L-25.06 1307.97zM234.76 4607.97L364.66 4682.97L364.66 4832.97L234.76 4907.97L104.85 4832.97L104.85 4682.97zM104.85 5282.97L234.76 5357.97L234.76 5507.97L104.85 5582.97L-25.06 5507.97L-25.06 5357.97zM234.76 6407.97L364.66 6482.97L364.66 6632.97L234.76 6707.97L104.85 6632.97L104.85 6482.97zM104.85 8432.97L234.76 8507.97L234.76 8657.97L104.85 8732.97L-25.06 8657.97L-25.06 8507.97zM104.85 8882.97L234.76 8957.97L234.76 9107.97L104.85 9182.97L-25.06 9107.97L-25.06 8957.97zM364.66 2582.97L494.57 2657.97L494.57 2807.97L364.66 2882.97L234.76 2807.97L234.76 2657.97zM494.57 3257.97L624.48 3332.97L624.48 3482.97L494.57 3557.97L364.66 3482.97L364.66 3332.97zM364.66 4382.97L494.57 4457.97L494.57 4607.97L364.66 4682.97L234.76 4607.97L234.76 4457.97zM494.57 5057.97L624.48 5132.97L624.48 5282.97L494.57 5357.97L364.66 5282.97L364.66 5132.97zM364.66 6182.97L494.57 6257.97L494.57 6407.97L364.66 6482.97L234.76 6407.97L234.76 6257.97zM494.57 6407.97L624.48 6482.97L624.48 6632.97L494.57 6707.97L364.66 6632.97L364.66 6482.97zM494.57 7757.97L624.48 7832.97L624.48 7982.97L494.57 8057.97L364.66 7982.97L364.66 7832.97zM364.66 7982.97L494.57 8057.97L494.57 8207.97L364.66 8282.97L234.76 8207.97L234.76 8057.97zM364.66 8882.97L494.57 8957.97L494.57 9107.97L364.66 9182.97L234.76 9107.97L234.76 8957.97zM754.39 1457.97L884.3 1532.97L884.3 1682.97L754.39 1757.97L624.48 1682.97L624.48 1532.97zM754.39 2357.97L884.3 2432.97L884.3 2582.97L754.39 2657.97L624.48 2582.97L624.48 2432.97zM624.48 5732.97L754.39 5807.97L754.39 5957.97L624.48 6032.97L494.57 5957.97L494.57 5807.97zM1014.2 557.97L1144.11 632.97L1144.11 782.97L1014.2 857.97L884.29 782.97L884.29 632.97zM884.29 782.97L1014.2 857.97L1014.2 1007.97L884.29 1082.97L754.39 1007.97L754.39 857.97zM884.29 3032.97L1014.2 3107.97L1014.2 3257.97L884.29 3332.97L754.39 3257.97L754.39 3107.97zM1014.2 3257.97L1144.11 3332.97L1144.11 3482.97L1014.2 3557.97L884.29 3482.97L884.29 3332.97zM884.29 5732.97L1014.2 5807.97L1014.2 5957.97L884.29 6032.97L754.39 5957.97L754.39 5807.97zM884.29 7082.97L1014.2 7157.97L1014.2 7307.97L884.29 7382.97L754.39 7307.97L754.39 7157.97zM884.29 7982.97L1014.2 8057.97L1014.2 8207.97L884.29 8282.97L754.39 8207.97L754.39 8057.97zM1144.11 -117.03L1274.02 -42.03L1274.02 107.97L1144.11 182.97L1014.2 107.97L1014.2 -42.03zM1274.02 1907.97L1403.92 1982.97L1403.92 2132.97L1274.02 2207.97L1144.11 2132.97L1144.11 1982.97zM1144.11 2582.97L1274.02 2657.97L1274.02 2807.97L1144.11 2882.97L1014.2 2807.97L1014.2 2657.97zM1144.11 3932.97L1274.02 4007.97L1274.02 4157.97L1144.11 4232.97L1014.2 4157.97L1014.2 4007.97zM1144.11 4832.97L1274.02 4907.97L1274.02 5057.97L1144.11 5132.97L1014.2 5057.97L1014.2 4907.97zM1274.02 6857.97L1403.92 6932.97L1403.92 7082.97L1274.02 7157.97L1144.11 7082.97L1144.11 6932.97zM1274.02 7307.97L1403.92 7382.97L1403.92 7532.97L1274.02 7607.97L1144.11 7532.97L1144.11 7382.97zM1274.02 9107.97L1403.92 9182.97L1403.92 9332.97L1274.02 9407.97L1144.11 9332.97L1144.11 9182.97zM1403.92 332.97L1533.83 407.97L1533.83 557.97L1403.92 632.97L1274.02 557.97L1274.02 407.97zM1403.92 1682.97L1533.83 1757.97L1533.83 1907.97L1403.92 1982.97L1274.02 1907.97L1274.02 1757.97zM1533.83 2357.97L1663.74 2432.97L1663.74 2582.97L1533.83 2657.97L1403.92 2582.97L1403.92 2432.97zM1403.92 3482.97L1533.83 3557.97L1533.83 3707.97L1403.92 3782.97L1274.02 3707.97L1274.02 3557.97zM1403.92 4832.97L1533.83 4907.97L1533.83 5057.97L1403.92 5132.97L1274.02 5057.97L1274.02 4907.97zM1533.83 5057.97L1663.74 5132.97L1663.74 5282.97L1533.83 5357.97L1403.92 5282.97L1403.92 5132.97zM1403.92 7982.97L1533.83 8057.97L1533.83 8207.97L1403.92 8282.97L1274.02 8207.97L1274.02 8057.97zM1663.74 -117.03L1793.65 -42.03L1793.65 107.97L1663.74 182.97L1533.83 107.97L1533.83 -42.03zM1663.74 1232.97L1793.65 1307.97L1793.65 1457.97L1663.74 1532.97L1533.83 1457.97L1533.83 1307.97zM1663.74 3932.97L1793.65 4007.97L1793.65 4157.97L1663.74 4232.97L1533.83 4157.97L1533.83 4007.97zM1663.74 6182.97L1793.65 6257.97L1793.65 6407.97L1663.74 6482.97L1533.83 6407.97L1533.83 6257.97zM1663.74 6632.97L1793.65 6707.97L1793.65 6857.97L1663.74 6932.97L1533.83 6857.97L1533.83 6707.97zM2053.46 1907.97L2183.37 1982.97L2183.37 2132.97L2053.46 2207.97L1923.55 2132.97L1923.55 1982.97zM2053.46 4157.97L2183.37 4232.97L2183.37 4382.97L2053.46 4457.97L1923.55 4382.97L1923.55 4232.97zM2053.46 6407.97L2183.37 6482.97L2183.37 6632.97L2053.46 6707.97L1923.55 6632.97L1923.55 6482.97zM1923.55 6632.97L2053.46 6707.97L2053.46 6857.97L1923.55 6932.97L1793.65 6857.97L1793.65 6707.97zM1923.55 8432.97L2053.46 8507.97L2053.46 8657.97L1923.55 8732.97L1793.65 8657.97L1793.65 8507.97zM2183.37 -117.03L2313.28 -42.03L2313.28 107.97L2183.37 182.97L2053.46 107.97L2053.46 -42.03zM2183.37 332.97L2313.28 407.97L2313.28 557.97L2183.37 632.97L2053.46 557.97L2053.46 407.97zM2183.37 1232.97L2313.28 1307.97L2313.28 1457.97L2183.37 1532.97L2053.46 1457.97L2053.46 1307.97zM2183.37 2132.97L2313.28 2207.97L2313.28 2357.97L2183.37 2432.97L2053.46 2357.97L2053.46 2207.97zM2183.37 3032.97L2313.28 3107.97L2313.28 3257.97L2183.37 3332.97L2053.46 3257.97L2053.46 3107.97zM2313.28 3257.97L2443.18 3332.97L2443.18 3482.97L2313.28 3557.97L2183.37 3482.97L2183.37 3332.97zM2313.28 4607.97L2443.18 4682.97L2443.18 4832.97L2313.28 4907.97L2183.37 4832.97L2183.37 4682.97zM2183.37 4832.97L2313.28 4907.97L2313.28 5057.97L2183.37 5132.97L2053.46 5057.97L2053.46 4907.97zM2183.37 5732.97L2313.28 5807.97L2313.28 5957.97L2183.37 6032.97L2053.46 5957.97L2053.46 5807.97zM2313.28 5957.97L2443.18 6032.97L2443.18 6182.97L2313.28 6257.97L2183.37 6182.97L2183.37 6032.97zM2183.37 6182.97L2313.28 6257.97L2313.28 6407.97L2183.37 6482.97L2053.46 6407.97L2053.46 6257.97zM2313.28 6857.97L2443.18 6932.97L2443.18 7082.97L2313.28 7157.97L2183.37 7082.97L2183.37 6932.97zM2573.09 3707.97L2703 3782.97L2703 3932.97L2573.09 4007.97L2443.18 3932.97L2443.18 3782.97zM2573.09 4157.97L2703 4232.97L2703 4382.97L2573.09 4457.97L2443.18 4382.97L2443.18 4232.97zM2443.18 6182.97L2573.09 6257.97L2573.09 6407.97L2443.18 6482.97L2313.28 6407.97L2313.28 6257.97zM2443.18 7082.97L2573.09 7157.97L2573.09 7307.97L2443.18 7382.97L2313.28 7307.97L2313.28 7157.97zM2573.09 7307.97L2703 7382.97L2703 7532.97L2573.09 7607.97L2443.18 7532.97L2443.18 7382.97zM2703 782.97L2832.91 857.97L2832.91 1007.97L2703 1082.97L2573.09 1007.97L2573.09 857.97zM2703 4832.97L2832.91 4907.97L2832.91 5057.97L2703 5132.97L2573.09 5057.97L2573.09 4907.97zM2703 6182.97L2832.91 6257.97L2832.91 6407.97L2703 6482.97L2573.09 6407.97L2573.09 6257.97zM2703 7082.97L2832.91 7157.97L2832.91 7307.97L2703 7382.97L2573.09 7307.97L2573.09 7157.97zM2703 7532.97L2832.91 7607.97L2832.91 7757.97L2703 7832.97L2573.09 7757.97L2573.09 7607.97zM2703 7982.97L2832.91 8057.97L2832.91 8207.97L2703 8282.97L2573.09 8207.97L2573.09 8057.97zM2703 8882.97L2832.91 8957.97L2832.91 9107.97L2703 9182.97L2573.09 9107.97L2573.09 8957.97zM3092.72 107.97L3222.63 182.97L3222.63 332.97L3092.72 407.97L2962.82 332.97L2962.82 182.97zM2962.82 332.97L3092.72 407.97L3092.72 557.97L2962.82 632.97L2832.91 557.97L2832.91 407.97zM2962.82 2582.97L3092.72 2657.97L3092.72 2807.97L2962.82 2882.97L2832.91 2807.97L2832.91 2657.97zM2962.82 3932.97L3092.72 4007.97L3092.72 4157.97L2962.82 4232.97L2832.91 4157.97L2832.91 4007.97zM3092.72 4607.97L3222.63 4682.97L3222.63 4832.97L3092.72 4907.97L2962.82 4832.97L2962.82 4682.97zM2962.82 4832.97L3092.72 4907.97L3092.72 5057.97L2962.82 5132.97L2832.91 5057.97L2832.91 4907.97zM3092.72 5057.97L3222.63 5132.97L3222.63 5282.97L3092.72 5357.97L2962.82 5282.97L2962.82 5132.97zM2962.82 5732.97L3092.72 5807.97L3092.72 5957.97L2962.82 6032.97L2832.91 5957.97L2832.91 5807.97zM2962.82 6182.97L3092.72 6257.97L3092.72 6407.97L2962.82 6482.97L2832.91 6407.97L2832.91 6257.97zM2962.82 6632.97L3092.72 6707.97L3092.72 6857.97L2962.82 6932.97L2832.91 6857.97L2832.91 6707.97zM3092.72 7307.97L3222.63 7382.97L3222.63 7532.97L3092.72 7607.97L2962.82 7532.97L2962.82 7382.97zM2962.82 8432.97L3092.72 8507.97L3092.72 8657.97L2962.82 8732.97L2832.91 8657.97L2832.91 8507.97zM3352.54 557.97L3482.44 632.97L3482.44 782.97L3352.54 857.97L3222.63 782.97L3222.63 632.97zM3222.63 2132.97L3352.54 2207.97L3352.54 2357.97L3222.63 2432.97L3092.72 2357.97L3092.72 2207.97zM3222.63 2582.97L3352.54 2657.97L3352.54 2807.97L3222.63 2882.97L3092.72 2807.97L3092.72 2657.97zM3352.54 3707.97L3482.44 3782.97L3482.44 3932.97L3352.54 4007.97L3222.63 3932.97L3222.63 3782.97zM3352.54 5957.97L3482.44 6032.97L3482.44 6182.97L3352.54 6257.97L3222.63 6182.97L3222.63 6032.97zM3612.35 2357.97L3742.26 2432.97L3742.26 2582.97L3612.35 2657.97L3482.44 2582.97L3482.44 2432.97zM3482.44 2582.97L3612.35 2657.97L3612.35 2807.97L3482.44 2882.97L3352.54 2807.97L3352.54 2657.97zM3612.35 2807.97L3742.26 2882.97L3742.26 3032.97L3612.35 3107.97L3482.44 3032.97L3482.44 2882.97zM3612.35 3257.97L3742.26 3332.97L3742.26 3482.97L3612.35 3557.97L3482.44 3482.97L3482.44 3332.97zM3612.35 4157.97L3742.26 4232.97L3742.26 4382.97L3612.35 4457.97L3482.44 4382.97L3482.44 4232.97zM3612.35 5957.97L3742.26 6032.97L3742.26 6182.97L3612.35 6257.97L3482.44 6182.97L3482.44 6032.97zM3612.35 6857.97L3742.26 6932.97L3742.26 7082.97L3612.35 7157.97L3482.44 7082.97L3482.44 6932.97zM3612.35 7757.97L3742.26 7832.97L3742.26 7982.97L3612.35 8057.97L3482.44 7982.97L3482.44 7832.97zM3612.35 8207.97L3742.26 8282.97L3742.26 8432.97L3612.35 8507.97L3482.44 8432.97L3482.44 8282.97zM3482.44 8432.97L3612.35 8507.97L3612.35 8657.97L3482.44 8732.97L3352.54 8657.97L3352.54 8507.97zM3612.35 8657.97L3742.26 8732.97L3742.26 8882.97L3612.35 8957.97L3482.44 8882.97L3482.44 8732.97zM3872.17 107.97L4002.07 182.97L4002.07 332.97L3872.17 407.97L3742.26 332.97L3742.26 182.97zM3872.17 4157.97L4002.07 4232.97L4002.07 4382.97L3872.17 4457.97L3742.26 4382.97L3742.26 4232.97zM3742.26 6182.97L3872.17 6257.97L3872.17 6407.97L3742.26 6482.97L3612.35 6407.97L3612.35 6257.97zM3872.17 6407.97L4002.07 6482.97L4002.07 6632.97L3872.17 6707.97L3742.26 6632.97L3742.26 6482.97zM3872.17 8657.97L4002.07 8732.97L4002.07 8882.97L3872.17 8957.97L3742.26 8882.97L3742.26 8732.97zM4131.98 557.97L4261.89 632.97L4261.89 782.97L4131.98 857.97L4002.07 782.97L4002.07 632.97zM4131.98 3707.97L4261.89 3782.97L4261.89 3932.97L4131.98 4007.97L4002.07 3932.97L4002.07 3782.97zM4131.98 4157.97L4261.89 4232.97L4261.89 4382.97L4131.98 4457.97L4002.07 4382.97L4002.07 4232.97zM4131.98 4607.97L4261.89 4682.97L4261.89 4832.97L4131.98 4907.97L4002.07 4832.97L4002.07 4682.97zM4002.07 4832.97L4131.98 4907.97L4131.98 5057.97L4002.07 5132.97L3872.17 5057.97L3872.17 4907.97zM4002.07 7082.97L4131.98 7157.97L4131.98 7307.97L4002.07 7382.97L3872.17 7307.97L3872.17 7157.97zM4002.07 8882.97L4131.98 8957.97L4131.98 9107.97L4002.07 9182.97L3872.17 9107.97L3872.17 8957.97z" stroke="rgba(128, 186, 36, 1)" stroke-width="2"></path>
        <path d="M219.76 1007.97 a15 15 0 1 0 30 0 a15 15 0 1 0 -30 0zM349.66 1082.97 a15 15 0 1 0 30 0 a15 15 0 1 0 -30 0zM349.66 1232.97 a15 15 0 1 0 30 0 a15 15 0 1 0 -30 0zM219.76 1307.97 a15 15 0 1 0 30 0 a15 15 0 1 0 -30 0zM89.85 1232.97 a15 15 0 1 0 30 0 a15 15 0 1 0 -30 0zM89.85 1082.97 a15 15 0 1 0 30 0 a15 15 0 1 0 -30 0zM219.76 1457.97 a15 15 0 1 0 30 0 a15 15 0 1 0 -30 0zM89.85 1532.97 a15 15 0 1 0 30 0 a15 15 0 1 0 -30 0zM-40.06 1457.97 a15 15 0 1 0 30 0 a15 15 0 1 0 -30 0zM-40.06 1307.97 a15 15 0 1 0 30 0 a15 15 0 1 0 -30 0zM219.76 4607.97 a15 15 0 1 0 30 0 a15 15 0 1 0 -30 0zM349.66 4682.97 a15 15 0 1 0 30 0 a15 15 0 1 0 -30 0zM349.66 4832.97 a15 15 0 1 0 30 0 a15 15 0 1 0 -30 0zM219.76 4907.97 a15 15 0 1 0 30 0 a15 15 0 1 0 -30 0zM89.85 4832.97 a15 15 0 1 0 30 0 a15 15 0 1 0 -30 0zM89.85 4682.97 a15 15 0 1 0 30 0 a15 15 0 1 0 -30 0zM89.85 5282.97 a15 15 0 1 0 30 0 a15 15 0 1 0 -30 0zM219.76 5357.97 a15 15 0 1 0 30 0 a15 15 0 1 0 -30 0zM219.76 5507.97 a15 15 0 1 0 30 0 a15 15 0 1 0 -30 0zM89.85 5582.97 a15 15 0 1 0 30 0 a15 15 0 1 0 -30 0zM-40.06 5507.97 a15 15 0 1 0 30 0 a15 15 0 1 0 -30 0zM-40.06 5357.97 a15 15 0 1 0 30 0 a15 15 0 1 0 -30 0zM219.76 6407.97 a15 15 0 1 0 30 0 a15 15 0 1 0 -30 0zM349.66 6482.97 a15 15 0 1 0 30 0 a15 15 0 1 0 -30 0zM349.66 6632.97 a15 15 0 1 0 30 0 a15 15 0 1 0 -30 0zM219.76 6707.97 a15 15 0 1 0 30 0 a15 15 0 1 0 -30 0zM89.85 6632.97 a15 15 0 1 0 30 0 a15 15 0 1 0 -30 0zM89.85 6482.97 a15 15 0 1 0 30 0 a15 15 0 1 0 -30 0zM89.85 8432.97 a15 15 0 1 0 30 0 a15 15 0 1 0 -30 0zM219.76 8507.97 a15 15 0 1 0 30 0 a15 15 0 1 0 -30 0zM219.76 8657.97 a15 15 0 1 0 30 0 a15 15 0 1 0 -30 0zM89.85 8732.97 a15 15 0 1 0 30 0 a15 15 0 1 0 -30 0zM-40.06 8657.97 a15 15 0 1 0 30 0 a15 15 0 1 0 -30 0zM-40.06 8507.97 a15 15 0 1 0 30 0 a15 15 0 1 0 -30 0zM89.85 8882.97 a15 15 0 1 0 30 0 a15 15 0 1 0 -30 0zM219.76 8957.97 a15 15 0 1 0 30 0 a15 15 0 1 0 -30 0zM219.76 9107.97 a15 15 0 1 0 30 0 a15 15 0 1 0 -30 0zM89.85 9182.97 a15 15 0 1 0 30 0 a15 15 0 1 0 -30 0zM-40.06 9107.97 a15 15 0 1 0 30 0 a15 15 0 1 0 -30 0zM-40.06 8957.97 a15 15 0 1 0 30 0 a15 15 0 1 0 -30 0zM349.66 2582.97 a15 15 0 1 0 30 0 a15 15 0 1 0 -30 0zM479.57 2657.97 a15 15 0 1 0 30 0 a15 15 0 1 0 -30 0zM479.57 2807.97 a15 15 0 1 0 30 0 a15 15 0 1 0 -30 0zM349.66 2882.97 a15 15 0 1 0 30 0 a15 15 0 1 0 -30 0zM219.76 2807.97 a15 15 0 1 0 30 0 a15 15 0 1 0 -30 0zM219.76 2657.97 a15 15 0 1 0 30 0 a15 15 0 1 0 -30 0zM479.57 3257.97 a15 15 0 1 0 30 0 a15 15 0 1 0 -30 0zM609.48 3332.97 a15 15 0 1 0 30 0 a15 15 0 1 0 -30 0zM609.48 3482.97 a15 15 0 1 0 30 0 a15 15 0 1 0 -30 0zM479.57 3557.97 a15 15 0 1 0 30 0 a15 15 0 1 0 -30 0zM349.66 3482.97 a15 15 0 1 0 30 0 a15 15 0 1 0 -30 0zM349.66 3332.97 a15 15 0 1 0 30 0 a15 15 0 1 0 -30 0zM349.66 4382.97 a15 15 0 1 0 30 0 a15 15 0 1 0 -30 0zM479.57 4457.97 a15 15 0 1 0 30 0 a15 15 0 1 0 -30 0zM479.57 4607.97 a15 15 0 1 0 30 0 a15 15 0 1 0 -30 0zM219.76 4457.97 a15 15 0 1 0 30 0 a15 15 0 1 0 -30 0zM479.57 5057.97 a15 15 0 1 0 30 0 a15 15 0 1 0 -30 0zM609.48 5132.97 a15 15 0 1 0 30 0 a15 15 0 1 0 -30 0zM609.48 5282.97 a15 15 0 1 0 30 0 a15 15 0 1 0 -30 0zM479.57 5357.97 a15 15 0 1 0 30 0 a15 15 0 1 0 -30 0zM349.66 5282.97 a15 15 0 1 0 30 0 a15 15 0 1 0 -30 0zM349.66 5132.97 a15 15 0 1 0 30 0 a15 15 0 1 0 -30 0zM349.66 6182.97 a15 15 0 1 0 30 0 a15 15 0 1 0 -30 0zM479.57 6257.97 a15 15 0 1 0 30 0 a15 15 0 1 0 -30 0zM479.57 6407.97 a15 15 0 1 0 30 0 a15 15 0 1 0 -30 0zM219.76 6257.97 a15 15 0 1 0 30 0 a15 15 0 1 0 -30 0zM609.48 6482.97 a15 15 0 1 0 30 0 a15 15 0 1 0 -30 0zM609.48 6632.97 a15 15 0 1 0 30 0 a15 15 0 1 0 -30 0zM479.57 6707.97 a15 15 0 1 0 30 0 a15 15 0 1 0 -30 0zM479.57 7757.97 a15 15 0 1 0 30 0 a15 15 0 1 0 -30 0zM609.48 7832.97 a15 15 0 1 0 30 0 a15 15 0 1 0 -30 0zM609.48 7982.97 a15 15 0 1 0 30 0 a15 15 0 1 0 -30 0zM479.57 8057.97 a15 15 0 1 0 30 0 a15 15 0 1 0 -30 0zM349.66 7982.97 a15 15 0 1 0 30 0 a15 15 0 1 0 -30 0zM349.66 7832.97 a15 15 0 1 0 30 0 a15 15 0 1 0 -30 0zM479.57 8207.97 a15 15 0 1 0 30 0 a15 15 0 1 0 -30 0zM349.66 8282.97 a15 15 0 1 0 30 0 a15 15 0 1 0 -30 0zM219.76 8207.97 a15 15 0 1 0 30 0 a15 15 0 1 0 -30 0zM219.76 8057.97 a15 15 0 1 0 30 0 a15 15 0 1 0 -30 0zM349.66 8882.97 a15 15 0 1 0 30 0 a15 15 0 1 0 -30 0zM479.57 8957.97 a15 15 0 1 0 30 0 a15 15 0 1 0 -30 0zM479.57 9107.97 a15 15 0 1 0 30 0 a15 15 0 1 0 -30 0zM349.66 9182.97 a15 15 0 1 0 30 0 a15 15 0 1 0 -30 0zM739.39 1457.97 a15 15 0 1 0 30 0 a15 15 0 1 0 -30 0zM869.3 1532.97 a15 15 0 1 0 30 0 a15 15 0 1 0 -30 0zM869.3 1682.97 a15 15 0 1 0 30 0 a15 15 0 1 0 -30 0zM739.39 1757.97 a15 15 0 1 0 30 0 a15 15 0 1 0 -30 0zM609.48 1682.97 a15 15 0 1 0 30 0 a15 15 0 1 0 -30 0zM609.48 1532.97 a15 15 0 1 0 30 0 a15 15 0 1 0 -30 0zM739.39 2357.97 a15 15 0 1 0 30 0 a15 15 0 1 0 -30 0zM869.3 2432.97 a15 15 0 1 0 30 0 a15 15 0 1 0 -30 0zM869.3 2582.97 a15 15 0 1 0 30 0 a15 15 0 1 0 -30 0zM739.39 2657.97 a15 15 0 1 0 30 0 a15 15 0 1 0 -30 0zM609.48 2582.97 a15 15 0 1 0 30 0 a15 15 0 1 0 -30 0zM609.48 2432.97 a15 15 0 1 0 30 0 a15 15 0 1 0 -30 0zM609.48 5732.97 a15 15 0 1 0 30 0 a15 15 0 1 0 -30 0zM739.39 5807.97 a15 15 0 1 0 30 0 a15 15 0 1 0 -30 0zM739.39 5957.97 a15 15 0 1 0 30 0 a15 15 0 1 0 -30 0zM609.48 6032.97 a15 15 0 1 0 30 0 a15 15 0 1 0 -30 0zM479.57 5957.97 a15 15 0 1 0 30 0 a15 15 0 1 0 -30 0zM479.57 5807.97 a15 15 0 1 0 30 0 a15 15 0 1 0 -30 0zM999.2 557.97 a15 15 0 1 0 30 0 a15 15 0 1 0 -30 0zM1129.11 632.97 a15 15 0 1 0 30 0 a15 15 0 1 0 -30 0zM1129.11 782.97 a15 15 0 1 0 30 0 a15 15 0 1 0 -30 0zM999.2 857.97 a15 15 0 1 0 30 0 a15 15 0 1 0 -30 0zM869.29 782.97 a15 15 0 1 0 30 0 a15 15 0 1 0 -30 0zM869.29 632.97 a15 15 0 1 0 30 0 a15 15 0 1 0 -30 0zM999.2 1007.97 a15 15 0 1 0 30 0 a15 15 0 1 0 -30 0zM869.29 1082.97 a15 15 0 1 0 30 0 a15 15 0 1 0 -30 0zM739.39 1007.97 a15 15 0 1 0 30 0 a15 15 0 1 0 -30 0zM739.39 857.97 a15 15 0 1 0 30 0 a15 15 0 1 0 -30 0zM869.29 3032.97 a15 15 0 1 0 30 0 a15 15 0 1 0 -30 0zM999.2 3107.97 a15 15 0 1 0 30 0 a15 15 0 1 0 -30 0zM999.2 3257.97 a15 15 0 1 0 30 0 a15 15 0 1 0 -30 0zM869.29 3332.97 a15 15 0 1 0 30 0 a15 15 0 1 0 -30 0zM739.39 3257.97 a15 15 0 1 0 30 0 a15 15 0 1 0 -30 0zM739.39 3107.97 a15 15 0 1 0 30 0 a15 15 0 1 0 -30 0zM1129.11 3332.97 a15 15 0 1 0 30 0 a15 15 0 1 0 -30 0zM1129.11 3482.97 a15 15 0 1 0 30 0 a15 15 0 1 0 -30 0zM999.2 3557.97 a15 15 0 1 0 30 0 a15 15 0 1 0 -30 0zM869.29 3482.97 a15 15 0 1 0 30 0 a15 15 0 1 0 -30 0zM869.29 5732.97 a15 15 0 1 0 30 0 a15 15 0 1 0 -30 0zM999.2 5807.97 a15 15 0 1 0 30 0 a15 15 0 1 0 -30 0zM999.2 5957.97 a15 15 0 1 0 30 0 a15 15 0 1 0 -30 0zM869.29 6032.97 a15 15 0 1 0 30 0 a15 15 0 1 0 -30 0zM869.29 7082.97 a15 15 0 1 0 30 0 a15 15 0 1 0 -30 0zM999.2 7157.97 a15 15 0 1 0 30 0 a15 15 0 1 0 -30 0zM999.2 7307.97 a15 15 0 1 0 30 0 a15 15 0 1 0 -30 0zM869.29 7382.97 a15 15 0 1 0 30 0 a15 15 0 1 0 -30 0zM739.39 7307.97 a15 15 0 1 0 30 0 a15 15 0 1 0 -30 0zM739.39 7157.97 a15 15 0 1 0 30 0 a15 15 0 1 0 -30 0zM869.29 7982.97 a15 15 0 1 0 30 0 a15 15 0 1 0 -30 0zM999.2 8057.97 a15 15 0 1 0 30 0 a15 15 0 1 0 -30 0zM999.2 8207.97 a15 15 0 1 0 30 0 a15 15 0 1 0 -30 0zM869.29 8282.97 a15 15 0 1 0 30 0 a15 15 0 1 0 -30 0zM739.39 8207.97 a15 15 0 1 0 30 0 a15 15 0 1 0 -30 0zM739.39 8057.97 a15 15 0 1 0 30 0 a15 15 0 1 0 -30 0zM1129.11 -117.03 a15 15 0 1 0 30 0 a15 15 0 1 0 -30 0zM1259.02 -42.03 a15 15 0 1 0 30 0 a15 15 0 1 0 -30 0zM1259.02 107.97 a15 15 0 1 0 30 0 a15 15 0 1 0 -30 0zM1129.11 182.97 a15 15 0 1 0 30 0 a15 15 0 1 0 -30 0zM999.2 107.97 a15 15 0 1 0 30 0 a15 15 0 1 0 -30 0zM999.2 -42.03 a15 15 0 1 0 30 0 a15 15 0 1 0 -30 0zM1259.02 1907.97 a15 15 0 1 0 30 0 a15 15 0 1 0 -30 0zM1388.92 1982.97 a15 15 0 1 0 30 0 a15 15 0 1 0 -30 0zM1388.92 2132.97 a15 15 0 1 0 30 0 a15 15 0 1 0 -30 0zM1259.02 2207.97 a15 15 0 1 0 30 0 a15 15 0 1 0 -30 0zM1129.11 2132.97 a15 15 0 1 0 30 0 a15 15 0 1 0 -30 0zM1129.11 1982.97 a15 15 0 1 0 30 0 a15 15 0 1 0 -30 0zM1129.11 2582.97 a15 15 0 1 0 30 0 a15 15 0 1 0 -30 0zM1259.02 2657.97 a15 15 0 1 0 30 0 a15 15 0 1 0 -30 0zM1259.02 2807.97 a15 15 0 1 0 30 0 a15 15 0 1 0 -30 0zM1129.11 2882.97 a15 15 0 1 0 30 0 a15 15 0 1 0 -30 0zM999.2 2807.97 a15 15 0 1 0 30 0 a15 15 0 1 0 -30 0zM999.2 2657.97 a15 15 0 1 0 30 0 a15 15 0 1 0 -30 0zM1129.11 3932.97 a15 15 0 1 0 30 0 a15 15 0 1 0 -30 0zM1259.02 4007.97 a15 15 0 1 0 30 0 a15 15 0 1 0 -30 0zM1259.02 4157.97 a15 15 0 1 0 30 0 a15 15 0 1 0 -30 0zM1129.11 4232.97 a15 15 0 1 0 30 0 a15 15 0 1 0 -30 0zM999.2 4157.97 a15 15 0 1 0 30 0 a15 15 0 1 0 -30 0zM999.2 4007.97 a15 15 0 1 0 30 0 a15 15 0 1 0 -30 0zM1129.11 4832.97 a15 15 0 1 0 30 0 a15 15 0 1 0 -30 0zM1259.02 4907.97 a15 15 0 1 0 30 0 a15 15 0 1 0 -30 0zM1259.02 5057.97 a15 15 0 1 0 30 0 a15 15 0 1 0 -30 0zM1129.11 5132.97 a15 15 0 1 0 30 0 a15 15 0 1 0 -30 0zM999.2 5057.97 a15 15 0 1 0 30 0 a15 15 0 1 0 -30 0zM999.2 4907.97 a15 15 0 1 0 30 0 a15 15 0 1 0 -30 0zM1259.02 6857.97 a15 15 0 1 0 30 0 a15 15 0 1 0 -30 0zM1388.92 6932.97 a15 15 0 1 0 30 0 a15 15 0 1 0 -30 0zM1388.92 7082.97 a15 15 0 1 0 30 0 a15 15 0 1 0 -30 0zM1259.02 7157.97 a15 15 0 1 0 30 0 a15 15 0 1 0 -30 0zM1129.11 7082.97 a15 15 0 1 0 30 0 a15 15 0 1 0 -30 0zM1129.11 6932.97 a15 15 0 1 0 30 0 a15 15 0 1 0 -30 0zM1259.02 7307.97 a15 15 0 1 0 30 0 a15 15 0 1 0 -30 0zM1388.92 7382.97 a15 15 0 1 0 30 0 a15 15 0 1 0 -30 0zM1388.92 7532.97 a15 15 0 1 0 30 0 a15 15 0 1 0 -30 0zM1259.02 7607.97 a15 15 0 1 0 30 0 a15 15 0 1 0 -30 0zM1129.11 7532.97 a15 15 0 1 0 30 0 a15 15 0 1 0 -30 0zM1129.11 7382.97 a15 15 0 1 0 30 0 a15 15 0 1 0 -30 0zM1259.02 9107.97 a15 15 0 1 0 30 0 a15 15 0 1 0 -30 0zM1388.92 9182.97 a15 15 0 1 0 30 0 a15 15 0 1 0 -30 0zM1388.92 9332.97 a15 15 0 1 0 30 0 a15 15 0 1 0 -30 0zM1259.02 9407.97 a15 15 0 1 0 30 0 a15 15 0 1 0 -30 0zM1129.11 9332.97 a15 15 0 1 0 30 0 a15 15 0 1 0 -30 0zM1129.11 9182.97 a15 15 0 1 0 30 0 a15 15 0 1 0 -30 0zM1388.92 332.97 a15 15 0 1 0 30 0 a15 15 0 1 0 -30 0zM1518.83 407.97 a15 15 0 1 0 30 0 a15 15 0 1 0 -30 0zM1518.83 557.97 a15 15 0 1 0 30 0 a15 15 0 1 0 -30 0zM1388.92 632.97 a15 15 0 1 0 30 0 a15 15 0 1 0 -30 0zM1259.02 557.97 a15 15 0 1 0 30 0 a15 15 0 1 0 -30 0zM1259.02 407.97 a15 15 0 1 0 30 0 a15 15 0 1 0 -30 0zM1388.92 1682.97 a15 15 0 1 0 30 0 a15 15 0 1 0 -30 0zM1518.83 1757.97 a15 15 0 1 0 30 0 a15 15 0 1 0 -30 0zM1518.83 1907.97 a15 15 0 1 0 30 0 a15 15 0 1 0 -30 0zM1259.02 1757.97 a15 15 0 1 0 30 0 a15 15 0 1 0 -30 0zM1518.83 2357.97 a15 15 0 1 0 30 0 a15 15 0 1 0 -30 0zM1648.74 2432.97 a15 15 0 1 0 30 0 a15 15 0 1 0 -30 0zM1648.74 2582.97 a15 15 0 1 0 30 0 a15 15 0 1 0 -30 0zM1518.83 2657.97 a15 15 0 1 0 30 0 a15 15 0 1 0 -30 0zM1388.92 2582.97 a15 15 0 1 0 30 0 a15 15 0 1 0 -30 0zM1388.92 2432.97 a15 15 0 1 0 30 0 a15 15 0 1 0 -30 0zM1388.92 3482.97 a15 15 0 1 0 30 0 a15 15 0 1 0 -30 0zM1518.83 3557.97 a15 15 0 1 0 30 0 a15 15 0 1 0 -30 0zM1518.83 3707.97 a15 15 0 1 0 30 0 a15 15 0 1 0 -30 0zM1388.92 3782.97 a15 15 0 1 0 30 0 a15 15 0 1 0 -30 0zM1259.02 3707.97 a15 15 0 1 0 30 0 a15 15 0 1 0 -30 0zM1259.02 3557.97 a15 15 0 1 0 30 0 a15 15 0 1 0 -30 0zM1388.92 4832.97 a15 15 0 1 0 30 0 a15 15 0 1 0 -30 0zM1518.83 4907.97 a15 15 0 1 0 30 0 a15 15 0 1 0 -30 0zM1518.83 5057.97 a15 15 0 1 0 30 0 a15 15 0 1 0 -30 0zM1388.92 5132.97 a15 15 0 1 0 30 0 a15 15 0 1 0 -30 0zM1648.74 5132.97 a15 15 0 1 0 30 0 a15 15 0 1 0 -30 0zM1648.74 5282.97 a15 15 0 1 0 30 0 a15 15 0 1 0 -30 0zM1518.83 5357.97 a15 15 0 1 0 30 0 a15 15 0 1 0 -30 0zM1388.92 5282.97 a15 15 0 1 0 30 0 a15 15 0 1 0 -30 0zM1388.92 7982.97 a15 15 0 1 0 30 0 a15 15 0 1 0 -30 0zM1518.83 8057.97 a15 15 0 1 0 30 0 a15 15 0 1 0 -30 0zM1518.83 8207.97 a15 15 0 1 0 30 0 a15 15 0 1 0 -30 0zM1388.92 8282.97 a15 15 0 1 0 30 0 a15 15 0 1 0 -30 0zM1259.02 8207.97 a15 15 0 1 0 30 0 a15 15 0 1 0 -30 0zM1259.02 8057.97 a15 15 0 1 0 30 0 a15 15 0 1 0 -30 0zM1648.74 -117.03 a15 15 0 1 0 30 0 a15 15 0 1 0 -30 0zM1778.65 -42.03 a15 15 0 1 0 30 0 a15 15 0 1 0 -30 0zM1778.65 107.97 a15 15 0 1 0 30 0 a15 15 0 1 0 -30 0zM1648.74 182.97 a15 15 0 1 0 30 0 a15 15 0 1 0 -30 0zM1518.83 107.97 a15 15 0 1 0 30 0 a15 15 0 1 0 -30 0zM1518.83 -42.03 a15 15 0 1 0 30 0 a15 15 0 1 0 -30 0zM1648.74 1232.97 a15 15 0 1 0 30 0 a15 15 0 1 0 -30 0zM1778.65 1307.97 a15 15 0 1 0 30 0 a15 15 0 1 0 -30 0zM1778.65 1457.97 a15 15 0 1 0 30 0 a15 15 0 1 0 -30 0zM1648.74 1532.97 a15 15 0 1 0 30 0 a15 15 0 1 0 -30 0zM1518.83 1457.97 a15 15 0 1 0 30 0 a15 15 0 1 0 -30 0zM1518.83 1307.97 a15 15 0 1 0 30 0 a15 15 0 1 0 -30 0zM1648.74 3932.97 a15 15 0 1 0 30 0 a15 15 0 1 0 -30 0zM1778.65 4007.97 a15 15 0 1 0 30 0 a15 15 0 1 0 -30 0zM1778.65 4157.97 a15 15 0 1 0 30 0 a15 15 0 1 0 -30 0zM1648.74 4232.97 a15 15 0 1 0 30 0 a15 15 0 1 0 -30 0zM1518.83 4157.97 a15 15 0 1 0 30 0 a15 15 0 1 0 -30 0zM1518.83 4007.97 a15 15 0 1 0 30 0 a15 15 0 1 0 -30 0zM1648.74 6182.97 a15 15 0 1 0 30 0 a15 15 0 1 0 -30 0zM1778.65 6257.97 a15 15 0 1 0 30 0 a15 15 0 1 0 -30 0zM1778.65 6407.97 a15 15 0 1 0 30 0 a15 15 0 1 0 -30 0zM1648.74 6482.97 a15 15 0 1 0 30 0 a15 15 0 1 0 -30 0zM1518.83 6407.97 a15 15 0 1 0 30 0 a15 15 0 1 0 -30 0zM1518.83 6257.97 a15 15 0 1 0 30 0 a15 15 0 1 0 -30 0zM1648.74 6632.97 a15 15 0 1 0 30 0 a15 15 0 1 0 -30 0zM1778.65 6707.97 a15 15 0 1 0 30 0 a15 15 0 1 0 -30 0zM1778.65 6857.97 a15 15 0 1 0 30 0 a15 15 0 1 0 -30 0zM1648.74 6932.97 a15 15 0 1 0 30 0 a15 15 0 1 0 -30 0zM1518.83 6857.97 a15 15 0 1 0 30 0 a15 15 0 1 0 -30 0zM1518.83 6707.97 a15 15 0 1 0 30 0 a15 15 0 1 0 -30 0zM2038.46 1907.97 a15 15 0 1 0 30 0 a15 15 0 1 0 -30 0zM2168.37 1982.97 a15 15 0 1 0 30 0 a15 15 0 1 0 -30 0zM2168.37 2132.97 a15 15 0 1 0 30 0 a15 15 0 1 0 -30 0zM2038.46 2207.97 a15 15 0 1 0 30 0 a15 15 0 1 0 -30 0zM1908.55 2132.97 a15 15 0 1 0 30 0 a15 15 0 1 0 -30 0zM1908.55 1982.97 a15 15 0 1 0 30 0 a15 15 0 1 0 -30 0zM2038.46 4157.97 a15 15 0 1 0 30 0 a15 15 0 1 0 -30 0zM2168.37 4232.97 a15 15 0 1 0 30 0 a15 15 0 1 0 -30 0zM2168.37 4382.97 a15 15 0 1 0 30 0 a15 15 0 1 0 -30 0zM2038.46 4457.97 a15 15 0 1 0 30 0 a15 15 0 1 0 -30 0zM1908.55 4382.97 a15 15 0 1 0 30 0 a15 15 0 1 0 -30 0zM1908.55 4232.97 a15 15 0 1 0 30 0 a15 15 0 1 0 -30 0zM2038.46 6407.97 a15 15 0 1 0 30 0 a15 15 0 1 0 -30 0zM2168.37 6482.97 a15 15 0 1 0 30 0 a15 15 0 1 0 -30 0zM2168.37 6632.97 a15 15 0 1 0 30 0 a15 15 0 1 0 -30 0zM2038.46 6707.97 a15 15 0 1 0 30 0 a15 15 0 1 0 -30 0zM1908.55 6632.97 a15 15 0 1 0 30 0 a15 15 0 1 0 -30 0zM1908.55 6482.97 a15 15 0 1 0 30 0 a15 15 0 1 0 -30 0zM2038.46 6857.97 a15 15 0 1 0 30 0 a15 15 0 1 0 -30 0zM1908.55 6932.97 a15 15 0 1 0 30 0 a15 15 0 1 0 -30 0zM1908.55 8432.97 a15 15 0 1 0 30 0 a15 15 0 1 0 -30 0zM2038.46 8507.97 a15 15 0 1 0 30 0 a15 15 0 1 0 -30 0zM2038.46 8657.97 a15 15 0 1 0 30 0 a15 15 0 1 0 -30 0zM1908.55 8732.97 a15 15 0 1 0 30 0 a15 15 0 1 0 -30 0zM1778.65 8657.97 a15 15 0 1 0 30 0 a15 15 0 1 0 -30 0zM1778.65 8507.97 a15 15 0 1 0 30 0 a15 15 0 1 0 -30 0zM2168.37 -117.03 a15 15 0 1 0 30 0 a15 15 0 1 0 -30 0zM2298.28 -42.03 a15 15 0 1 0 30 0 a15 15 0 1 0 -30 0zM2298.28 107.97 a15 15 0 1 0 30 0 a15 15 0 1 0 -30 0zM2168.37 182.97 a15 15 0 1 0 30 0 a15 15 0 1 0 -30 0zM2038.46 107.97 a15 15 0 1 0 30 0 a15 15 0 1 0 -30 0zM2038.46 -42.03 a15 15 0 1 0 30 0 a15 15 0 1 0 -30 0zM2168.37 332.97 a15 15 0 1 0 30 0 a15 15 0 1 0 -30 0zM2298.28 407.97 a15 15 0 1 0 30 0 a15 15 0 1 0 -30 0zM2298.28 557.97 a15 15 0 1 0 30 0 a15 15 0 1 0 -30 0zM2168.37 632.97 a15 15 0 1 0 30 0 a15 15 0 1 0 -30 0zM2038.46 557.97 a15 15 0 1 0 30 0 a15 15 0 1 0 -30 0zM2038.46 407.97 a15 15 0 1 0 30 0 a15 15 0 1 0 -30 0zM2168.37 1232.97 a15 15 0 1 0 30 0 a15 15 0 1 0 -30 0zM2298.28 1307.97 a15 15 0 1 0 30 0 a15 15 0 1 0 -30 0zM2298.28 1457.97 a15 15 0 1 0 30 0 a15 15 0 1 0 -30 0zM2168.37 1532.97 a15 15 0 1 0 30 0 a15 15 0 1 0 -30 0zM2038.46 1457.97 a15 15 0 1 0 30 0 a15 15 0 1 0 -30 0zM2038.46 1307.97 a15 15 0 1 0 30 0 a15 15 0 1 0 -30 0zM2298.28 2207.97 a15 15 0 1 0 30 0 a15 15 0 1 0 -30 0zM2298.28 2357.97 a15 15 0 1 0 30 0 a15 15 0 1 0 -30 0zM2168.37 2432.97 a15 15 0 1 0 30 0 a15 15 0 1 0 -30 0zM2038.46 2357.97 a15 15 0 1 0 30 0 a15 15 0 1 0 -30 0zM2168.37 3032.97 a15 15 0 1 0 30 0 a15 15 0 1 0 -30 0zM2298.28 3107.97 a15 15 0 1 0 30 0 a15 15 0 1 0 -30 0zM2298.28 3257.97 a15 15 0 1 0 30 0 a15 15 0 1 0 -30 0zM2168.37 3332.97 a15 15 0 1 0 30 0 a15 15 0 1 0 -30 0zM2038.46 3257.97 a15 15 0 1 0 30 0 a15 15 0 1 0 -30 0zM2038.46 3107.97 a15 15 0 1 0 30 0 a15 15 0 1 0 -30 0zM2428.18 3332.97 a15 15 0 1 0 30 0 a15 15 0 1 0 -30 0zM2428.18 3482.97 a15 15 0 1 0 30 0 a15 15 0 1 0 -30 0zM2298.28 3557.97 a15 15 0 1 0 30 0 a15 15 0 1 0 -30 0zM2168.37 3482.97 a15 15 0 1 0 30 0 a15 15 0 1 0 -30 0zM2298.28 4607.97 a15 15 0 1 0 30 0 a15 15 0 1 0 -30 0zM2428.18 4682.97 a15 15 0 1 0 30 0 a15 15 0 1 0 -30 0zM2428.18 4832.97 a15 15 0 1 0 30 0 a15 15 0 1 0 -30 0zM2298.28 4907.97 a15 15 0 1 0 30 0 a15 15 0 1 0 -30 0zM2168.37 4832.97 a15 15 0 1 0 30 0 a15 15 0 1 0 -30 0zM2168.37 4682.97 a15 15 0 1 0 30 0 a15 15 0 1 0 -30 0zM2298.28 5057.97 a15 15 0 1 0 30 0 a15 15 0 1 0 -30 0zM2168.37 5132.97 a15 15 0 1 0 30 0 a15 15 0 1 0 -30 0zM2038.46 5057.97 a15 15 0 1 0 30 0 a15 15 0 1 0 -30 0zM2038.46 4907.97 a15 15 0 1 0 30 0 a15 15 0 1 0 -30 0zM2168.37 5732.97 a15 15 0 1 0 30 0 a15 15 0 1 0 -30 0zM2298.28 5807.97 a15 15 0 1 0 30 0 a15 15 0 1 0 -30 0zM2298.28 5957.97 a15 15 0 1 0 30 0 a15 15 0 1 0 -30 0zM2168.37 6032.97 a15 15 0 1 0 30 0 a15 15 0 1 0 -30 0zM2038.46 5957.97 a15 15 0 1 0 30 0 a15 15 0 1 0 -30 0zM2038.46 5807.97 a15 15 0 1 0 30 0 a15 15 0 1 0 -30 0zM2428.18 6032.97 a15 15 0 1 0 30 0 a15 15 0 1 0 -30 0zM2428.18 6182.97 a15 15 0 1 0 30 0 a15 15 0 1 0 -30 0zM2298.28 6257.97 a15 15 0 1 0 30 0 a15 15 0 1 0 -30 0zM2168.37 6182.97 a15 15 0 1 0 30 0 a15 15 0 1 0 -30 0zM2298.28 6407.97 a15 15 0 1 0 30 0 a15 15 0 1 0 -30 0zM2038.46 6257.97 a15 15 0 1 0 30 0 a15 15 0 1 0 -30 0zM2298.28 6857.97 a15 15 0 1 0 30 0 a15 15 0 1 0 -30 0zM2428.18 6932.97 a15 15 0 1 0 30 0 a15 15 0 1 0 -30 0zM2428.18 7082.97 a15 15 0 1 0 30 0 a15 15 0 1 0 -30 0zM2298.28 7157.97 a15 15 0 1 0 30 0 a15 15 0 1 0 -30 0zM2168.37 7082.97 a15 15 0 1 0 30 0 a15 15 0 1 0 -30 0zM2168.37 6932.97 a15 15 0 1 0 30 0 a15 15 0 1 0 -30 0zM2558.09 3707.97 a15 15 0 1 0 30 0 a15 15 0 1 0 -30 0zM2688 3782.97 a15 15 0 1 0 30 0 a15 15 0 1 0 -30 0zM2688 3932.97 a15 15 0 1 0 30 0 a15 15 0 1 0 -30 0zM2558.09 4007.97 a15 15 0 1 0 30 0 a15 15 0 1 0 -30 0zM2428.18 3932.97 a15 15 0 1 0 30 0 a15 15 0 1 0 -30 0zM2428.18 3782.97 a15 15 0 1 0 30 0 a15 15 0 1 0 -30 0zM2558.09 4157.97 a15 15 0 1 0 30 0 a15 15 0 1 0 -30 0zM2688 4232.97 a15 15 0 1 0 30 0 a15 15 0 1 0 -30 0zM2688 4382.97 a15 15 0 1 0 30 0 a15 15 0 1 0 -30 0zM2558.09 4457.97 a15 15 0 1 0 30 0 a15 15 0 1 0 -30 0zM2428.18 4382.97 a15 15 0 1 0 30 0 a15 15 0 1 0 -30 0zM2428.18 4232.97 a15 15 0 1 0 30 0 a15 15 0 1 0 -30 0zM2558.09 6257.97 a15 15 0 1 0 30 0 a15 15 0 1 0 -30 0zM2558.09 6407.97 a15 15 0 1 0 30 0 a15 15 0 1 0 -30 0zM2428.18 6482.97 a15 15 0 1 0 30 0 a15 15 0 1 0 -30 0zM2558.09 7157.97 a15 15 0 1 0 30 0 a15 15 0 1 0 -30 0zM2558.09 7307.97 a15 15 0 1 0 30 0 a15 15 0 1 0 -30 0zM2428.18 7382.97 a15 15 0 1 0 30 0 a15 15 0 1 0 -30 0zM2298.28 7307.97 a15 15 0 1 0 30 0 a15 15 0 1 0 -30 0zM2688 7382.97 a15 15 0 1 0 30 0 a15 15 0 1 0 -30 0zM2688 7532.97 a15 15 0 1 0 30 0 a15 15 0 1 0 -30 0zM2558.09 7607.97 a15 15 0 1 0 30 0 a15 15 0 1 0 -30 0zM2428.18 7532.97 a15 15 0 1 0 30 0 a15 15 0 1 0 -30 0zM2688 782.97 a15 15 0 1 0 30 0 a15 15 0 1 0 -30 0zM2817.91 857.97 a15 15 0 1 0 30 0 a15 15 0 1 0 -30 0zM2817.91 1007.97 a15 15 0 1 0 30 0 a15 15 0 1 0 -30 0zM2688 1082.97 a15 15 0 1 0 30 0 a15 15 0 1 0 -30 0zM2558.09 1007.97 a15 15 0 1 0 30 0 a15 15 0 1 0 -30 0zM2558.09 857.97 a15 15 0 1 0 30 0 a15 15 0 1 0 -30 0zM2688 4832.97 a15 15 0 1 0 30 0 a15 15 0 1 0 -30 0zM2817.91 4907.97 a15 15 0 1 0 30 0 a15 15 0 1 0 -30 0zM2817.91 5057.97 a15 15 0 1 0 30 0 a15 15 0 1 0 -30 0zM2688 5132.97 a15 15 0 1 0 30 0 a15 15 0 1 0 -30 0zM2558.09 5057.97 a15 15 0 1 0 30 0 a15 15 0 1 0 -30 0zM2558.09 4907.97 a15 15 0 1 0 30 0 a15 15 0 1 0 -30 0zM2688 6182.97 a15 15 0 1 0 30 0 a15 15 0 1 0 -30 0zM2817.91 6257.97 a15 15 0 1 0 30 0 a15 15 0 1 0 -30 0zM2817.91 6407.97 a15 15 0 1 0 30 0 a15 15 0 1 0 -30 0zM2688 6482.97 a15 15 0 1 0 30 0 a15 15 0 1 0 -30 0zM2688 7082.97 a15 15 0 1 0 30 0 a15 15 0 1 0 -30 0zM2817.91 7157.97 a15 15 0 1 0 30 0 a15 15 0 1 0 -30 0zM2817.91 7307.97 a15 15 0 1 0 30 0 a15 15 0 1 0 -30 0zM2817.91 7607.97 a15 15 0 1 0 30 0 a15 15 0 1 0 -30 0zM2817.91 7757.97 a15 15 0 1 0 30 0 a15 15 0 1 0 -30 0zM2688 7832.97 a15 15 0 1 0 30 0 a15 15 0 1 0 -30 0zM2558.09 7757.97 a15 15 0 1 0 30 0 a15 15 0 1 0 -30 0zM2688 7982.97 a15 15 0 1 0 30 0 a15 15 0 1 0 -30 0zM2817.91 8057.97 a15 15 0 1 0 30 0 a15 15 0 1 0 -30 0zM2817.91 8207.97 a15 15 0 1 0 30 0 a15 15 0 1 0 -30 0zM2688 8282.97 a15 15 0 1 0 30 0 a15 15 0 1 0 -30 0zM2558.09 8207.97 a15 15 0 1 0 30 0 a15 15 0 1 0 -30 0zM2558.09 8057.97 a15 15 0 1 0 30 0 a15 15 0 1 0 -30 0zM2688 8882.97 a15 15 0 1 0 30 0 a15 15 0 1 0 -30 0zM2817.91 8957.97 a15 15 0 1 0 30 0 a15 15 0 1 0 -30 0zM2817.91 9107.97 a15 15 0 1 0 30 0 a15 15 0 1 0 -30 0zM2688 9182.97 a15 15 0 1 0 30 0 a15 15 0 1 0 -30 0zM2558.09 9107.97 a15 15 0 1 0 30 0 a15 15 0 1 0 -30 0zM2558.09 8957.97 a15 15 0 1 0 30 0 a15 15 0 1 0 -30 0zM3077.72 107.97 a15 15 0 1 0 30 0 a15 15 0 1 0 -30 0zM3207.63 182.97 a15 15 0 1 0 30 0 a15 15 0 1 0 -30 0zM3207.63 332.97 a15 15 0 1 0 30 0 a15 15 0 1 0 -30 0zM3077.72 407.97 a15 15 0 1 0 30 0 a15 15 0 1 0 -30 0zM2947.82 332.97 a15 15 0 1 0 30 0 a15 15 0 1 0 -30 0zM2947.82 182.97 a15 15 0 1 0 30 0 a15 15 0 1 0 -30 0zM3077.72 557.97 a15 15 0 1 0 30 0 a15 15 0 1 0 -30 0zM2947.82 632.97 a15 15 0 1 0 30 0 a15 15 0 1 0 -30 0zM2817.91 557.97 a15 15 0 1 0 30 0 a15 15 0 1 0 -30 0zM2817.91 407.97 a15 15 0 1 0 30 0 a15 15 0 1 0 -30 0zM2947.82 2582.97 a15 15 0 1 0 30 0 a15 15 0 1 0 -30 0zM3077.72 2657.97 a15 15 0 1 0 30 0 a15 15 0 1 0 -30 0zM3077.72 2807.97 a15 15 0 1 0 30 0 a15 15 0 1 0 -30 0zM2947.82 2882.97 a15 15 0 1 0 30 0 a15 15 0 1 0 -30 0zM2817.91 2807.97 a15 15 0 1 0 30 0 a15 15 0 1 0 -30 0zM2817.91 2657.97 a15 15 0 1 0 30 0 a15 15 0 1 0 -30 0zM2947.82 3932.97 a15 15 0 1 0 30 0 a15 15 0 1 0 -30 0zM3077.72 4007.97 a15 15 0 1 0 30 0 a15 15 0 1 0 -30 0zM3077.72 4157.97 a15 15 0 1 0 30 0 a15 15 0 1 0 -30 0zM2947.82 4232.97 a15 15 0 1 0 30 0 a15 15 0 1 0 -30 0zM2817.91 4157.97 a15 15 0 1 0 30 0 a15 15 0 1 0 -30 0zM2817.91 4007.97 a15 15 0 1 0 30 0 a15 15 0 1 0 -30 0zM3077.72 4607.97 a15 15 0 1 0 30 0 a15 15 0 1 0 -30 0zM3207.63 4682.97 a15 15 0 1 0 30 0 a15 15 0 1 0 -30 0zM3207.63 4832.97 a15 15 0 1 0 30 0 a15 15 0 1 0 -30 0zM3077.72 4907.97 a15 15 0 1 0 30 0 a15 15 0 1 0 -30 0zM2947.82 4832.97 a15 15 0 1 0 30 0 a15 15 0 1 0 -30 0zM2947.82 4682.97 a15 15 0 1 0 30 0 a15 15 0 1 0 -30 0zM3077.72 5057.97 a15 15 0 1 0 30 0 a15 15 0 1 0 -30 0zM2947.82 5132.97 a15 15 0 1 0 30 0 a15 15 0 1 0 -30 0zM3207.63 5132.97 a15 15 0 1 0 30 0 a15 15 0 1 0 -30 0zM3207.63 5282.97 a15 15 0 1 0 30 0 a15 15 0 1 0 -30 0zM3077.72 5357.97 a15 15 0 1 0 30 0 a15 15 0 1 0 -30 0zM2947.82 5282.97 a15 15 0 1 0 30 0 a15 15 0 1 0 -30 0zM2947.82 5732.97 a15 15 0 1 0 30 0 a15 15 0 1 0 -30 0zM3077.72 5807.97 a15 15 0 1 0 30 0 a15 15 0 1 0 -30 0zM3077.72 5957.97 a15 15 0 1 0 30 0 a15 15 0 1 0 -30 0zM2947.82 6032.97 a15 15 0 1 0 30 0 a15 15 0 1 0 -30 0zM2817.91 5957.97 a15 15 0 1 0 30 0 a15 15 0 1 0 -30 0zM2817.91 5807.97 a15 15 0 1 0 30 0 a15 15 0 1 0 -30 0zM2947.82 6182.97 a15 15 0 1 0 30 0 a15 15 0 1 0 -30 0zM3077.72 6257.97 a15 15 0 1 0 30 0 a15 15 0 1 0 -30 0zM3077.72 6407.97 a15 15 0 1 0 30 0 a15 15 0 1 0 -30 0zM2947.82 6482.97 a15 15 0 1 0 30 0 a15 15 0 1 0 -30 0zM2947.82 6632.97 a15 15 0 1 0 30 0 a15 15 0 1 0 -30 0zM3077.72 6707.97 a15 15 0 1 0 30 0 a15 15 0 1 0 -30 0zM3077.72 6857.97 a15 15 0 1 0 30 0 a15 15 0 1 0 -30 0zM2947.82 6932.97 a15 15 0 1 0 30 0 a15 15 0 1 0 -30 0zM2817.91 6857.97 a15 15 0 1 0 30 0 a15 15 0 1 0 -30 0zM2817.91 6707.97 a15 15 0 1 0 30 0 a15 15 0 1 0 -30 0zM3077.72 7307.97 a15 15 0 1 0 30 0 a15 15 0 1 0 -30 0zM3207.63 7382.97 a15 15 0 1 0 30 0 a15 15 0 1 0 -30 0zM3207.63 7532.97 a15 15 0 1 0 30 0 a15 15 0 1 0 -30 0zM3077.72 7607.97 a15 15 0 1 0 30 0 a15 15 0 1 0 -30 0zM2947.82 7532.97 a15 15 0 1 0 30 0 a15 15 0 1 0 -30 0zM2947.82 7382.97 a15 15 0 1 0 30 0 a15 15 0 1 0 -30 0zM2947.82 8432.97 a15 15 0 1 0 30 0 a15 15 0 1 0 -30 0zM3077.72 8507.97 a15 15 0 1 0 30 0 a15 15 0 1 0 -30 0zM3077.72 8657.97 a15 15 0 1 0 30 0 a15 15 0 1 0 -30 0zM2947.82 8732.97 a15 15 0 1 0 30 0 a15 15 0 1 0 -30 0zM2817.91 8657.97 a15 15 0 1 0 30 0 a15 15 0 1 0 -30 0zM2817.91 8507.97 a15 15 0 1 0 30 0 a15 15 0 1 0 -30 0zM3337.54 557.97 a15 15 0 1 0 30 0 a15 15 0 1 0 -30 0zM3467.44 632.97 a15 15 0 1 0 30 0 a15 15 0 1 0 -30 0zM3467.44 782.97 a15 15 0 1 0 30 0 a15 15 0 1 0 -30 0zM3337.54 857.97 a15 15 0 1 0 30 0 a15 15 0 1 0 -30 0zM3207.63 782.97 a15 15 0 1 0 30 0 a15 15 0 1 0 -30 0zM3207.63 632.97 a15 15 0 1 0 30 0 a15 15 0 1 0 -30 0zM3207.63 2132.97 a15 15 0 1 0 30 0 a15 15 0 1 0 -30 0zM3337.54 2207.97 a15 15 0 1 0 30 0 a15 15 0 1 0 -30 0zM3337.54 2357.97 a15 15 0 1 0 30 0 a15 15 0 1 0 -30 0zM3207.63 2432.97 a15 15 0 1 0 30 0 a15 15 0 1 0 -30 0zM3077.72 2357.97 a15 15 0 1 0 30 0 a15 15 0 1 0 -30 0zM3077.72 2207.97 a15 15 0 1 0 30 0 a15 15 0 1 0 -30 0zM3207.63 2582.97 a15 15 0 1 0 30 0 a15 15 0 1 0 -30 0zM3337.54 2657.97 a15 15 0 1 0 30 0 a15 15 0 1 0 -30 0zM3337.54 2807.97 a15 15 0 1 0 30 0 a15 15 0 1 0 -30 0zM3207.63 2882.97 a15 15 0 1 0 30 0 a15 15 0 1 0 -30 0zM3337.54 3707.97 a15 15 0 1 0 30 0 a15 15 0 1 0 -30 0zM3467.44 3782.97 a15 15 0 1 0 30 0 a15 15 0 1 0 -30 0zM3467.44 3932.97 a15 15 0 1 0 30 0 a15 15 0 1 0 -30 0zM3337.54 4007.97 a15 15 0 1 0 30 0 a15 15 0 1 0 -30 0zM3207.63 3932.97 a15 15 0 1 0 30 0 a15 15 0 1 0 -30 0zM3207.63 3782.97 a15 15 0 1 0 30 0 a15 15 0 1 0 -30 0zM3337.54 5957.97 a15 15 0 1 0 30 0 a15 15 0 1 0 -30 0zM3467.44 6032.97 a15 15 0 1 0 30 0 a15 15 0 1 0 -30 0zM3467.44 6182.97 a15 15 0 1 0 30 0 a15 15 0 1 0 -30 0zM3337.54 6257.97 a15 15 0 1 0 30 0 a15 15 0 1 0 -30 0zM3207.63 6182.97 a15 15 0 1 0 30 0 a15 15 0 1 0 -30 0zM3207.63 6032.97 a15 15 0 1 0 30 0 a15 15 0 1 0 -30 0zM3597.35 2357.97 a15 15 0 1 0 30 0 a15 15 0 1 0 -30 0zM3727.26 2432.97 a15 15 0 1 0 30 0 a15 15 0 1 0 -30 0zM3727.26 2582.97 a15 15 0 1 0 30 0 a15 15 0 1 0 -30 0zM3597.35 2657.97 a15 15 0 1 0 30 0 a15 15 0 1 0 -30 0zM3467.44 2582.97 a15 15 0 1 0 30 0 a15 15 0 1 0 -30 0zM3467.44 2432.97 a15 15 0 1 0 30 0 a15 15 0 1 0 -30 0zM3597.35 2807.97 a15 15 0 1 0 30 0 a15 15 0 1 0 -30 0zM3467.44 2882.97 a15 15 0 1 0 30 0 a15 15 0 1 0 -30 0zM3727.26 2882.97 a15 15 0 1 0 30 0 a15 15 0 1 0 -30 0zM3727.26 3032.97 a15 15 0 1 0 30 0 a15 15 0 1 0 -30 0zM3597.35 3107.97 a15 15 0 1 0 30 0 a15 15 0 1 0 -30 0zM3467.44 3032.97 a15 15 0 1 0 30 0 a15 15 0 1 0 -30 0zM3597.35 3257.97 a15 15 0 1 0 30 0 a15 15 0 1 0 -30 0zM3727.26 3332.97 a15 15 0 1 0 30 0 a15 15 0 1 0 -30 0zM3727.26 3482.97 a15 15 0 1 0 30 0 a15 15 0 1 0 -30 0zM3597.35 3557.97 a15 15 0 1 0 30 0 a15 15 0 1 0 -30 0zM3467.44 3482.97 a15 15 0 1 0 30 0 a15 15 0 1 0 -30 0zM3467.44 3332.97 a15 15 0 1 0 30 0 a15 15 0 1 0 -30 0zM3597.35 4157.97 a15 15 0 1 0 30 0 a15 15 0 1 0 -30 0zM3727.26 4232.97 a15 15 0 1 0 30 0 a15 15 0 1 0 -30 0zM3727.26 4382.97 a15 15 0 1 0 30 0 a15 15 0 1 0 -30 0zM3597.35 4457.97 a15 15 0 1 0 30 0 a15 15 0 1 0 -30 0zM3467.44 4382.97 a15 15 0 1 0 30 0 a15 15 0 1 0 -30 0zM3467.44 4232.97 a15 15 0 1 0 30 0 a15 15 0 1 0 -30 0zM3597.35 5957.97 a15 15 0 1 0 30 0 a15 15 0 1 0 -30 0zM3727.26 6032.97 a15 15 0 1 0 30 0 a15 15 0 1 0 -30 0zM3727.26 6182.97 a15 15 0 1 0 30 0 a15 15 0 1 0 -30 0zM3597.35 6257.97 a15 15 0 1 0 30 0 a15 15 0 1 0 -30 0zM3597.35 6857.97 a15 15 0 1 0 30 0 a15 15 0 1 0 -30 0zM3727.26 6932.97 a15 15 0 1 0 30 0 a15 15 0 1 0 -30 0zM3727.26 7082.97 a15 15 0 1 0 30 0 a15 15 0 1 0 -30 0zM3597.35 7157.97 a15 15 0 1 0 30 0 a15 15 0 1 0 -30 0zM3467.44 7082.97 a15 15 0 1 0 30 0 a15 15 0 1 0 -30 0zM3467.44 6932.97 a15 15 0 1 0 30 0 a15 15 0 1 0 -30 0zM3597.35 7757.97 a15 15 0 1 0 30 0 a15 15 0 1 0 -30 0zM3727.26 7832.97 a15 15 0 1 0 30 0 a15 15 0 1 0 -30 0zM3727.26 7982.97 a15 15 0 1 0 30 0 a15 15 0 1 0 -30 0zM3597.35 8057.97 a15 15 0 1 0 30 0 a15 15 0 1 0 -30 0zM3467.44 7982.97 a15 15 0 1 0 30 0 a15 15 0 1 0 -30 0zM3467.44 7832.97 a15 15 0 1 0 30 0 a15 15 0 1 0 -30 0zM3597.35 8207.97 a15 15 0 1 0 30 0 a15 15 0 1 0 -30 0zM3727.26 8282.97 a15 15 0 1 0 30 0 a15 15 0 1 0 -30 0zM3727.26 8432.97 a15 15 0 1 0 30 0 a15 15 0 1 0 -30 0zM3597.35 8507.97 a15 15 0 1 0 30 0 a15 15 0 1 0 -30 0zM3467.44 8432.97 a15 15 0 1 0 30 0 a15 15 0 1 0 -30 0zM3467.44 8282.97 a15 15 0 1 0 30 0 a15 15 0 1 0 -30 0zM3597.35 8657.97 a15 15 0 1 0 30 0 a15 15 0 1 0 -30 0zM3467.44 8732.97 a15 15 0 1 0 30 0 a15 15 0 1 0 -30 0zM3337.54 8657.97 a15 15 0 1 0 30 0 a15 15 0 1 0 -30 0zM3337.54 8507.97 a15 15 0 1 0 30 0 a15 15 0 1 0 -30 0zM3727.26 8732.97 a15 15 0 1 0 30 0 a15 15 0 1 0 -30 0zM3727.26 8882.97 a15 15 0 1 0 30 0 a15 15 0 1 0 -30 0zM3597.35 8957.97 a15 15 0 1 0 30 0 a15 15 0 1 0 -30 0zM3467.44 8882.97 a15 15 0 1 0 30 0 a15 15 0 1 0 -30 0zM3857.17 107.97 a15 15 0 1 0 30 0 a15 15 0 1 0 -30 0zM3987.07 182.97 a15 15 0 1 0 30 0 a15 15 0 1 0 -30 0zM3987.07 332.97 a15 15 0 1 0 30 0 a15 15 0 1 0 -30 0zM3857.17 407.97 a15 15 0 1 0 30 0 a15 15 0 1 0 -30 0zM3727.26 332.97 a15 15 0 1 0 30 0 a15 15 0 1 0 -30 0zM3727.26 182.97 a15 15 0 1 0 30 0 a15 15 0 1 0 -30 0zM3857.17 4157.97 a15 15 0 1 0 30 0 a15 15 0 1 0 -30 0zM3987.07 4232.97 a15 15 0 1 0 30 0 a15 15 0 1 0 -30 0zM3987.07 4382.97 a15 15 0 1 0 30 0 a15 15 0 1 0 -30 0zM3857.17 4457.97 a15 15 0 1 0 30 0 a15 15 0 1 0 -30 0zM3857.17 6257.97 a15 15 0 1 0 30 0 a15 15 0 1 0 -30 0zM3857.17 6407.97 a15 15 0 1 0 30 0 a15 15 0 1 0 -30 0zM3727.26 6482.97 a15 15 0 1 0 30 0 a15 15 0 1 0 -30 0zM3597.35 6407.97 a15 15 0 1 0 30 0 a15 15 0 1 0 -30 0zM3987.07 6482.97 a15 15 0 1 0 30 0 a15 15 0 1 0 -30 0zM3987.07 6632.97 a15 15 0 1 0 30 0 a15 15 0 1 0 -30 0zM3857.17 6707.97 a15 15 0 1 0 30 0 a15 15 0 1 0 -30 0zM3727.26 6632.97 a15 15 0 1 0 30 0 a15 15 0 1 0 -30 0zM3857.17 8657.97 a15 15 0 1 0 30 0 a15 15 0 1 0 -30 0zM3987.07 8732.97 a15 15 0 1 0 30 0 a15 15 0 1 0 -30 0zM3987.07 8882.97 a15 15 0 1 0 30 0 a15 15 0 1 0 -30 0zM3857.17 8957.97 a15 15 0 1 0 30 0 a15 15 0 1 0 -30 0zM4116.98 557.97 a15 15 0 1 0 30 0 a15 15 0 1 0 -30 0zM4246.89 632.97 a15 15 0 1 0 30 0 a15 15 0 1 0 -30 0zM4246.89 782.97 a15 15 0 1 0 30 0 a15 15 0 1 0 -30 0zM4116.98 857.97 a15 15 0 1 0 30 0 a15 15 0 1 0 -30 0zM3987.07 782.97 a15 15 0 1 0 30 0 a15 15 0 1 0 -30 0zM3987.07 632.97 a15 15 0 1 0 30 0 a15 15 0 1 0 -30 0zM4116.98 3707.97 a15 15 0 1 0 30 0 a15 15 0 1 0 -30 0zM4246.89 3782.97 a15 15 0 1 0 30 0 a15 15 0 1 0 -30 0zM4246.89 3932.97 a15 15 0 1 0 30 0 a15 15 0 1 0 -30 0zM4116.98 4007.97 a15 15 0 1 0 30 0 a15 15 0 1 0 -30 0zM3987.07 3932.97 a15 15 0 1 0 30 0 a15 15 0 1 0 -30 0zM3987.07 3782.97 a15 15 0 1 0 30 0 a15 15 0 1 0 -30 0zM4116.98 4157.97 a15 15 0 1 0 30 0 a15 15 0 1 0 -30 0zM4246.89 4232.97 a15 15 0 1 0 30 0 a15 15 0 1 0 -30 0zM4246.89 4382.97 a15 15 0 1 0 30 0 a15 15 0 1 0 -30 0zM4116.98 4457.97 a15 15 0 1 0 30 0 a15 15 0 1 0 -30 0zM4116.98 4607.97 a15 15 0 1 0 30 0 a15 15 0 1 0 -30 0zM4246.89 4682.97 a15 15 0 1 0 30 0 a15 15 0 1 0 -30 0zM4246.89 4832.97 a15 15 0 1 0 30 0 a15 15 0 1 0 -30 0zM4116.98 4907.97 a15 15 0 1 0 30 0 a15 15 0 1 0 -30 0zM3987.07 4832.97 a15 15 0 1 0 30 0 a15 15 0 1 0 -30 0zM3987.07 4682.97 a15 15 0 1 0 30 0 a15 15 0 1 0 -30 0zM4116.98 5057.97 a15 15 0 1 0 30 0 a15 15 0 1 0 -30 0zM3987.07 5132.97 a15 15 0 1 0 30 0 a15 15 0 1 0 -30 0zM3857.17 5057.97 a15 15 0 1 0 30 0 a15 15 0 1 0 -30 0zM3857.17 4907.97 a15 15 0 1 0 30 0 a15 15 0 1 0 -30 0zM3987.07 7082.97 a15 15 0 1 0 30 0 a15 15 0 1 0 -30 0zM4116.98 7157.97 a15 15 0 1 0 30 0 a15 15 0 1 0 -30 0zM4116.98 7307.97 a15 15 0 1 0 30 0 a15 15 0 1 0 -30 0zM3987.07 7382.97 a15 15 0 1 0 30 0 a15 15 0 1 0 -30 0zM3857.17 7307.97 a15 15 0 1 0 30 0 a15 15 0 1 0 -30 0zM3857.17 7157.97 a15 15 0 1 0 30 0 a15 15 0 1 0 -30 0zM4116.98 8957.97 a15 15 0 1 0 30 0 a15 15 0 1 0 -30 0zM4116.98 9107.97 a15 15 0 1 0 30 0 a15 15 0 1 0 -30 0zM3987.07 9182.97 a15 15 0 1 0 30 0 a15 15 0 1 0 -30 0zM3857.17 9107.97 a15 15 0 1 0 30 0 a15 15 0 1 0 -30 0z" fill="rgba(128, 186, 36, 1)"></path>
    </g>
    <defs>
        <mask id="SvgjsMask1008">
            <rect width="4040" height="9251" fill="#ffffff"></rect>
        </mask>
        <radialGradient cx="50%" cy="50%" r="5047.34" gradientUnits="userSpaceOnUse" id="SvgjsRadialGradient1009">
            <stop stop-color="rgba(255, 255, 255, 1)" offset="0"></stop>
            <stop stop-color="rgba(255, 255, 255, 0.67)" offset="0.41"></stop>
            <stop stop-color="rgba(152, 212, 57, 1)" offset="1"></stop>
        </radialGradient>
    </defs>
</svg>