<svg xmlns="http://www.w3.org/2000/svg" version="1.1" xmlns:xlink="http://www.w3.org/1999/xlink" xmlns:svgjs="http://svgjs.com/svgjs" width="4040" height="6250" preserveAspectRatio="none" viewBox="0 0 4040 6250">
    <g mask="url(&quot;#SvgjsMask1737&quot;)" fill="none">
        <rect width="4040" height="6250" x="0" y="0" fill="url(#SvgjsRadialGradient1738)"></rect>
        <path d="M103.23 -19.29L201.96 37.71L201.96 151.71L103.23 208.71L4.5 151.71L4.5 37.71zM201.96 151.71L300.69 208.71L300.69 322.71L201.96 379.71L103.23 322.71L103.23 208.71zM201.96 1177.71L300.69 1234.71L300.69 1348.71L201.96 1405.71L103.23 1348.71L103.23 1234.71zM201.96 1519.71L300.69 1576.71L300.69 1690.71L201.96 1747.71L103.23 1690.71L103.23 1576.71zM201.96 2545.71L300.69 2602.71L300.69 2716.71L201.96 2773.71L103.23 2716.71L103.23 2602.71zM103.23 3742.71L201.96 3799.71L201.96 3913.71L103.23 3970.71L4.5 3913.71L4.5 3799.71zM201.96 3913.71L300.69 3970.71L300.69 4084.71L201.96 4141.71L103.23 4084.71L103.23 3970.71zM201.96 4255.71L300.69 4312.71L300.69 4426.71L201.96 4483.71L103.23 4426.71L103.23 4312.71zM103.23 5794.71L201.96 5851.71L201.96 5965.71L103.23 6022.71L4.5 5965.71L4.5 5851.71zM103.23 6136.71L201.96 6193.71L201.96 6307.71L103.23 6364.71L4.5 6307.71L4.5 6193.71zM300.69 322.71L399.42 379.71L399.42 493.71L300.69 550.71L201.96 493.71L201.96 379.71zM399.42 835.71L498.15 892.71L498.15 1006.71L399.42 1063.71L300.69 1006.71L300.69 892.71zM300.69 2716.71L399.42 2773.71L399.42 2887.71L300.69 2944.71L201.96 2887.71L201.96 2773.71zM300.69 3058.71L399.42 3115.71L399.42 3229.71L300.69 3286.71L201.96 3229.71L201.96 3115.71zM300.69 3742.71L399.42 3799.71L399.42 3913.71L300.69 3970.71L201.96 3913.71L201.96 3799.71zM399.42 3913.71L498.15 3970.71L498.15 4084.71L399.42 4141.71L300.69 4084.71L300.69 3970.71zM300.69 4426.71L399.42 4483.71L399.42 4597.71L300.69 4654.71L201.96 4597.71L201.96 4483.71zM399.42 4597.71L498.15 4654.71L498.15 4768.71L399.42 4825.71L300.69 4768.71L300.69 4654.71zM300.69 4768.71L399.42 4825.71L399.42 4939.71L300.69 4996.71L201.96 4939.71L201.96 4825.71zM300.69 5452.71L399.42 5509.71L399.42 5623.71L300.69 5680.71L201.96 5623.71L201.96 5509.71zM399.42 5623.71L498.15 5680.71L498.15 5794.71L399.42 5851.71L300.69 5794.71L300.69 5680.71zM300.69 5794.71L399.42 5851.71L399.42 5965.71L300.69 6022.71L201.96 5965.71L201.96 5851.71zM399.42 5965.71L498.15 6022.71L498.15 6136.71L399.42 6193.71L300.69 6136.71L300.69 6022.71zM498.15 1006.71L596.88 1063.71L596.88 1177.71L498.15 1234.71L399.42 1177.71L399.42 1063.71zM498.15 2032.71L596.88 2089.71L596.88 2203.71L498.15 2260.71L399.42 2203.71L399.42 2089.71zM498.15 2716.71L596.88 2773.71L596.88 2887.71L498.15 2944.71L399.42 2887.71L399.42 2773.71zM596.88 2887.71L695.61 2944.71L695.61 3058.71L596.88 3115.71L498.15 3058.71L498.15 2944.71zM596.88 3571.71L695.61 3628.71L695.61 3742.71L596.88 3799.71L498.15 3742.71L498.15 3628.71zM498.15 3742.71L596.88 3799.71L596.88 3913.71L498.15 3970.71L399.42 3913.71L399.42 3799.71zM596.88 3913.71L695.61 3970.71L695.61 4084.71L596.88 4141.71L498.15 4084.71L498.15 3970.71zM596.88 4255.71L695.61 4312.71L695.61 4426.71L596.88 4483.71L498.15 4426.71L498.15 4312.71zM596.88 4939.71L695.61 4996.71L695.61 5110.71L596.88 5167.71L498.15 5110.71L498.15 4996.71zM498.15 5452.71L596.88 5509.71L596.88 5623.71L498.15 5680.71L399.42 5623.71L399.42 5509.71zM596.88 6307.71L695.61 6364.71L695.61 6478.71L596.88 6535.71L498.15 6478.71L498.15 6364.71zM695.61 322.71L794.34 379.71L794.34 493.71L695.61 550.71L596.88 493.71L596.88 379.71zM794.34 493.71L893.07 550.71L893.07 664.71L794.34 721.71L695.61 664.71L695.61 550.71zM695.61 664.71L794.34 721.71L794.34 835.71L695.61 892.71L596.88 835.71L596.88 721.71zM794.34 835.71L893.07 892.71L893.07 1006.71L794.34 1063.71L695.61 1006.71L695.61 892.71zM695.61 2716.71L794.34 2773.71L794.34 2887.71L695.61 2944.71L596.88 2887.71L596.88 2773.71zM794.34 2887.71L893.07 2944.71L893.07 3058.71L794.34 3115.71L695.61 3058.71L695.61 2944.71zM695.61 3400.71L794.34 3457.71L794.34 3571.71L695.61 3628.71L596.88 3571.71L596.88 3457.71zM695.61 4768.71L794.34 4825.71L794.34 4939.71L695.61 4996.71L596.88 4939.71L596.88 4825.71zM695.61 5794.71L794.34 5851.71L794.34 5965.71L695.61 6022.71L596.88 5965.71L596.88 5851.71zM794.34 6307.71L893.07 6364.71L893.07 6478.71L794.34 6535.71L695.61 6478.71L695.61 6364.71zM991.8 151.71L1090.53 208.71L1090.53 322.71L991.8 379.71L893.07 322.71L893.07 208.71zM991.8 2203.71L1090.53 2260.71L1090.53 2374.71L991.8 2431.71L893.07 2374.71L893.07 2260.71zM991.8 2887.71L1090.53 2944.71L1090.53 3058.71L991.8 3115.71L893.07 3058.71L893.07 2944.71zM893.07 3058.71L991.8 3115.71L991.8 3229.71L893.07 3286.71L794.34 3229.71L794.34 3115.71zM893.07 4084.71L991.8 4141.71L991.8 4255.71L893.07 4312.71L794.34 4255.71L794.34 4141.71zM991.8 4597.71L1090.53 4654.71L1090.53 4768.71L991.8 4825.71L893.07 4768.71L893.07 4654.71zM893.07 5110.71L991.8 5167.71L991.8 5281.71L893.07 5338.71L794.34 5281.71L794.34 5167.71zM1090.53 322.71L1189.26 379.71L1189.26 493.71L1090.53 550.71L991.8 493.71L991.8 379.71zM1090.53 664.71L1189.26 721.71L1189.26 835.71L1090.53 892.71L991.8 835.71L991.8 721.71zM1189.26 1519.71L1287.99 1576.71L1287.99 1690.71L1189.26 1747.71L1090.53 1690.71L1090.53 1576.71zM1090.53 2374.71L1189.26 2431.71L1189.26 2545.71L1090.53 2602.71L991.8 2545.71L991.8 2431.71zM1189.26 2545.71L1287.99 2602.71L1287.99 2716.71L1189.26 2773.71L1090.53 2716.71L1090.53 2602.71zM1189.26 2887.71L1287.99 2944.71L1287.99 3058.71L1189.26 3115.71L1090.53 3058.71L1090.53 2944.71zM1189.26 3913.71L1287.99 3970.71L1287.99 4084.71L1189.26 4141.71L1090.53 4084.71L1090.53 3970.71zM1189.26 4255.71L1287.99 4312.71L1287.99 4426.71L1189.26 4483.71L1090.53 4426.71L1090.53 4312.71zM1090.53 4426.71L1189.26 4483.71L1189.26 4597.71L1090.53 4654.71L991.8 4597.71L991.8 4483.71zM1189.26 4597.71L1287.99 4654.71L1287.99 4768.71L1189.26 4825.71L1090.53 4768.71L1090.53 4654.71zM1189.26 5623.71L1287.99 5680.71L1287.99 5794.71L1189.26 5851.71L1090.53 5794.71L1090.53 5680.71zM1189.26 5965.71L1287.99 6022.71L1287.99 6136.71L1189.26 6193.71L1090.53 6136.71L1090.53 6022.71zM1287.99 322.71L1386.72 379.71L1386.72 493.71L1287.99 550.71L1189.26 493.71L1189.26 379.71zM1386.72 493.71L1485.45 550.71L1485.45 664.71L1386.72 721.71L1287.99 664.71L1287.99 550.71zM1386.72 835.71L1485.45 892.71L1485.45 1006.71L1386.72 1063.71L1287.99 1006.71L1287.99 892.71zM1287.99 1690.71L1386.72 1747.71L1386.72 1861.71L1287.99 1918.71L1189.26 1861.71L1189.26 1747.71zM1386.72 1861.71L1485.45 1918.71L1485.45 2032.71L1386.72 2089.71L1287.99 2032.71L1287.99 1918.71zM1287.99 2032.71L1386.72 2089.71L1386.72 2203.71L1287.99 2260.71L1189.26 2203.71L1189.26 2089.71zM1386.72 2545.71L1485.45 2602.71L1485.45 2716.71L1386.72 2773.71L1287.99 2716.71L1287.99 2602.71zM1287.99 5110.71L1386.72 5167.71L1386.72 5281.71L1287.99 5338.71L1189.26 5281.71L1189.26 5167.71zM1386.72 5623.71L1485.45 5680.71L1485.45 5794.71L1386.72 5851.71L1287.99 5794.71L1287.99 5680.71zM1287.99 5794.71L1386.72 5851.71L1386.72 5965.71L1287.99 6022.71L1189.26 5965.71L1189.26 5851.71zM1386.72 5965.71L1485.45 6022.71L1485.45 6136.71L1386.72 6193.71L1287.99 6136.71L1287.99 6022.71zM1287.99 6136.71L1386.72 6193.71L1386.72 6307.71L1287.99 6364.71L1189.26 6307.71L1189.26 6193.71zM1386.72 6307.71L1485.45 6364.71L1485.45 6478.71L1386.72 6535.71L1287.99 6478.71L1287.99 6364.71zM1584.18 151.71L1682.91 208.71L1682.91 322.71L1584.18 379.71L1485.45 322.71L1485.45 208.71zM1485.45 322.71L1584.18 379.71L1584.18 493.71L1485.45 550.71L1386.72 493.71L1386.72 379.71zM1485.45 1690.71L1584.18 1747.71L1584.18 1861.71L1485.45 1918.71L1386.72 1861.71L1386.72 1747.71zM1584.18 2203.71L1682.91 2260.71L1682.91 2374.71L1584.18 2431.71L1485.45 2374.71L1485.45 2260.71zM1584.18 3229.71L1682.91 3286.71L1682.91 3400.71L1584.18 3457.71L1485.45 3400.71L1485.45 3286.71zM1485.45 5452.71L1584.18 5509.71L1584.18 5623.71L1485.45 5680.71L1386.72 5623.71L1386.72 5509.71zM1584.18 5965.71L1682.91 6022.71L1682.91 6136.71L1584.18 6193.71L1485.45 6136.71L1485.45 6022.71zM1584.18 6307.71L1682.91 6364.71L1682.91 6478.71L1584.18 6535.71L1485.45 6478.71L1485.45 6364.71zM1781.63 151.71L1880.36 208.71L1880.36 322.71L1781.63 379.71L1682.91 322.71L1682.91 208.71zM1781.63 835.71L1880.36 892.71L1880.36 1006.71L1781.63 1063.71L1682.91 1006.71L1682.91 892.71zM1682.91 1006.71L1781.63 1063.71L1781.63 1177.71L1682.91 1234.71L1584.18 1177.71L1584.18 1063.71zM1781.63 3229.71L1880.36 3286.71L1880.36 3400.71L1781.63 3457.71L1682.91 3400.71L1682.91 3286.71zM1682.91 3742.71L1781.63 3799.71L1781.63 3913.71L1682.91 3970.71L1584.18 3913.71L1584.18 3799.71zM1682.91 4084.71L1781.63 4141.71L1781.63 4255.71L1682.91 4312.71L1584.18 4255.71L1584.18 4141.71zM1781.63 4255.71L1880.36 4312.71L1880.36 4426.71L1781.63 4483.71L1682.91 4426.71L1682.91 4312.71zM1781.63 4939.71L1880.36 4996.71L1880.36 5110.71L1781.63 5167.71L1682.91 5110.71L1682.91 4996.71zM1682.91 5110.71L1781.63 5167.71L1781.63 5281.71L1682.91 5338.71L1584.18 5281.71L1584.18 5167.71zM1781.63 5281.71L1880.36 5338.71L1880.36 5452.71L1781.63 5509.71L1682.91 5452.71L1682.91 5338.71zM1880.36 322.71L1979.09 379.71L1979.09 493.71L1880.36 550.71L1781.63 493.71L1781.63 379.71zM1979.09 493.71L2077.82 550.71L2077.82 664.71L1979.09 721.71L1880.36 664.71L1880.36 550.71zM1880.36 1006.71L1979.09 1063.71L1979.09 1177.71L1880.36 1234.71L1781.63 1177.71L1781.63 1063.71zM1979.09 1519.71L2077.82 1576.71L2077.82 1690.71L1979.09 1747.71L1880.36 1690.71L1880.36 1576.71zM1880.36 1690.71L1979.09 1747.71L1979.09 1861.71L1880.36 1918.71L1781.63 1861.71L1781.63 1747.71zM1880.36 2032.71L1979.09 2089.71L1979.09 2203.71L1880.36 2260.71L1781.63 2203.71L1781.63 2089.71zM1979.09 3229.71L2077.82 3286.71L2077.82 3400.71L1979.09 3457.71L1880.36 3400.71L1880.36 3286.71zM1979.09 3571.71L2077.82 3628.71L2077.82 3742.71L1979.09 3799.71L1880.36 3742.71L1880.36 3628.71zM1880.36 4426.71L1979.09 4483.71L1979.09 4597.71L1880.36 4654.71L1781.63 4597.71L1781.63 4483.71zM1880.36 5110.71L1979.09 5167.71L1979.09 5281.71L1880.36 5338.71L1781.63 5281.71L1781.63 5167.71zM1979.09 5281.71L2077.82 5338.71L2077.82 5452.71L1979.09 5509.71L1880.36 5452.71L1880.36 5338.71zM2176.55 1519.71L2275.28 1576.71L2275.28 1690.71L2176.55 1747.71L2077.82 1690.71L2077.82 1576.71zM2176.55 1861.71L2275.28 1918.71L2275.28 2032.71L2176.55 2089.71L2077.82 2032.71L2077.82 1918.71zM2077.82 2032.71L2176.55 2089.71L2176.55 2203.71L2077.82 2260.71L1979.09 2203.71L1979.09 2089.71zM2176.55 2887.71L2275.28 2944.71L2275.28 3058.71L2176.55 3115.71L2077.82 3058.71L2077.82 2944.71zM2077.82 5110.71L2176.55 5167.71L2176.55 5281.71L2077.82 5338.71L1979.09 5281.71L1979.09 5167.71zM2077.82 5452.71L2176.55 5509.71L2176.55 5623.71L2077.82 5680.71L1979.09 5623.71L1979.09 5509.71zM2077.82 5794.71L2176.55 5851.71L2176.55 5965.71L2077.82 6022.71L1979.09 5965.71L1979.09 5851.71zM2374.01 1519.71L2472.74 1576.71L2472.74 1690.71L2374.01 1747.71L2275.28 1690.71L2275.28 1576.71zM2374.01 2545.71L2472.74 2602.71L2472.74 2716.71L2374.01 2773.71L2275.28 2716.71L2275.28 2602.71zM2374.01 2887.71L2472.74 2944.71L2472.74 3058.71L2374.01 3115.71L2275.28 3058.71L2275.28 2944.71zM2374.01 3571.71L2472.74 3628.71L2472.74 3742.71L2374.01 3799.71L2275.28 3742.71L2275.28 3628.71zM2275.28 4084.71L2374.01 4141.71L2374.01 4255.71L2275.28 4312.71L2176.55 4255.71L2176.55 4141.71zM2275.28 4426.71L2374.01 4483.71L2374.01 4597.71L2275.28 4654.71L2176.55 4597.71L2176.55 4483.71zM2275.28 4768.71L2374.01 4825.71L2374.01 4939.71L2275.28 4996.71L2176.55 4939.71L2176.55 4825.71zM2374.01 4939.71L2472.74 4996.71L2472.74 5110.71L2374.01 5167.71L2275.28 5110.71L2275.28 4996.71zM2275.28 5452.71L2374.01 5509.71L2374.01 5623.71L2275.28 5680.71L2176.55 5623.71L2176.55 5509.71zM2275.28 5794.71L2374.01 5851.71L2374.01 5965.71L2275.28 6022.71L2176.55 5965.71L2176.55 5851.71zM2472.74 322.71L2571.47 379.71L2571.47 493.71L2472.74 550.71L2374.01 493.71L2374.01 379.71zM2472.74 1348.71L2571.47 1405.71L2571.47 1519.71L2472.74 1576.71L2374.01 1519.71L2374.01 1405.71zM2472.74 2032.71L2571.47 2089.71L2571.47 2203.71L2472.74 2260.71L2374.01 2203.71L2374.01 2089.71zM2472.74 2374.71L2571.47 2431.71L2571.47 2545.71L2472.74 2602.71L2374.01 2545.71L2374.01 2431.71zM2472.74 3058.71L2571.47 3115.71L2571.47 3229.71L2472.74 3286.71L2374.01 3229.71L2374.01 3115.71zM2571.47 4255.71L2670.2 4312.71L2670.2 4426.71L2571.47 4483.71L2472.74 4426.71L2472.74 4312.71zM2472.74 5110.71L2571.47 5167.71L2571.47 5281.71L2472.74 5338.71L2374.01 5281.71L2374.01 5167.71zM2571.47 6307.71L2670.2 6364.71L2670.2 6478.71L2571.47 6535.71L2472.74 6478.71L2472.74 6364.71zM2768.93 493.71L2867.66 550.71L2867.66 664.71L2768.93 721.71L2670.2 664.71L2670.2 550.71zM2768.93 1861.71L2867.66 1918.71L2867.66 2032.71L2768.93 2089.71L2670.2 2032.71L2670.2 1918.71zM2670.2 3400.71L2768.93 3457.71L2768.93 3571.71L2670.2 3628.71L2571.47 3571.71L2571.47 3457.71zM2768.93 3571.71L2867.66 3628.71L2867.66 3742.71L2768.93 3799.71L2670.2 3742.71L2670.2 3628.71zM2670.2 4084.71L2768.93 4141.71L2768.93 4255.71L2670.2 4312.71L2571.47 4255.71L2571.47 4141.71zM2768.93 4597.71L2867.66 4654.71L2867.66 4768.71L2768.93 4825.71L2670.2 4768.71L2670.2 4654.71zM2768.93 5281.71L2867.66 5338.71L2867.66 5452.71L2768.93 5509.71L2670.2 5452.71L2670.2 5338.71zM2966.39 151.71L3065.12 208.71L3065.12 322.71L2966.39 379.71L2867.66 322.71L2867.66 208.71zM2867.66 664.71L2966.39 721.71L2966.39 835.71L2867.66 892.71L2768.93 835.71L2768.93 721.71zM2966.39 835.71L3065.12 892.71L3065.12 1006.71L2966.39 1063.71L2867.66 1006.71L2867.66 892.71zM2867.66 2716.71L2966.39 2773.71L2966.39 2887.71L2867.66 2944.71L2768.93 2887.71L2768.93 2773.71zM2966.39 2887.71L3065.12 2944.71L3065.12 3058.71L2966.39 3115.71L2867.66 3058.71L2867.66 2944.71zM2966.39 3913.71L3065.12 3970.71L3065.12 4084.71L2966.39 4141.71L2867.66 4084.71L2867.66 3970.71zM2966.39 5623.71L3065.12 5680.71L3065.12 5794.71L2966.39 5851.71L2867.66 5794.71L2867.66 5680.71zM3065.12 1690.71L3163.85 1747.71L3163.85 1861.71L3065.12 1918.71L2966.39 1861.71L2966.39 1747.71zM3065.12 2032.71L3163.85 2089.71L3163.85 2203.71L3065.12 2260.71L2966.39 2203.71L2966.39 2089.71zM3065.12 2374.71L3163.85 2431.71L3163.85 2545.71L3065.12 2602.71L2966.39 2545.71L2966.39 2431.71zM3065.12 3058.71L3163.85 3115.71L3163.85 3229.71L3065.12 3286.71L2966.39 3229.71L2966.39 3115.71zM3163.85 4939.71L3262.58 4996.71L3262.58 5110.71L3163.85 5167.71L3065.12 5110.71L3065.12 4996.71zM3262.58 -19.29L3361.31 37.71L3361.31 151.71L3262.58 208.71L3163.85 151.71L3163.85 37.71zM3361.31 493.71L3460.04 550.71L3460.04 664.71L3361.31 721.71L3262.58 664.71L3262.58 550.71zM3262.58 1006.71L3361.31 1063.71L3361.31 1177.71L3262.58 1234.71L3163.85 1177.71L3163.85 1063.71zM3262.58 2032.71L3361.31 2089.71L3361.31 2203.71L3262.58 2260.71L3163.85 2203.71L3163.85 2089.71zM3262.58 2716.71L3361.31 2773.71L3361.31 2887.71L3262.58 2944.71L3163.85 2887.71L3163.85 2773.71zM3361.31 2887.71L3460.04 2944.71L3460.04 3058.71L3361.31 3115.71L3262.58 3058.71L3262.58 2944.71zM3262.58 3058.71L3361.31 3115.71L3361.31 3229.71L3262.58 3286.71L3163.85 3229.71L3163.85 3115.71zM3361.31 3571.71L3460.04 3628.71L3460.04 3742.71L3361.31 3799.71L3262.58 3742.71L3262.58 3628.71zM3262.58 3742.71L3361.31 3799.71L3361.31 3913.71L3262.58 3970.71L3163.85 3913.71L3163.85 3799.71zM3262.58 5452.71L3361.31 5509.71L3361.31 5623.71L3262.58 5680.71L3163.85 5623.71L3163.85 5509.71zM3361.31 5965.71L3460.04 6022.71L3460.04 6136.71L3361.31 6193.71L3262.58 6136.71L3262.58 6022.71zM3361.31 6307.71L3460.04 6364.71L3460.04 6478.71L3361.31 6535.71L3262.58 6478.71L3262.58 6364.71zM3460.04 -19.29L3558.77 37.71L3558.77 151.71L3460.04 208.71L3361.31 151.71L3361.31 37.71zM3558.77 151.71L3657.5 208.71L3657.5 322.71L3558.77 379.71L3460.04 322.71L3460.04 208.71zM3460.04 322.71L3558.77 379.71L3558.77 493.71L3460.04 550.71L3361.31 493.71L3361.31 379.71zM3558.77 835.71L3657.5 892.71L3657.5 1006.71L3558.77 1063.71L3460.04 1006.71L3460.04 892.71zM3558.77 1177.71L3657.5 1234.71L3657.5 1348.71L3558.77 1405.71L3460.04 1348.71L3460.04 1234.71zM3558.77 1861.71L3657.5 1918.71L3657.5 2032.71L3558.77 2089.71L3460.04 2032.71L3460.04 1918.71zM3460.04 2032.71L3558.77 2089.71L3558.77 2203.71L3460.04 2260.71L3361.31 2203.71L3361.31 2089.71zM3558.77 2203.71L3657.5 2260.71L3657.5 2374.71L3558.77 2431.71L3460.04 2374.71L3460.04 2260.71zM3460.04 2374.71L3558.77 2431.71L3558.77 2545.71L3460.04 2602.71L3361.31 2545.71L3361.31 2431.71zM3558.77 3571.71L3657.5 3628.71L3657.5 3742.71L3558.77 3799.71L3460.04 3742.71L3460.04 3628.71zM3460.04 3742.71L3558.77 3799.71L3558.77 3913.71L3460.04 3970.71L3361.31 3913.71L3361.31 3799.71zM3460.04 4084.71L3558.77 4141.71L3558.77 4255.71L3460.04 4312.71L3361.31 4255.71L3361.31 4141.71zM3558.77 4255.71L3657.5 4312.71L3657.5 4426.71L3558.77 4483.71L3460.04 4426.71L3460.04 4312.71zM3558.77 4597.71L3657.5 4654.71L3657.5 4768.71L3558.77 4825.71L3460.04 4768.71L3460.04 4654.71zM3460.04 6136.71L3558.77 6193.71L3558.77 6307.71L3460.04 6364.71L3361.31 6307.71L3361.31 6193.71zM3756.23 2545.71L3854.96 2602.71L3854.96 2716.71L3756.23 2773.71L3657.5 2716.71L3657.5 2602.71zM3756.23 2887.71L3854.96 2944.71L3854.96 3058.71L3756.23 3115.71L3657.5 3058.71L3657.5 2944.71zM3657.5 3058.71L3756.23 3115.71L3756.23 3229.71L3657.5 3286.71L3558.77 3229.71L3558.77 3115.71zM3756.23 4255.71L3854.96 4312.71L3854.96 4426.71L3756.23 4483.71L3657.5 4426.71L3657.5 4312.71zM3657.5 5110.71L3756.23 5167.71L3756.23 5281.71L3657.5 5338.71L3558.77 5281.71L3558.77 5167.71zM3756.23 5281.71L3854.96 5338.71L3854.96 5452.71L3756.23 5509.71L3657.5 5452.71L3657.5 5338.71zM3953.69 151.71L4052.42 208.71L4052.42 322.71L3953.69 379.71L3854.96 322.71L3854.96 208.71zM3854.96 322.71L3953.69 379.71L3953.69 493.71L3854.96 550.71L3756.23 493.71L3756.23 379.71zM3953.69 493.71L4052.42 550.71L4052.42 664.71L3953.69 721.71L3854.96 664.71L3854.96 550.71zM3854.96 1006.71L3953.69 1063.71L3953.69 1177.71L3854.96 1234.71L3756.23 1177.71L3756.23 1063.71zM3854.96 1348.71L3953.69 1405.71L3953.69 1519.71L3854.96 1576.71L3756.23 1519.71L3756.23 1405.71zM3953.69 2203.71L4052.42 2260.71L4052.42 2374.71L3953.69 2431.71L3854.96 2374.71L3854.96 2260.71zM3953.69 2545.71L4052.42 2602.71L4052.42 2716.71L3953.69 2773.71L3854.96 2716.71L3854.96 2602.71zM3854.96 2716.71L3953.69 2773.71L3953.69 2887.71L3854.96 2944.71L3756.23 2887.71L3756.23 2773.71zM3854.96 3058.71L3953.69 3115.71L3953.69 3229.71L3854.96 3286.71L3756.23 3229.71L3756.23 3115.71zM3854.96 3400.71L3953.69 3457.71L3953.69 3571.71L3854.96 3628.71L3756.23 3571.71L3756.23 3457.71zM3953.69 4597.71L4052.42 4654.71L4052.42 4768.71L3953.69 4825.71L3854.96 4768.71L3854.96 4654.71zM3953.69 5281.71L4052.42 5338.71L4052.42 5452.71L3953.69 5509.71L3854.96 5452.71L3854.96 5338.71zM3854.96 5794.71L3953.69 5851.71L3953.69 5965.71L3854.96 6022.71L3756.23 5965.71L3756.23 5851.71zM3953.69 5965.71L4052.42 6022.71L4052.42 6136.71L3953.69 6193.71L3854.96 6136.71L3854.96 6022.71zM4151.15 493.71L4249.88 550.71L4249.88 664.71L4151.15 721.71L4052.42 664.71L4052.42 550.71zM4151.15 1519.71L4249.88 1576.71L4249.88 1690.71L4151.15 1747.71L4052.42 1690.71L4052.42 1576.71zM4052.42 2032.71L4151.15 2089.71L4151.15 2203.71L4052.42 2260.71L3953.69 2203.71L3953.69 2089.71zM4052.42 4084.71L4151.15 4141.71L4151.15 4255.71L4052.42 4312.71L3953.69 4255.71L3953.69 4141.71zM4151.15 4597.71L4249.88 4654.71L4249.88 4768.71L4151.15 4825.71L4052.42 4768.71L4052.42 4654.71zM4151.15 4939.71L4249.88 4996.71L4249.88 5110.71L4151.15 5167.71L4052.42 5110.71L4052.42 4996.71zM4052.42 5794.71L4151.15 5851.71L4151.15 5965.71L4052.42 6022.71L3953.69 5965.71L3953.69 5851.71zM4151.15 5965.71L4249.88 6022.71L4249.88 6136.71L4151.15 6193.71L4052.42 6136.71L4052.42 6022.71zM4052.42 6136.71L4151.15 6193.71L4151.15 6307.71L4052.42 6364.71L3953.69 6307.71L3953.69 6193.71zM4151.15 6307.71L4249.88 6364.71L4249.88 6478.71L4151.15 6535.71L4052.42 6478.71L4052.42 6364.71z" stroke="rgba(74, 92, 102, 1)" stroke-width="2"></path>
        <path d="M8.76 3489.53L138.67 3564.53L138.67 3714.53L8.76 3789.53L-121.15 3714.53L-121.15 3564.53zM268.57 -110.47L398.48 -35.47L398.48 114.53L268.57 189.53L138.67 114.53L138.67 -35.47zM268.57 789.53L398.48 864.53L398.48 1014.53L268.57 1089.53L138.67 1014.53L138.67 864.53zM268.57 2139.53L398.48 2214.53L398.48 2364.53L268.57 2439.53L138.67 2364.53L138.67 2214.53zM398.48 4164.53L528.39 4239.53L528.39 4389.53L398.48 4464.53L268.57 4389.53L268.57 4239.53zM398.48 5514.53L528.39 5589.53L528.39 5739.53L398.48 5814.53L268.57 5739.53L268.57 5589.53zM658.3 114.53L788.21 189.53L788.21 339.53L658.3 414.53L528.39 339.53L528.39 189.53zM658.3 1014.53L788.21 1089.53L788.21 1239.53L658.3 1314.53L528.39 1239.53L528.39 1089.53zM658.3 1464.53L788.21 1539.53L788.21 1689.53L658.3 1764.53L528.39 1689.53L528.39 1539.53zM528.39 2139.53L658.3 2214.53L658.3 2364.53L528.39 2439.53L398.48 2364.53L398.48 2214.53zM658.3 2364.53L788.21 2439.53L788.21 2589.53L658.3 2664.53L528.39 2589.53L528.39 2439.53zM528.39 3939.53L658.3 4014.53L658.3 4164.53L528.39 4239.53L398.48 4164.53L398.48 4014.53zM658.3 5964.53L788.21 6039.53L788.21 6189.53L658.3 6264.53L528.39 6189.53L528.39 6039.53zM528.39 6189.53L658.3 6264.53L658.3 6414.53L528.39 6489.53L398.48 6414.53L398.48 6264.53zM788.2 339.53L918.11 414.53L918.11 564.53L788.2 639.53L658.3 564.53L658.3 414.53zM918.11 1014.53L1048.02 1089.53L1048.02 1239.53L918.11 1314.53L788.2 1239.53L788.2 1089.53zM918.11 5064.53L1048.02 5139.53L1048.02 5289.53L918.11 5364.53L788.2 5289.53L788.2 5139.53zM788.2 5289.53L918.11 5364.53L918.11 5514.53L788.2 5589.53L658.3 5514.53L658.3 5364.53zM918.11 5514.53L1048.02 5589.53L1048.02 5739.53L918.11 5814.53L788.2 5739.53L788.2 5589.53zM1177.93 114.53L1307.84 189.53L1307.84 339.53L1177.93 414.53L1048.02 339.53L1048.02 189.53zM1048.02 2589.53L1177.93 2664.53L1177.93 2814.53L1048.02 2889.53L918.11 2814.53L918.11 2664.53zM1048.02 5289.53L1177.93 5364.53L1177.93 5514.53L1048.02 5589.53L918.11 5514.53L918.11 5364.53zM1177.93 5514.53L1307.84 5589.53L1307.84 5739.53L1177.93 5814.53L1048.02 5739.53L1048.02 5589.53zM1307.84 -110.47L1437.74 -35.47L1437.74 114.53L1307.84 189.53L1177.93 114.53L1177.93 -35.47zM1437.74 5064.53L1567.65 5139.53L1567.65 5289.53L1437.74 5364.53L1307.84 5289.53L1307.84 5139.53zM1437.74 5514.53L1567.65 5589.53L1567.65 5739.53L1437.74 5814.53L1307.84 5739.53L1307.84 5589.53zM1697.56 1914.53L1827.46 1989.53L1827.46 2139.53L1697.56 2214.53L1567.65 2139.53L1567.65 1989.53zM1697.56 3264.53L1827.46 3339.53L1827.46 3489.53L1697.56 3564.53L1567.65 3489.53L1567.65 3339.53zM1697.56 4164.53L1827.46 4239.53L1827.46 4389.53L1697.56 4464.53L1567.65 4389.53L1567.65 4239.53zM1827.46 339.53L1957.37 414.53L1957.37 564.53L1827.46 639.53L1697.56 564.53L1697.56 414.53zM1957.37 1014.53L2087.28 1089.53L2087.28 1239.53L1957.37 1314.53L1827.46 1239.53L1827.46 1089.53zM1957.37 4164.53L2087.28 4239.53L2087.28 4389.53L1957.37 4464.53L1827.46 4389.53L1827.46 4239.53zM1957.37 5964.53L2087.28 6039.53L2087.28 6189.53L1957.37 6264.53L1827.46 6189.53L1827.46 6039.53zM2087.28 789.53L2217.19 864.53L2217.19 1014.53L2087.28 1089.53L1957.37 1014.53L1957.37 864.53zM2217.19 4164.53L2347.09 4239.53L2347.09 4389.53L2217.19 4464.53L2087.28 4389.53L2087.28 4239.53zM2087.28 4389.53L2217.19 4464.53L2217.19 4614.53L2087.28 4689.53L1957.37 4614.53L1957.37 4464.53zM2087.28 4839.53L2217.19 4914.53L2217.19 5064.53L2087.28 5139.53L1957.37 5064.53L1957.37 4914.53zM2477 1014.53L2606.91 1089.53L2606.91 1239.53L2477 1314.53L2347.1 1239.53L2347.1 1089.53zM2347.1 1239.53L2477 1314.53L2477 1464.53L2347.1 1539.53L2217.19 1464.53L2217.19 1314.53zM2736.82 564.53L2866.72 639.53L2866.72 789.53L2736.82 864.53L2606.91 789.53L2606.91 639.53zM2736.82 1014.53L2866.72 1089.53L2866.72 1239.53L2736.82 1314.53L2606.91 1239.53L2606.91 1089.53zM2736.82 2364.53L2866.72 2439.53L2866.72 2589.53L2736.82 2664.53L2606.91 2589.53L2606.91 2439.53zM2606.91 2589.53L2736.82 2664.53L2736.82 2814.53L2606.91 2889.53L2477 2814.53L2477 2664.53zM2606.91 4389.53L2736.82 4464.53L2736.82 4614.53L2606.91 4689.53L2477 4614.53L2477 4464.53zM2606.91 5289.53L2736.82 5364.53L2736.82 5514.53L2606.91 5589.53L2477 5514.53L2477 5364.53zM2606.91 6189.53L2736.82 6264.53L2736.82 6414.53L2606.91 6489.53L2477 6414.53L2477 6264.53zM2996.63 1014.53L3126.54 1089.53L3126.54 1239.53L2996.63 1314.53L2866.73 1239.53L2866.73 1089.53zM2866.73 1689.53L2996.63 1764.53L2996.63 1914.53L2866.73 1989.53L2736.82 1914.53L2736.82 1764.53zM2866.73 3039.53L2996.63 3114.53L2996.63 3264.53L2866.73 3339.53L2736.82 3264.53L2736.82 3114.53zM2996.63 3714.53L3126.54 3789.53L3126.54 3939.53L2996.63 4014.53L2866.73 3939.53L2866.73 3789.53zM2866.73 4839.53L2996.63 4914.53L2996.63 5064.53L2866.73 5139.53L2736.82 5064.53L2736.82 4914.53zM3126.54 -110.47L3256.45 -35.47L3256.45 114.53L3126.54 189.53L2996.63 114.53L2996.63 -35.47zM3126.54 339.53L3256.45 414.53L3256.45 564.53L3126.54 639.53L2996.63 564.53L2996.63 414.53zM3126.54 5739.53L3256.45 5814.53L3256.45 5964.53L3126.54 6039.53L2996.63 5964.53L2996.63 5814.53zM3516.26 564.53L3646.17 639.53L3646.17 789.53L3516.26 864.53L3386.36 789.53L3386.36 639.53zM3386.36 2589.53L3516.26 2664.53L3516.26 2814.53L3386.36 2889.53L3256.45 2814.53L3256.45 2664.53zM3386.36 3039.53L3516.26 3114.53L3516.26 3264.53L3386.36 3339.53L3256.45 3264.53L3256.45 3114.53zM3516.26 3714.53L3646.17 3789.53L3646.17 3939.53L3516.26 4014.53L3386.36 3939.53L3386.36 3789.53zM3516.26 4164.53L3646.17 4239.53L3646.17 4389.53L3516.26 4464.53L3386.36 4389.53L3386.36 4239.53zM3516.26 4614.53L3646.17 4689.53L3646.17 4839.53L3516.26 4914.53L3386.36 4839.53L3386.36 4689.53zM3646.17 4389.53L3776.08 4464.53L3776.08 4614.53L3646.17 4689.53L3516.26 4614.53L3516.26 4464.53zM3776.08 4614.53L3905.98 4689.53L3905.98 4839.53L3776.08 4914.53L3646.17 4839.53L3646.17 4689.53zM3776.08 5514.53L3905.98 5589.53L3905.98 5739.53L3776.08 5814.53L3646.17 5739.53L3646.17 5589.53zM4035.89 1914.53L4165.8 1989.53L4165.8 2139.53L4035.89 2214.53L3905.99 2139.53L3905.99 1989.53zM3905.99 3489.53L4035.89 3564.53L4035.89 3714.53L3905.99 3789.53L3776.08 3714.53L3776.08 3564.53zM3905.99 6189.53L4035.89 6264.53L4035.89 6414.53L3905.99 6489.53L3776.08 6414.53L3776.08 6264.53z" stroke="rgba(128, 186, 36, 1)" stroke-width="2"></path>
        <path d="M-6.24 3489.53 a15 15 0 1 0 30 0 a15 15 0 1 0 -30 0zM123.67 3564.53 a15 15 0 1 0 30 0 a15 15 0 1 0 -30 0zM123.67 3714.53 a15 15 0 1 0 30 0 a15 15 0 1 0 -30 0zM-6.24 3789.53 a15 15 0 1 0 30 0 a15 15 0 1 0 -30 0zM-136.15 3714.53 a15 15 0 1 0 30 0 a15 15 0 1 0 -30 0zM-136.15 3564.53 a15 15 0 1 0 30 0 a15 15 0 1 0 -30 0zM253.57 -110.47 a15 15 0 1 0 30 0 a15 15 0 1 0 -30 0zM383.48 -35.47 a15 15 0 1 0 30 0 a15 15 0 1 0 -30 0zM383.48 114.53 a15 15 0 1 0 30 0 a15 15 0 1 0 -30 0zM253.57 189.53 a15 15 0 1 0 30 0 a15 15 0 1 0 -30 0zM123.67 114.53 a15 15 0 1 0 30 0 a15 15 0 1 0 -30 0zM123.67 -35.47 a15 15 0 1 0 30 0 a15 15 0 1 0 -30 0zM253.57 789.53 a15 15 0 1 0 30 0 a15 15 0 1 0 -30 0zM383.48 864.53 a15 15 0 1 0 30 0 a15 15 0 1 0 -30 0zM383.48 1014.53 a15 15 0 1 0 30 0 a15 15 0 1 0 -30 0zM253.57 1089.53 a15 15 0 1 0 30 0 a15 15 0 1 0 -30 0zM123.67 1014.53 a15 15 0 1 0 30 0 a15 15 0 1 0 -30 0zM123.67 864.53 a15 15 0 1 0 30 0 a15 15 0 1 0 -30 0zM253.57 2139.53 a15 15 0 1 0 30 0 a15 15 0 1 0 -30 0zM383.48 2214.53 a15 15 0 1 0 30 0 a15 15 0 1 0 -30 0zM383.48 2364.53 a15 15 0 1 0 30 0 a15 15 0 1 0 -30 0zM253.57 2439.53 a15 15 0 1 0 30 0 a15 15 0 1 0 -30 0zM123.67 2364.53 a15 15 0 1 0 30 0 a15 15 0 1 0 -30 0zM123.67 2214.53 a15 15 0 1 0 30 0 a15 15 0 1 0 -30 0zM383.48 4164.53 a15 15 0 1 0 30 0 a15 15 0 1 0 -30 0zM513.39 4239.53 a15 15 0 1 0 30 0 a15 15 0 1 0 -30 0zM513.39 4389.53 a15 15 0 1 0 30 0 a15 15 0 1 0 -30 0zM383.48 4464.53 a15 15 0 1 0 30 0 a15 15 0 1 0 -30 0zM253.57 4389.53 a15 15 0 1 0 30 0 a15 15 0 1 0 -30 0zM253.57 4239.53 a15 15 0 1 0 30 0 a15 15 0 1 0 -30 0zM383.48 5514.53 a15 15 0 1 0 30 0 a15 15 0 1 0 -30 0zM513.39 5589.53 a15 15 0 1 0 30 0 a15 15 0 1 0 -30 0zM513.39 5739.53 a15 15 0 1 0 30 0 a15 15 0 1 0 -30 0zM383.48 5814.53 a15 15 0 1 0 30 0 a15 15 0 1 0 -30 0zM253.57 5739.53 a15 15 0 1 0 30 0 a15 15 0 1 0 -30 0zM253.57 5589.53 a15 15 0 1 0 30 0 a15 15 0 1 0 -30 0zM643.3 114.53 a15 15 0 1 0 30 0 a15 15 0 1 0 -30 0zM773.21 189.53 a15 15 0 1 0 30 0 a15 15 0 1 0 -30 0zM773.21 339.53 a15 15 0 1 0 30 0 a15 15 0 1 0 -30 0zM643.3 414.53 a15 15 0 1 0 30 0 a15 15 0 1 0 -30 0zM513.39 339.53 a15 15 0 1 0 30 0 a15 15 0 1 0 -30 0zM513.39 189.53 a15 15 0 1 0 30 0 a15 15 0 1 0 -30 0zM643.3 1014.53 a15 15 0 1 0 30 0 a15 15 0 1 0 -30 0zM773.21 1089.53 a15 15 0 1 0 30 0 a15 15 0 1 0 -30 0zM773.21 1239.53 a15 15 0 1 0 30 0 a15 15 0 1 0 -30 0zM643.3 1314.53 a15 15 0 1 0 30 0 a15 15 0 1 0 -30 0zM513.39 1239.53 a15 15 0 1 0 30 0 a15 15 0 1 0 -30 0zM513.39 1089.53 a15 15 0 1 0 30 0 a15 15 0 1 0 -30 0zM643.3 1464.53 a15 15 0 1 0 30 0 a15 15 0 1 0 -30 0zM773.21 1539.53 a15 15 0 1 0 30 0 a15 15 0 1 0 -30 0zM773.21 1689.53 a15 15 0 1 0 30 0 a15 15 0 1 0 -30 0zM643.3 1764.53 a15 15 0 1 0 30 0 a15 15 0 1 0 -30 0zM513.39 1689.53 a15 15 0 1 0 30 0 a15 15 0 1 0 -30 0zM513.39 1539.53 a15 15 0 1 0 30 0 a15 15 0 1 0 -30 0zM513.39 2139.53 a15 15 0 1 0 30 0 a15 15 0 1 0 -30 0zM643.3 2214.53 a15 15 0 1 0 30 0 a15 15 0 1 0 -30 0zM643.3 2364.53 a15 15 0 1 0 30 0 a15 15 0 1 0 -30 0zM513.39 2439.53 a15 15 0 1 0 30 0 a15 15 0 1 0 -30 0zM773.21 2439.53 a15 15 0 1 0 30 0 a15 15 0 1 0 -30 0zM773.21 2589.53 a15 15 0 1 0 30 0 a15 15 0 1 0 -30 0zM643.3 2664.53 a15 15 0 1 0 30 0 a15 15 0 1 0 -30 0zM513.39 2589.53 a15 15 0 1 0 30 0 a15 15 0 1 0 -30 0zM513.39 3939.53 a15 15 0 1 0 30 0 a15 15 0 1 0 -30 0zM643.3 4014.53 a15 15 0 1 0 30 0 a15 15 0 1 0 -30 0zM643.3 4164.53 a15 15 0 1 0 30 0 a15 15 0 1 0 -30 0zM383.48 4014.53 a15 15 0 1 0 30 0 a15 15 0 1 0 -30 0zM643.3 5964.53 a15 15 0 1 0 30 0 a15 15 0 1 0 -30 0zM773.21 6039.53 a15 15 0 1 0 30 0 a15 15 0 1 0 -30 0zM773.21 6189.53 a15 15 0 1 0 30 0 a15 15 0 1 0 -30 0zM643.3 6264.53 a15 15 0 1 0 30 0 a15 15 0 1 0 -30 0zM513.39 6189.53 a15 15 0 1 0 30 0 a15 15 0 1 0 -30 0zM513.39 6039.53 a15 15 0 1 0 30 0 a15 15 0 1 0 -30 0zM643.3 6414.53 a15 15 0 1 0 30 0 a15 15 0 1 0 -30 0zM513.39 6489.53 a15 15 0 1 0 30 0 a15 15 0 1 0 -30 0zM383.48 6414.53 a15 15 0 1 0 30 0 a15 15 0 1 0 -30 0zM383.48 6264.53 a15 15 0 1 0 30 0 a15 15 0 1 0 -30 0zM773.2 339.53 a15 15 0 1 0 30 0 a15 15 0 1 0 -30 0zM903.11 414.53 a15 15 0 1 0 30 0 a15 15 0 1 0 -30 0zM903.11 564.53 a15 15 0 1 0 30 0 a15 15 0 1 0 -30 0zM773.2 639.53 a15 15 0 1 0 30 0 a15 15 0 1 0 -30 0zM643.3 564.53 a15 15 0 1 0 30 0 a15 15 0 1 0 -30 0zM903.11 1014.53 a15 15 0 1 0 30 0 a15 15 0 1 0 -30 0zM1033.02 1089.53 a15 15 0 1 0 30 0 a15 15 0 1 0 -30 0zM1033.02 1239.53 a15 15 0 1 0 30 0 a15 15 0 1 0 -30 0zM903.11 1314.53 a15 15 0 1 0 30 0 a15 15 0 1 0 -30 0zM773.2 1239.53 a15 15 0 1 0 30 0 a15 15 0 1 0 -30 0zM773.2 1089.53 a15 15 0 1 0 30 0 a15 15 0 1 0 -30 0zM903.11 5064.53 a15 15 0 1 0 30 0 a15 15 0 1 0 -30 0zM1033.02 5139.53 a15 15 0 1 0 30 0 a15 15 0 1 0 -30 0zM1033.02 5289.53 a15 15 0 1 0 30 0 a15 15 0 1 0 -30 0zM903.11 5364.53 a15 15 0 1 0 30 0 a15 15 0 1 0 -30 0zM773.2 5289.53 a15 15 0 1 0 30 0 a15 15 0 1 0 -30 0zM773.2 5139.53 a15 15 0 1 0 30 0 a15 15 0 1 0 -30 0zM903.11 5514.53 a15 15 0 1 0 30 0 a15 15 0 1 0 -30 0zM773.2 5589.53 a15 15 0 1 0 30 0 a15 15 0 1 0 -30 0zM643.3 5514.53 a15 15 0 1 0 30 0 a15 15 0 1 0 -30 0zM643.3 5364.53 a15 15 0 1 0 30 0 a15 15 0 1 0 -30 0zM1033.02 5589.53 a15 15 0 1 0 30 0 a15 15 0 1 0 -30 0zM1033.02 5739.53 a15 15 0 1 0 30 0 a15 15 0 1 0 -30 0zM903.11 5814.53 a15 15 0 1 0 30 0 a15 15 0 1 0 -30 0zM773.2 5739.53 a15 15 0 1 0 30 0 a15 15 0 1 0 -30 0zM1162.93 114.53 a15 15 0 1 0 30 0 a15 15 0 1 0 -30 0zM1292.84 189.53 a15 15 0 1 0 30 0 a15 15 0 1 0 -30 0zM1292.84 339.53 a15 15 0 1 0 30 0 a15 15 0 1 0 -30 0zM1162.93 414.53 a15 15 0 1 0 30 0 a15 15 0 1 0 -30 0zM1033.02 339.53 a15 15 0 1 0 30 0 a15 15 0 1 0 -30 0zM1033.02 189.53 a15 15 0 1 0 30 0 a15 15 0 1 0 -30 0zM1033.02 2589.53 a15 15 0 1 0 30 0 a15 15 0 1 0 -30 0zM1162.93 2664.53 a15 15 0 1 0 30 0 a15 15 0 1 0 -30 0zM1162.93 2814.53 a15 15 0 1 0 30 0 a15 15 0 1 0 -30 0zM1033.02 2889.53 a15 15 0 1 0 30 0 a15 15 0 1 0 -30 0zM903.11 2814.53 a15 15 0 1 0 30 0 a15 15 0 1 0 -30 0zM903.11 2664.53 a15 15 0 1 0 30 0 a15 15 0 1 0 -30 0zM1162.93 5364.53 a15 15 0 1 0 30 0 a15 15 0 1 0 -30 0zM1162.93 5514.53 a15 15 0 1 0 30 0 a15 15 0 1 0 -30 0zM1292.84 5589.53 a15 15 0 1 0 30 0 a15 15 0 1 0 -30 0zM1292.84 5739.53 a15 15 0 1 0 30 0 a15 15 0 1 0 -30 0zM1162.93 5814.53 a15 15 0 1 0 30 0 a15 15 0 1 0 -30 0zM1292.84 -110.47 a15 15 0 1 0 30 0 a15 15 0 1 0 -30 0zM1422.74 -35.47 a15 15 0 1 0 30 0 a15 15 0 1 0 -30 0zM1422.74 114.53 a15 15 0 1 0 30 0 a15 15 0 1 0 -30 0zM1162.93 -35.47 a15 15 0 1 0 30 0 a15 15 0 1 0 -30 0zM1422.74 5064.53 a15 15 0 1 0 30 0 a15 15 0 1 0 -30 0zM1552.65 5139.53 a15 15 0 1 0 30 0 a15 15 0 1 0 -30 0zM1552.65 5289.53 a15 15 0 1 0 30 0 a15 15 0 1 0 -30 0zM1422.74 5364.53 a15 15 0 1 0 30 0 a15 15 0 1 0 -30 0zM1292.84 5289.53 a15 15 0 1 0 30 0 a15 15 0 1 0 -30 0zM1292.84 5139.53 a15 15 0 1 0 30 0 a15 15 0 1 0 -30 0zM1422.74 5514.53 a15 15 0 1 0 30 0 a15 15 0 1 0 -30 0zM1552.65 5589.53 a15 15 0 1 0 30 0 a15 15 0 1 0 -30 0zM1552.65 5739.53 a15 15 0 1 0 30 0 a15 15 0 1 0 -30 0zM1422.74 5814.53 a15 15 0 1 0 30 0 a15 15 0 1 0 -30 0zM1682.56 1914.53 a15 15 0 1 0 30 0 a15 15 0 1 0 -30 0zM1812.46 1989.53 a15 15 0 1 0 30 0 a15 15 0 1 0 -30 0zM1812.46 2139.53 a15 15 0 1 0 30 0 a15 15 0 1 0 -30 0zM1682.56 2214.53 a15 15 0 1 0 30 0 a15 15 0 1 0 -30 0zM1552.65 2139.53 a15 15 0 1 0 30 0 a15 15 0 1 0 -30 0zM1552.65 1989.53 a15 15 0 1 0 30 0 a15 15 0 1 0 -30 0zM1682.56 3264.53 a15 15 0 1 0 30 0 a15 15 0 1 0 -30 0zM1812.46 3339.53 a15 15 0 1 0 30 0 a15 15 0 1 0 -30 0zM1812.46 3489.53 a15 15 0 1 0 30 0 a15 15 0 1 0 -30 0zM1682.56 3564.53 a15 15 0 1 0 30 0 a15 15 0 1 0 -30 0zM1552.65 3489.53 a15 15 0 1 0 30 0 a15 15 0 1 0 -30 0zM1552.65 3339.53 a15 15 0 1 0 30 0 a15 15 0 1 0 -30 0zM1682.56 4164.53 a15 15 0 1 0 30 0 a15 15 0 1 0 -30 0zM1812.46 4239.53 a15 15 0 1 0 30 0 a15 15 0 1 0 -30 0zM1812.46 4389.53 a15 15 0 1 0 30 0 a15 15 0 1 0 -30 0zM1682.56 4464.53 a15 15 0 1 0 30 0 a15 15 0 1 0 -30 0zM1552.65 4389.53 a15 15 0 1 0 30 0 a15 15 0 1 0 -30 0zM1552.65 4239.53 a15 15 0 1 0 30 0 a15 15 0 1 0 -30 0zM1812.46 339.53 a15 15 0 1 0 30 0 a15 15 0 1 0 -30 0zM1942.37 414.53 a15 15 0 1 0 30 0 a15 15 0 1 0 -30 0zM1942.37 564.53 a15 15 0 1 0 30 0 a15 15 0 1 0 -30 0zM1812.46 639.53 a15 15 0 1 0 30 0 a15 15 0 1 0 -30 0zM1682.56 564.53 a15 15 0 1 0 30 0 a15 15 0 1 0 -30 0zM1682.56 414.53 a15 15 0 1 0 30 0 a15 15 0 1 0 -30 0zM1942.37 1014.53 a15 15 0 1 0 30 0 a15 15 0 1 0 -30 0zM2072.28 1089.53 a15 15 0 1 0 30 0 a15 15 0 1 0 -30 0zM2072.28 1239.53 a15 15 0 1 0 30 0 a15 15 0 1 0 -30 0zM1942.37 1314.53 a15 15 0 1 0 30 0 a15 15 0 1 0 -30 0zM1812.46 1239.53 a15 15 0 1 0 30 0 a15 15 0 1 0 -30 0zM1812.46 1089.53 a15 15 0 1 0 30 0 a15 15 0 1 0 -30 0zM1942.37 4164.53 a15 15 0 1 0 30 0 a15 15 0 1 0 -30 0zM2072.28 4239.53 a15 15 0 1 0 30 0 a15 15 0 1 0 -30 0zM2072.28 4389.53 a15 15 0 1 0 30 0 a15 15 0 1 0 -30 0zM1942.37 4464.53 a15 15 0 1 0 30 0 a15 15 0 1 0 -30 0zM1942.37 5964.53 a15 15 0 1 0 30 0 a15 15 0 1 0 -30 0zM2072.28 6039.53 a15 15 0 1 0 30 0 a15 15 0 1 0 -30 0zM2072.28 6189.53 a15 15 0 1 0 30 0 a15 15 0 1 0 -30 0zM1942.37 6264.53 a15 15 0 1 0 30 0 a15 15 0 1 0 -30 0zM1812.46 6189.53 a15 15 0 1 0 30 0 a15 15 0 1 0 -30 0zM1812.46 6039.53 a15 15 0 1 0 30 0 a15 15 0 1 0 -30 0zM2072.28 789.53 a15 15 0 1 0 30 0 a15 15 0 1 0 -30 0zM2202.19 864.53 a15 15 0 1 0 30 0 a15 15 0 1 0 -30 0zM2202.19 1014.53 a15 15 0 1 0 30 0 a15 15 0 1 0 -30 0zM1942.37 864.53 a15 15 0 1 0 30 0 a15 15 0 1 0 -30 0zM2202.19 4164.53 a15 15 0 1 0 30 0 a15 15 0 1 0 -30 0zM2332.09 4239.53 a15 15 0 1 0 30 0 a15 15 0 1 0 -30 0zM2332.09 4389.53 a15 15 0 1 0 30 0 a15 15 0 1 0 -30 0zM2202.19 4464.53 a15 15 0 1 0 30 0 a15 15 0 1 0 -30 0zM2202.19 4614.53 a15 15 0 1 0 30 0 a15 15 0 1 0 -30 0zM2072.28 4689.53 a15 15 0 1 0 30 0 a15 15 0 1 0 -30 0zM1942.37 4614.53 a15 15 0 1 0 30 0 a15 15 0 1 0 -30 0zM2072.28 4839.53 a15 15 0 1 0 30 0 a15 15 0 1 0 -30 0zM2202.19 4914.53 a15 15 0 1 0 30 0 a15 15 0 1 0 -30 0zM2202.19 5064.53 a15 15 0 1 0 30 0 a15 15 0 1 0 -30 0zM2072.28 5139.53 a15 15 0 1 0 30 0 a15 15 0 1 0 -30 0zM1942.37 5064.53 a15 15 0 1 0 30 0 a15 15 0 1 0 -30 0zM1942.37 4914.53 a15 15 0 1 0 30 0 a15 15 0 1 0 -30 0zM2462 1014.53 a15 15 0 1 0 30 0 a15 15 0 1 0 -30 0zM2591.91 1089.53 a15 15 0 1 0 30 0 a15 15 0 1 0 -30 0zM2591.91 1239.53 a15 15 0 1 0 30 0 a15 15 0 1 0 -30 0zM2462 1314.53 a15 15 0 1 0 30 0 a15 15 0 1 0 -30 0zM2332.1 1239.53 a15 15 0 1 0 30 0 a15 15 0 1 0 -30 0zM2332.1 1089.53 a15 15 0 1 0 30 0 a15 15 0 1 0 -30 0zM2462 1464.53 a15 15 0 1 0 30 0 a15 15 0 1 0 -30 0zM2332.1 1539.53 a15 15 0 1 0 30 0 a15 15 0 1 0 -30 0zM2202.19 1464.53 a15 15 0 1 0 30 0 a15 15 0 1 0 -30 0zM2202.19 1314.53 a15 15 0 1 0 30 0 a15 15 0 1 0 -30 0zM2721.82 564.53 a15 15 0 1 0 30 0 a15 15 0 1 0 -30 0zM2851.72 639.53 a15 15 0 1 0 30 0 a15 15 0 1 0 -30 0zM2851.72 789.53 a15 15 0 1 0 30 0 a15 15 0 1 0 -30 0zM2721.82 864.53 a15 15 0 1 0 30 0 a15 15 0 1 0 -30 0zM2591.91 789.53 a15 15 0 1 0 30 0 a15 15 0 1 0 -30 0zM2591.91 639.53 a15 15 0 1 0 30 0 a15 15 0 1 0 -30 0zM2721.82 1014.53 a15 15 0 1 0 30 0 a15 15 0 1 0 -30 0zM2851.72 1089.53 a15 15 0 1 0 30 0 a15 15 0 1 0 -30 0zM2851.72 1239.53 a15 15 0 1 0 30 0 a15 15 0 1 0 -30 0zM2721.82 1314.53 a15 15 0 1 0 30 0 a15 15 0 1 0 -30 0zM2721.82 2364.53 a15 15 0 1 0 30 0 a15 15 0 1 0 -30 0zM2851.72 2439.53 a15 15 0 1 0 30 0 a15 15 0 1 0 -30 0zM2851.72 2589.53 a15 15 0 1 0 30 0 a15 15 0 1 0 -30 0zM2721.82 2664.53 a15 15 0 1 0 30 0 a15 15 0 1 0 -30 0zM2591.91 2589.53 a15 15 0 1 0 30 0 a15 15 0 1 0 -30 0zM2591.91 2439.53 a15 15 0 1 0 30 0 a15 15 0 1 0 -30 0zM2721.82 2814.53 a15 15 0 1 0 30 0 a15 15 0 1 0 -30 0zM2591.91 2889.53 a15 15 0 1 0 30 0 a15 15 0 1 0 -30 0zM2462 2814.53 a15 15 0 1 0 30 0 a15 15 0 1 0 -30 0zM2462 2664.53 a15 15 0 1 0 30 0 a15 15 0 1 0 -30 0zM2591.91 4389.53 a15 15 0 1 0 30 0 a15 15 0 1 0 -30 0zM2721.82 4464.53 a15 15 0 1 0 30 0 a15 15 0 1 0 -30 0zM2721.82 4614.53 a15 15 0 1 0 30 0 a15 15 0 1 0 -30 0zM2591.91 4689.53 a15 15 0 1 0 30 0 a15 15 0 1 0 -30 0zM2462 4614.53 a15 15 0 1 0 30 0 a15 15 0 1 0 -30 0zM2462 4464.53 a15 15 0 1 0 30 0 a15 15 0 1 0 -30 0zM2591.91 5289.53 a15 15 0 1 0 30 0 a15 15 0 1 0 -30 0zM2721.82 5364.53 a15 15 0 1 0 30 0 a15 15 0 1 0 -30 0zM2721.82 5514.53 a15 15 0 1 0 30 0 a15 15 0 1 0 -30 0zM2591.91 5589.53 a15 15 0 1 0 30 0 a15 15 0 1 0 -30 0zM2462 5514.53 a15 15 0 1 0 30 0 a15 15 0 1 0 -30 0zM2462 5364.53 a15 15 0 1 0 30 0 a15 15 0 1 0 -30 0zM2591.91 6189.53 a15 15 0 1 0 30 0 a15 15 0 1 0 -30 0zM2721.82 6264.53 a15 15 0 1 0 30 0 a15 15 0 1 0 -30 0zM2721.82 6414.53 a15 15 0 1 0 30 0 a15 15 0 1 0 -30 0zM2591.91 6489.53 a15 15 0 1 0 30 0 a15 15 0 1 0 -30 0zM2462 6414.53 a15 15 0 1 0 30 0 a15 15 0 1 0 -30 0zM2462 6264.53 a15 15 0 1 0 30 0 a15 15 0 1 0 -30 0zM2981.63 1014.53 a15 15 0 1 0 30 0 a15 15 0 1 0 -30 0zM3111.54 1089.53 a15 15 0 1 0 30 0 a15 15 0 1 0 -30 0zM3111.54 1239.53 a15 15 0 1 0 30 0 a15 15 0 1 0 -30 0zM2981.63 1314.53 a15 15 0 1 0 30 0 a15 15 0 1 0 -30 0zM2851.73 1239.53 a15 15 0 1 0 30 0 a15 15 0 1 0 -30 0zM2851.73 1089.53 a15 15 0 1 0 30 0 a15 15 0 1 0 -30 0zM2851.73 1689.53 a15 15 0 1 0 30 0 a15 15 0 1 0 -30 0zM2981.63 1764.53 a15 15 0 1 0 30 0 a15 15 0 1 0 -30 0zM2981.63 1914.53 a15 15 0 1 0 30 0 a15 15 0 1 0 -30 0zM2851.73 1989.53 a15 15 0 1 0 30 0 a15 15 0 1 0 -30 0zM2721.82 1914.53 a15 15 0 1 0 30 0 a15 15 0 1 0 -30 0zM2721.82 1764.53 a15 15 0 1 0 30 0 a15 15 0 1 0 -30 0zM2851.73 3039.53 a15 15 0 1 0 30 0 a15 15 0 1 0 -30 0zM2981.63 3114.53 a15 15 0 1 0 30 0 a15 15 0 1 0 -30 0zM2981.63 3264.53 a15 15 0 1 0 30 0 a15 15 0 1 0 -30 0zM2851.73 3339.53 a15 15 0 1 0 30 0 a15 15 0 1 0 -30 0zM2721.82 3264.53 a15 15 0 1 0 30 0 a15 15 0 1 0 -30 0zM2721.82 3114.53 a15 15 0 1 0 30 0 a15 15 0 1 0 -30 0zM2981.63 3714.53 a15 15 0 1 0 30 0 a15 15 0 1 0 -30 0zM3111.54 3789.53 a15 15 0 1 0 30 0 a15 15 0 1 0 -30 0zM3111.54 3939.53 a15 15 0 1 0 30 0 a15 15 0 1 0 -30 0zM2981.63 4014.53 a15 15 0 1 0 30 0 a15 15 0 1 0 -30 0zM2851.73 3939.53 a15 15 0 1 0 30 0 a15 15 0 1 0 -30 0zM2851.73 3789.53 a15 15 0 1 0 30 0 a15 15 0 1 0 -30 0zM2851.73 4839.53 a15 15 0 1 0 30 0 a15 15 0 1 0 -30 0zM2981.63 4914.53 a15 15 0 1 0 30 0 a15 15 0 1 0 -30 0zM2981.63 5064.53 a15 15 0 1 0 30 0 a15 15 0 1 0 -30 0zM2851.73 5139.53 a15 15 0 1 0 30 0 a15 15 0 1 0 -30 0zM2721.82 5064.53 a15 15 0 1 0 30 0 a15 15 0 1 0 -30 0zM2721.82 4914.53 a15 15 0 1 0 30 0 a15 15 0 1 0 -30 0zM3111.54 -110.47 a15 15 0 1 0 30 0 a15 15 0 1 0 -30 0zM3241.45 -35.47 a15 15 0 1 0 30 0 a15 15 0 1 0 -30 0zM3241.45 114.53 a15 15 0 1 0 30 0 a15 15 0 1 0 -30 0zM3111.54 189.53 a15 15 0 1 0 30 0 a15 15 0 1 0 -30 0zM2981.63 114.53 a15 15 0 1 0 30 0 a15 15 0 1 0 -30 0zM2981.63 -35.47 a15 15 0 1 0 30 0 a15 15 0 1 0 -30 0zM3111.54 339.53 a15 15 0 1 0 30 0 a15 15 0 1 0 -30 0zM3241.45 414.53 a15 15 0 1 0 30 0 a15 15 0 1 0 -30 0zM3241.45 564.53 a15 15 0 1 0 30 0 a15 15 0 1 0 -30 0zM3111.54 639.53 a15 15 0 1 0 30 0 a15 15 0 1 0 -30 0zM2981.63 564.53 a15 15 0 1 0 30 0 a15 15 0 1 0 -30 0zM2981.63 414.53 a15 15 0 1 0 30 0 a15 15 0 1 0 -30 0zM3111.54 5739.53 a15 15 0 1 0 30 0 a15 15 0 1 0 -30 0zM3241.45 5814.53 a15 15 0 1 0 30 0 a15 15 0 1 0 -30 0zM3241.45 5964.53 a15 15 0 1 0 30 0 a15 15 0 1 0 -30 0zM3111.54 6039.53 a15 15 0 1 0 30 0 a15 15 0 1 0 -30 0zM2981.63 5964.53 a15 15 0 1 0 30 0 a15 15 0 1 0 -30 0zM2981.63 5814.53 a15 15 0 1 0 30 0 a15 15 0 1 0 -30 0zM3501.26 564.53 a15 15 0 1 0 30 0 a15 15 0 1 0 -30 0zM3631.17 639.53 a15 15 0 1 0 30 0 a15 15 0 1 0 -30 0zM3631.17 789.53 a15 15 0 1 0 30 0 a15 15 0 1 0 -30 0zM3501.26 864.53 a15 15 0 1 0 30 0 a15 15 0 1 0 -30 0zM3371.36 789.53 a15 15 0 1 0 30 0 a15 15 0 1 0 -30 0zM3371.36 639.53 a15 15 0 1 0 30 0 a15 15 0 1 0 -30 0zM3371.36 2589.53 a15 15 0 1 0 30 0 a15 15 0 1 0 -30 0zM3501.26 2664.53 a15 15 0 1 0 30 0 a15 15 0 1 0 -30 0zM3501.26 2814.53 a15 15 0 1 0 30 0 a15 15 0 1 0 -30 0zM3371.36 2889.53 a15 15 0 1 0 30 0 a15 15 0 1 0 -30 0zM3241.45 2814.53 a15 15 0 1 0 30 0 a15 15 0 1 0 -30 0zM3241.45 2664.53 a15 15 0 1 0 30 0 a15 15 0 1 0 -30 0zM3371.36 3039.53 a15 15 0 1 0 30 0 a15 15 0 1 0 -30 0zM3501.26 3114.53 a15 15 0 1 0 30 0 a15 15 0 1 0 -30 0zM3501.26 3264.53 a15 15 0 1 0 30 0 a15 15 0 1 0 -30 0zM3371.36 3339.53 a15 15 0 1 0 30 0 a15 15 0 1 0 -30 0zM3241.45 3264.53 a15 15 0 1 0 30 0 a15 15 0 1 0 -30 0zM3241.45 3114.53 a15 15 0 1 0 30 0 a15 15 0 1 0 -30 0zM3501.26 3714.53 a15 15 0 1 0 30 0 a15 15 0 1 0 -30 0zM3631.17 3789.53 a15 15 0 1 0 30 0 a15 15 0 1 0 -30 0zM3631.17 3939.53 a15 15 0 1 0 30 0 a15 15 0 1 0 -30 0zM3501.26 4014.53 a15 15 0 1 0 30 0 a15 15 0 1 0 -30 0zM3371.36 3939.53 a15 15 0 1 0 30 0 a15 15 0 1 0 -30 0zM3371.36 3789.53 a15 15 0 1 0 30 0 a15 15 0 1 0 -30 0zM3501.26 4164.53 a15 15 0 1 0 30 0 a15 15 0 1 0 -30 0zM3631.17 4239.53 a15 15 0 1 0 30 0 a15 15 0 1 0 -30 0zM3631.17 4389.53 a15 15 0 1 0 30 0 a15 15 0 1 0 -30 0zM3501.26 4464.53 a15 15 0 1 0 30 0 a15 15 0 1 0 -30 0zM3371.36 4389.53 a15 15 0 1 0 30 0 a15 15 0 1 0 -30 0zM3371.36 4239.53 a15 15 0 1 0 30 0 a15 15 0 1 0 -30 0zM3501.26 4614.53 a15 15 0 1 0 30 0 a15 15 0 1 0 -30 0zM3631.17 4689.53 a15 15 0 1 0 30 0 a15 15 0 1 0 -30 0zM3631.17 4839.53 a15 15 0 1 0 30 0 a15 15 0 1 0 -30 0zM3501.26 4914.53 a15 15 0 1 0 30 0 a15 15 0 1 0 -30 0zM3371.36 4839.53 a15 15 0 1 0 30 0 a15 15 0 1 0 -30 0zM3371.36 4689.53 a15 15 0 1 0 30 0 a15 15 0 1 0 -30 0zM3761.08 4464.53 a15 15 0 1 0 30 0 a15 15 0 1 0 -30 0zM3761.08 4614.53 a15 15 0 1 0 30 0 a15 15 0 1 0 -30 0zM3890.98 4689.53 a15 15 0 1 0 30 0 a15 15 0 1 0 -30 0zM3890.98 4839.53 a15 15 0 1 0 30 0 a15 15 0 1 0 -30 0zM3761.08 4914.53 a15 15 0 1 0 30 0 a15 15 0 1 0 -30 0zM3761.08 5514.53 a15 15 0 1 0 30 0 a15 15 0 1 0 -30 0zM3890.98 5589.53 a15 15 0 1 0 30 0 a15 15 0 1 0 -30 0zM3890.98 5739.53 a15 15 0 1 0 30 0 a15 15 0 1 0 -30 0zM3761.08 5814.53 a15 15 0 1 0 30 0 a15 15 0 1 0 -30 0zM3631.17 5739.53 a15 15 0 1 0 30 0 a15 15 0 1 0 -30 0zM3631.17 5589.53 a15 15 0 1 0 30 0 a15 15 0 1 0 -30 0zM4020.89 1914.53 a15 15 0 1 0 30 0 a15 15 0 1 0 -30 0zM4150.8 1989.53 a15 15 0 1 0 30 0 a15 15 0 1 0 -30 0zM4150.8 2139.53 a15 15 0 1 0 30 0 a15 15 0 1 0 -30 0zM4020.89 2214.53 a15 15 0 1 0 30 0 a15 15 0 1 0 -30 0zM3890.99 2139.53 a15 15 0 1 0 30 0 a15 15 0 1 0 -30 0zM3890.99 1989.53 a15 15 0 1 0 30 0 a15 15 0 1 0 -30 0zM3890.99 3489.53 a15 15 0 1 0 30 0 a15 15 0 1 0 -30 0zM4020.89 3564.53 a15 15 0 1 0 30 0 a15 15 0 1 0 -30 0zM4020.89 3714.53 a15 15 0 1 0 30 0 a15 15 0 1 0 -30 0zM3890.99 3789.53 a15 15 0 1 0 30 0 a15 15 0 1 0 -30 0zM3761.08 3714.53 a15 15 0 1 0 30 0 a15 15 0 1 0 -30 0zM3761.08 3564.53 a15 15 0 1 0 30 0 a15 15 0 1 0 -30 0zM3890.99 6189.53 a15 15 0 1 0 30 0 a15 15 0 1 0 -30 0zM4020.89 6264.53 a15 15 0 1 0 30 0 a15 15 0 1 0 -30 0zM4020.89 6414.53 a15 15 0 1 0 30 0 a15 15 0 1 0 -30 0zM3890.99 6489.53 a15 15 0 1 0 30 0 a15 15 0 1 0 -30 0zM3761.08 6414.53 a15 15 0 1 0 30 0 a15 15 0 1 0 -30 0zM3761.08 6264.53 a15 15 0 1 0 30 0 a15 15 0 1 0 -30 0z" fill="rgba(128, 186, 36, 1)"></path>
    </g>
    <defs>
        <mask id="SvgjsMask1737">
            <rect width="4040" height="6250" fill="#ffffff"></rect>
        </mask>
        <radialGradient cx="50%" cy="50%" r="3721.02" gradientUnits="userSpaceOnUse" id="SvgjsRadialGradient1738">
            <stop stop-color="rgba(255, 255, 255, 1)" offset="0"></stop>
            <stop stop-color="rgba(255, 255, 255, 0.67)" offset="0.41"></stop>
            <stop stop-color="rgba(152, 212, 57, 1)" offset="1"></stop>
        </radialGradient>
    </defs>
</svg>