<svg xmlns="http://www.w3.org/2000/svg" version="1.1" xmlns:xlink="http://www.w3.org/1999/xlink" xmlns:svgjs="http://svgjs.com/svgjs" width="4040" height="9251" preserveAspectRatio="none" viewBox="0 0 4040 9251">
    <g mask="url(&quot;#SvgjsMask1005&quot;)" fill="none">
        <rect width="4040" height="9251" x="0" y="0" fill="rgba(255, 255, 255, 1)"></rect>
        <path d="M89.74 947.85L188.47 1004.85L188.47 1118.85L89.74 1175.85L-8.99 1118.85L-8.99 1004.85zM89.74 1289.85L188.47 1346.85L188.47 1460.85L89.74 1517.85L-8.99 1460.85L-8.99 1346.85zM188.47 1460.85L287.2 1517.85L287.2 1631.85L188.47 1688.85L89.74 1631.85L89.74 1517.85zM188.47 3854.85L287.2 3911.85L287.2 4025.85L188.47 4082.85L89.74 4025.85L89.74 3911.85zM89.74 4367.85L188.47 4424.85L188.47 4538.85L89.74 4595.85L-8.99 4538.85L-8.99 4424.85zM188.47 5564.85L287.2 5621.85L287.2 5735.85L188.47 5792.85L89.74 5735.85L89.74 5621.85zM89.74 6419.85L188.47 6476.85L188.47 6590.85L89.74 6647.85L-8.99 6590.85L-8.99 6476.85zM188.47 6590.85L287.2 6647.85L287.2 6761.85L188.47 6818.85L89.74 6761.85L89.74 6647.85zM89.74 8471.85L188.47 8528.85L188.47 8642.85L89.74 8699.85L-8.99 8642.85L-8.99 8528.85zM287.2 4025.85L385.93 4082.85L385.93 4196.85L287.2 4253.85L188.47 4196.85L188.47 4082.85zM385.93 4196.85L484.66 4253.85L484.66 4367.85L385.93 4424.85L287.2 4367.85L287.2 4253.85zM385.93 7616.85L484.66 7673.85L484.66 7787.85L385.93 7844.85L287.2 7787.85L287.2 7673.85zM484.66 -78.15L583.39 -21.15L583.39 92.85L484.66 149.85L385.93 92.85L385.93 -21.15zM583.39 92.85L682.12 149.85L682.12 263.85L583.39 320.85L484.66 263.85L484.66 149.85zM484.66 263.85L583.39 320.85L583.39 434.85L484.66 491.85L385.93 434.85L385.93 320.85zM583.39 776.85L682.12 833.85L682.12 947.85L583.39 1004.85L484.66 947.85L484.66 833.85zM484.66 1631.85L583.39 1688.85L583.39 1802.85L484.66 1859.85L385.93 1802.85L385.93 1688.85zM583.39 3170.85L682.12 3227.85L682.12 3341.85L583.39 3398.85L484.66 3341.85L484.66 3227.85zM484.66 4709.85L583.39 4766.85L583.39 4880.85L484.66 4937.85L385.93 4880.85L385.93 4766.85zM583.39 5222.85L682.12 5279.85L682.12 5393.85L583.39 5450.85L484.66 5393.85L484.66 5279.85zM484.66 5393.85L583.39 5450.85L583.39 5564.85L484.66 5621.85L385.93 5564.85L385.93 5450.85zM583.39 7274.85L682.12 7331.85L682.12 7445.85L583.39 7502.85L484.66 7445.85L484.66 7331.85zM484.66 7445.85L583.39 7502.85L583.39 7616.85L484.66 7673.85L385.93 7616.85L385.93 7502.85zM583.39 7616.85L682.12 7673.85L682.12 7787.85L583.39 7844.85L484.66 7787.85L484.66 7673.85zM780.85 776.85L879.58 833.85L879.58 947.85L780.85 1004.85L682.12 947.85L682.12 833.85zM780.85 1118.85L879.58 1175.85L879.58 1289.85L780.85 1346.85L682.12 1289.85L682.12 1175.85zM682.12 2315.85L780.85 2372.85L780.85 2486.85L682.12 2543.85L583.39 2486.85L583.39 2372.85zM780.85 2828.85L879.58 2885.85L879.58 2999.85L780.85 3056.85L682.12 2999.85L682.12 2885.85zM682.12 3341.85L780.85 3398.85L780.85 3512.85L682.12 3569.85L583.39 3512.85L583.39 3398.85zM780.85 3854.85L879.58 3911.85L879.58 4025.85L780.85 4082.85L682.12 4025.85L682.12 3911.85zM780.85 4880.85L879.58 4937.85L879.58 5051.85L780.85 5108.85L682.12 5051.85L682.12 4937.85zM682.12 5051.85L780.85 5108.85L780.85 5222.85L682.12 5279.85L583.39 5222.85L583.39 5108.85zM682.12 7103.85L780.85 7160.85L780.85 7274.85L682.12 7331.85L583.39 7274.85L583.39 7160.85zM780.85 8642.85L879.58 8699.85L879.58 8813.85L780.85 8870.85L682.12 8813.85L682.12 8699.85zM682.12 8813.85L780.85 8870.85L780.85 8984.85L682.12 9041.85L583.39 8984.85L583.39 8870.85zM682.12 9155.85L780.85 9212.85L780.85 9326.85L682.12 9383.85L583.39 9326.85L583.39 9212.85zM879.58 -78.15L978.31 -21.15L978.31 92.85L879.58 149.85L780.85 92.85L780.85 -21.15zM978.31 1802.85L1077.04 1859.85L1077.04 1973.85L978.31 2030.85L879.58 1973.85L879.58 1859.85zM879.58 2315.85L978.31 2372.85L978.31 2486.85L879.58 2543.85L780.85 2486.85L780.85 2372.85zM978.31 2828.85L1077.04 2885.85L1077.04 2999.85L978.31 3056.85L879.58 2999.85L879.58 2885.85zM978.31 4880.85L1077.04 4937.85L1077.04 5051.85L978.31 5108.85L879.58 5051.85L879.58 4937.85zM879.58 5051.85L978.31 5108.85L978.31 5222.85L879.58 5279.85L780.85 5222.85L780.85 5108.85zM879.58 6077.85L978.31 6134.85L978.31 6248.85L879.58 6305.85L780.85 6248.85L780.85 6134.85zM978.31 8642.85L1077.04 8699.85L1077.04 8813.85L978.31 8870.85L879.58 8813.85L879.58 8699.85zM1077.04 605.85L1175.77 662.85L1175.77 776.85L1077.04 833.85L978.31 776.85L978.31 662.85zM1175.77 1460.85L1274.5 1517.85L1274.5 1631.85L1175.77 1688.85L1077.04 1631.85L1077.04 1517.85zM1077.04 1973.85L1175.77 2030.85L1175.77 2144.85L1077.04 2201.85L978.31 2144.85L978.31 2030.85zM1175.77 2486.85L1274.5 2543.85L1274.5 2657.85L1175.77 2714.85L1077.04 2657.85L1077.04 2543.85zM1077.04 3341.85L1175.77 3398.85L1175.77 3512.85L1077.04 3569.85L978.31 3512.85L978.31 3398.85zM1077.04 4025.85L1175.77 4082.85L1175.77 4196.85L1077.04 4253.85L978.31 4196.85L978.31 4082.85zM1077.04 5051.85L1175.77 5108.85L1175.77 5222.85L1077.04 5279.85L978.31 5222.85L978.31 5108.85zM1175.77 5222.85L1274.5 5279.85L1274.5 5393.85L1175.77 5450.85L1077.04 5393.85L1077.04 5279.85zM1175.77 7274.85L1274.5 7331.85L1274.5 7445.85L1175.77 7502.85L1077.04 7445.85L1077.04 7331.85zM1175.77 7616.85L1274.5 7673.85L1274.5 7787.85L1175.77 7844.85L1077.04 7787.85L1077.04 7673.85zM1175.77 8642.85L1274.5 8699.85L1274.5 8813.85L1175.77 8870.85L1077.04 8813.85L1077.04 8699.85zM1175.77 8984.85L1274.5 9041.85L1274.5 9155.85L1175.77 9212.85L1077.04 9155.85L1077.04 9041.85zM1274.5 947.85L1373.23 1004.85L1373.23 1118.85L1274.5 1175.85L1175.77 1118.85L1175.77 1004.85zM1373.23 1118.85L1471.96 1175.85L1471.96 1289.85L1373.23 1346.85L1274.5 1289.85L1274.5 1175.85zM1274.5 4367.85L1373.23 4424.85L1373.23 4538.85L1274.5 4595.85L1175.77 4538.85L1175.77 4424.85zM1274.5 8813.85L1373.23 8870.85L1373.23 8984.85L1274.5 9041.85L1175.77 8984.85L1175.77 8870.85zM1471.96 -78.15L1570.69 -21.15L1570.69 92.85L1471.96 149.85L1373.23 92.85L1373.23 -21.15zM1570.69 92.85L1669.42 149.85L1669.42 263.85L1570.69 320.85L1471.96 263.85L1471.96 149.85zM1570.69 1460.85L1669.42 1517.85L1669.42 1631.85L1570.69 1688.85L1471.96 1631.85L1471.96 1517.85zM1471.96 1973.85L1570.69 2030.85L1570.69 2144.85L1471.96 2201.85L1373.23 2144.85L1373.23 2030.85zM1471.96 2657.85L1570.69 2714.85L1570.69 2828.85L1471.96 2885.85L1373.23 2828.85L1373.23 2714.85zM1570.69 3170.85L1669.42 3227.85L1669.42 3341.85L1570.69 3398.85L1471.96 3341.85L1471.96 3227.85zM1471.96 4709.85L1570.69 4766.85L1570.69 4880.85L1471.96 4937.85L1373.23 4880.85L1373.23 4766.85zM1570.69 5222.85L1669.42 5279.85L1669.42 5393.85L1570.69 5450.85L1471.96 5393.85L1471.96 5279.85zM1570.69 5564.85L1669.42 5621.85L1669.42 5735.85L1570.69 5792.85L1471.96 5735.85L1471.96 5621.85zM1471.96 5735.85L1570.69 5792.85L1570.69 5906.85L1471.96 5963.85L1373.23 5906.85L1373.23 5792.85zM1570.69 7616.85L1669.42 7673.85L1669.42 7787.85L1570.69 7844.85L1471.96 7787.85L1471.96 7673.85zM1471.96 8471.85L1570.69 8528.85L1570.69 8642.85L1471.96 8699.85L1373.23 8642.85L1373.23 8528.85zM1570.69 8642.85L1669.42 8699.85L1669.42 8813.85L1570.69 8870.85L1471.96 8813.85L1471.96 8699.85zM1669.42 2315.85L1768.14 2372.85L1768.14 2486.85L1669.42 2543.85L1570.69 2486.85L1570.69 2372.85zM1768.14 2828.85L1866.87 2885.85L1866.87 2999.85L1768.14 3056.85L1669.42 2999.85L1669.42 2885.85zM1669.42 3341.85L1768.14 3398.85L1768.14 3512.85L1669.42 3569.85L1570.69 3512.85L1570.69 3398.85zM1669.42 4367.85L1768.14 4424.85L1768.14 4538.85L1669.42 4595.85L1570.69 4538.85L1570.69 4424.85zM1669.42 5393.85L1768.14 5450.85L1768.14 5564.85L1669.42 5621.85L1570.69 5564.85L1570.69 5450.85zM1669.42 5735.85L1768.14 5792.85L1768.14 5906.85L1669.42 5963.85L1570.69 5906.85L1570.69 5792.85zM1669.42 6077.85L1768.14 6134.85L1768.14 6248.85L1669.42 6305.85L1570.69 6248.85L1570.69 6134.85zM1768.14 6248.85L1866.87 6305.85L1866.87 6419.85L1768.14 6476.85L1669.42 6419.85L1669.42 6305.85zM1768.14 6590.85L1866.87 6647.85L1866.87 6761.85L1768.14 6818.85L1669.42 6761.85L1669.42 6647.85zM1669.42 7103.85L1768.14 7160.85L1768.14 7274.85L1669.42 7331.85L1570.69 7274.85L1570.69 7160.85zM1669.42 7787.85L1768.14 7844.85L1768.14 7958.85L1669.42 8015.85L1570.69 7958.85L1570.69 7844.85zM1768.14 8300.85L1866.87 8357.85L1866.87 8471.85L1768.14 8528.85L1669.42 8471.85L1669.42 8357.85zM1669.42 9155.85L1768.14 9212.85L1768.14 9326.85L1669.42 9383.85L1570.69 9326.85L1570.69 9212.85zM1866.87 605.85L1965.6 662.85L1965.6 776.85L1866.87 833.85L1768.14 776.85L1768.14 662.85zM1965.6 2486.85L2064.33 2543.85L2064.33 2657.85L1965.6 2714.85L1866.87 2657.85L1866.87 2543.85zM1965.6 4196.85L2064.33 4253.85L2064.33 4367.85L1965.6 4424.85L1866.87 4367.85L1866.87 4253.85zM1965.6 5906.85L2064.33 5963.85L2064.33 6077.85L1965.6 6134.85L1866.87 6077.85L1866.87 5963.85zM1866.87 6077.85L1965.6 6134.85L1965.6 6248.85L1866.87 6305.85L1768.14 6248.85L1768.14 6134.85zM1965.6 6932.85L2064.33 6989.85L2064.33 7103.85L1965.6 7160.85L1866.87 7103.85L1866.87 6989.85zM1866.87 7103.85L1965.6 7160.85L1965.6 7274.85L1866.87 7331.85L1768.14 7274.85L1768.14 7160.85zM1866.87 7787.85L1965.6 7844.85L1965.6 7958.85L1866.87 8015.85L1768.14 7958.85L1768.14 7844.85zM1965.6 7958.85L2064.33 8015.85L2064.33 8129.85L1965.6 8186.85L1866.87 8129.85L1866.87 8015.85zM1965.6 8642.85L2064.33 8699.85L2064.33 8813.85L1965.6 8870.85L1866.87 8813.85L1866.87 8699.85zM2064.33 263.85L2163.06 320.85L2163.06 434.85L2064.33 491.85L1965.6 434.85L1965.6 320.85zM2163.06 1802.85L2261.79 1859.85L2261.79 1973.85L2163.06 2030.85L2064.33 1973.85L2064.33 1859.85zM2163.06 2828.85L2261.79 2885.85L2261.79 2999.85L2163.06 3056.85L2064.33 2999.85L2064.33 2885.85zM2064.33 4709.85L2163.06 4766.85L2163.06 4880.85L2064.33 4937.85L1965.6 4880.85L1965.6 4766.85zM2163.06 4880.85L2261.79 4937.85L2261.79 5051.85L2163.06 5108.85L2064.33 5051.85L2064.33 4937.85zM2064.33 5051.85L2163.06 5108.85L2163.06 5222.85L2064.33 5279.85L1965.6 5222.85L1965.6 5108.85zM2163.06 6932.85L2261.79 6989.85L2261.79 7103.85L2163.06 7160.85L2064.33 7103.85L2064.33 6989.85zM2064.33 8129.85L2163.06 8186.85L2163.06 8300.85L2064.33 8357.85L1965.6 8300.85L1965.6 8186.85zM2261.79 263.85L2360.52 320.85L2360.52 434.85L2261.79 491.85L2163.06 434.85L2163.06 320.85zM2360.52 1460.85L2459.25 1517.85L2459.25 1631.85L2360.52 1688.85L2261.79 1631.85L2261.79 1517.85zM2261.79 1973.85L2360.52 2030.85L2360.52 2144.85L2261.79 2201.85L2163.06 2144.85L2163.06 2030.85zM2360.52 2486.85L2459.25 2543.85L2459.25 2657.85L2360.52 2714.85L2261.79 2657.85L2261.79 2543.85zM2360.52 2828.85L2459.25 2885.85L2459.25 2999.85L2360.52 3056.85L2261.79 2999.85L2261.79 2885.85zM2360.52 4196.85L2459.25 4253.85L2459.25 4367.85L2360.52 4424.85L2261.79 4367.85L2261.79 4253.85zM2261.79 4367.85L2360.52 4424.85L2360.52 4538.85L2261.79 4595.85L2163.06 4538.85L2163.06 4424.85zM2360.52 4880.85L2459.25 4937.85L2459.25 5051.85L2360.52 5108.85L2261.79 5051.85L2261.79 4937.85zM2459.25 -78.15L2557.98 -21.15L2557.98 92.85L2459.25 149.85L2360.52 92.85L2360.52 -21.15zM2459.25 3341.85L2557.98 3398.85L2557.98 3512.85L2459.25 3569.85L2360.52 3512.85L2360.52 3398.85zM2557.98 3854.85L2656.71 3911.85L2656.71 4025.85L2557.98 4082.85L2459.25 4025.85L2459.25 3911.85zM2459.25 5051.85L2557.98 5108.85L2557.98 5222.85L2459.25 5279.85L2360.52 5222.85L2360.52 5108.85zM2656.71 947.85L2755.44 1004.85L2755.44 1118.85L2656.71 1175.85L2557.98 1118.85L2557.98 1004.85zM2656.71 1289.85L2755.44 1346.85L2755.44 1460.85L2656.71 1517.85L2557.98 1460.85L2557.98 1346.85zM2755.44 1460.85L2854.17 1517.85L2854.17 1631.85L2755.44 1688.85L2656.71 1631.85L2656.71 1517.85zM2656.71 1631.85L2755.44 1688.85L2755.44 1802.85L2656.71 1859.85L2557.98 1802.85L2557.98 1688.85zM2656.71 3341.85L2755.44 3398.85L2755.44 3512.85L2656.71 3569.85L2557.98 3512.85L2557.98 3398.85zM2755.44 3512.85L2854.17 3569.85L2854.17 3683.85L2755.44 3740.85L2656.71 3683.85L2656.71 3569.85zM2755.44 4880.85L2854.17 4937.85L2854.17 5051.85L2755.44 5108.85L2656.71 5051.85L2656.71 4937.85zM2656.71 5051.85L2755.44 5108.85L2755.44 5222.85L2656.71 5279.85L2557.98 5222.85L2557.98 5108.85zM2656.71 5393.85L2755.44 5450.85L2755.44 5564.85L2656.71 5621.85L2557.98 5564.85L2557.98 5450.85zM2755.44 5906.85L2854.17 5963.85L2854.17 6077.85L2755.44 6134.85L2656.71 6077.85L2656.71 5963.85zM2656.71 6761.85L2755.44 6818.85L2755.44 6932.85L2656.71 6989.85L2557.98 6932.85L2557.98 6818.85zM2755.44 7616.85L2854.17 7673.85L2854.17 7787.85L2755.44 7844.85L2656.71 7787.85L2656.71 7673.85zM2755.44 8642.85L2854.17 8699.85L2854.17 8813.85L2755.44 8870.85L2656.71 8813.85L2656.71 8699.85zM2656.71 9155.85L2755.44 9212.85L2755.44 9326.85L2656.71 9383.85L2557.98 9326.85L2557.98 9212.85zM2854.17 2315.85L2952.9 2372.85L2952.9 2486.85L2854.17 2543.85L2755.44 2486.85L2755.44 2372.85zM2854.17 2999.85L2952.9 3056.85L2952.9 3170.85L2854.17 3227.85L2755.44 3170.85L2755.44 3056.85zM2952.9 3170.85L3051.63 3227.85L3051.63 3341.85L2952.9 3398.85L2854.17 3341.85L2854.17 3227.85zM2952.9 3854.85L3051.63 3911.85L3051.63 4025.85L2952.9 4082.85L2854.17 4025.85L2854.17 3911.85zM2952.9 5906.85L3051.63 5963.85L3051.63 6077.85L2952.9 6134.85L2854.17 6077.85L2854.17 5963.85zM2854.17 8129.85L2952.9 8186.85L2952.9 8300.85L2854.17 8357.85L2755.44 8300.85L2755.44 8186.85zM2952.9 8300.85L3051.63 8357.85L3051.63 8471.85L2952.9 8528.85L2854.17 8471.85L2854.17 8357.85zM3051.63 947.85L3150.36 1004.85L3150.36 1118.85L3051.63 1175.85L2952.9 1118.85L2952.9 1004.85zM3150.36 3170.85L3249.09 3227.85L3249.09 3341.85L3150.36 3398.85L3051.63 3341.85L3051.63 3227.85zM3051.63 4709.85L3150.36 4766.85L3150.36 4880.85L3051.63 4937.85L2952.9 4880.85L2952.9 4766.85zM3051.63 7445.85L3150.36 7502.85L3150.36 7616.85L3051.63 7673.85L2952.9 7616.85L2952.9 7502.85zM3150.36 8300.85L3249.09 8357.85L3249.09 8471.85L3150.36 8528.85L3051.63 8471.85L3051.63 8357.85zM3249.09 947.85L3347.82 1004.85L3347.82 1118.85L3249.09 1175.85L3150.36 1118.85L3150.36 1004.85zM3249.09 1289.85L3347.82 1346.85L3347.82 1460.85L3249.09 1517.85L3150.36 1460.85L3150.36 1346.85zM3347.82 2144.85L3446.55 2201.85L3446.55 2315.85L3347.82 2372.85L3249.09 2315.85L3249.09 2201.85zM3249.09 3341.85L3347.82 3398.85L3347.82 3512.85L3249.09 3569.85L3150.36 3512.85L3150.36 3398.85zM3249.09 4025.85L3347.82 4082.85L3347.82 4196.85L3249.09 4253.85L3150.36 4196.85L3150.36 4082.85zM3347.82 4196.85L3446.55 4253.85L3446.55 4367.85L3347.82 4424.85L3249.09 4367.85L3249.09 4253.85zM3249.09 6077.85L3347.82 6134.85L3347.82 6248.85L3249.09 6305.85L3150.36 6248.85L3150.36 6134.85zM3249.09 6419.85L3347.82 6476.85L3347.82 6590.85L3249.09 6647.85L3150.36 6590.85L3150.36 6476.85zM3347.82 6590.85L3446.55 6647.85L3446.55 6761.85L3347.82 6818.85L3249.09 6761.85L3249.09 6647.85zM3347.82 7616.85L3446.55 7673.85L3446.55 7787.85L3347.82 7844.85L3249.09 7787.85L3249.09 7673.85zM3347.82 8984.85L3446.55 9041.85L3446.55 9155.85L3347.82 9212.85L3249.09 9155.85L3249.09 9041.85zM3545.28 92.85L3644.01 149.85L3644.01 263.85L3545.28 320.85L3446.55 263.85L3446.55 149.85zM3446.55 947.85L3545.28 1004.85L3545.28 1118.85L3446.55 1175.85L3347.82 1118.85L3347.82 1004.85zM3446.55 1973.85L3545.28 2030.85L3545.28 2144.85L3446.55 2201.85L3347.82 2144.85L3347.82 2030.85zM3545.28 2144.85L3644.01 2201.85L3644.01 2315.85L3545.28 2372.85L3446.55 2315.85L3446.55 2201.85zM3446.55 3683.85L3545.28 3740.85L3545.28 3854.85L3446.55 3911.85L3347.82 3854.85L3347.82 3740.85zM3446.55 4709.85L3545.28 4766.85L3545.28 4880.85L3446.55 4937.85L3347.82 4880.85L3347.82 4766.85zM3446.55 7445.85L3545.28 7502.85L3545.28 7616.85L3446.55 7673.85L3347.82 7616.85L3347.82 7502.85zM3446.55 9155.85L3545.28 9212.85L3545.28 9326.85L3446.55 9383.85L3347.82 9326.85L3347.82 9212.85zM3644.01 1973.85L3742.74 2030.85L3742.74 2144.85L3644.01 2201.85L3545.28 2144.85L3545.28 2030.85zM3742.74 2486.85L3841.47 2543.85L3841.47 2657.85L3742.74 2714.85L3644.01 2657.85L3644.01 2543.85zM3742.74 2828.85L3841.47 2885.85L3841.47 2999.85L3742.74 3056.85L3644.01 2999.85L3644.01 2885.85zM3644.01 4709.85L3742.74 4766.85L3742.74 4880.85L3644.01 4937.85L3545.28 4880.85L3545.28 4766.85zM3742.74 5906.85L3841.47 5963.85L3841.47 6077.85L3742.74 6134.85L3644.01 6077.85L3644.01 5963.85zM3644.01 8471.85L3742.74 8528.85L3742.74 8642.85L3644.01 8699.85L3545.28 8642.85L3545.28 8528.85zM3841.47 4025.85L3940.2 4082.85L3940.2 4196.85L3841.47 4253.85L3742.74 4196.85L3742.74 4082.85zM3841.47 4367.85L3940.2 4424.85L3940.2 4538.85L3841.47 4595.85L3742.74 4538.85L3742.74 4424.85zM3841.47 6761.85L3940.2 6818.85L3940.2 6932.85L3841.47 6989.85L3742.74 6932.85L3742.74 6818.85zM3940.2 6932.85L4038.93 6989.85L4038.93 7103.85L3940.2 7160.85L3841.47 7103.85L3841.47 6989.85zM3940.2 7616.85L4038.93 7673.85L4038.93 7787.85L3940.2 7844.85L3841.47 7787.85L3841.47 7673.85zM3841.47 8129.85L3940.2 8186.85L3940.2 8300.85L3841.47 8357.85L3742.74 8300.85L3742.74 8186.85zM3940.2 8642.85L4038.93 8699.85L4038.93 8813.85L3940.2 8870.85L3841.47 8813.85L3841.47 8699.85zM4137.66 1460.85L4236.39 1517.85L4236.39 1631.85L4137.66 1688.85L4038.93 1631.85L4038.93 1517.85zM4038.93 2657.85L4137.66 2714.85L4137.66 2828.85L4038.93 2885.85L3940.2 2828.85L3940.2 2714.85zM4137.66 4538.85L4236.39 4595.85L4236.39 4709.85L4137.66 4766.85L4038.93 4709.85L4038.93 4595.85zM4038.93 5051.85L4137.66 5108.85L4137.66 5222.85L4038.93 5279.85L3940.2 5222.85L3940.2 5108.85zM4137.66 6248.85L4236.39 6305.85L4236.39 6419.85L4137.66 6476.85L4038.93 6419.85L4038.93 6305.85zM4137.66 7274.85L4236.39 7331.85L4236.39 7445.85L4137.66 7502.85L4038.93 7445.85L4038.93 7331.85zM4038.93 8129.85L4137.66 8186.85L4137.66 8300.85L4038.93 8357.85L3940.2 8300.85L3940.2 8186.85zM4038.93 8471.85L4137.66 8528.85L4137.66 8642.85L4038.93 8699.85L3940.2 8642.85L3940.2 8528.85zM4038.93 8813.85L4137.66 8870.85L4137.66 8984.85L4038.93 9041.85L3940.2 8984.85L3940.2 8870.85z" stroke="rgba(74, 92, 102, 1)" stroke-width="2"></path>
        <path d="M101.63 -121.85L231.54 -46.85L231.54 103.15L101.63 178.15L-28.28 103.15L-28.28 -46.85zM101.63 778.15L231.54 853.15L231.54 1003.15L101.63 1078.15L-28.28 1003.15L-28.28 853.15zM231.54 1003.15L361.44 1078.15L361.44 1228.15L231.54 1303.15L101.63 1228.15L101.63 1078.15zM101.63 1228.15L231.54 1303.15L231.54 1453.15L101.63 1528.15L-28.28 1453.15L-28.28 1303.15zM231.54 1453.15L361.44 1528.15L361.44 1678.15L231.54 1753.15L101.63 1678.15L101.63 1528.15zM101.63 1678.15L231.54 1753.15L231.54 1903.15L101.63 1978.15L-28.28 1903.15L-28.28 1753.15zM101.63 2578.15L231.54 2653.15L231.54 2803.15L101.63 2878.15L-28.28 2803.15L-28.28 2653.15zM101.63 3478.15L231.54 3553.15L231.54 3703.15L101.63 3778.15L-28.28 3703.15L-28.28 3553.15zM231.54 3703.15L361.44 3778.15L361.44 3928.15L231.54 4003.15L101.63 3928.15L101.63 3778.15zM231.54 4603.15L361.44 4678.15L361.44 4828.15L231.54 4903.15L101.63 4828.15L101.63 4678.15zM101.63 4828.15L231.54 4903.15L231.54 5053.15L101.63 5128.15L-28.28 5053.15L-28.28 4903.15zM101.63 5278.15L231.54 5353.15L231.54 5503.15L101.63 5578.15L-28.28 5503.15L-28.28 5353.15zM231.54 5503.15L361.44 5578.15L361.44 5728.15L231.54 5803.15L101.63 5728.15L101.63 5578.15zM231.54 5953.15L361.44 6028.15L361.44 6178.15L231.54 6253.15L101.63 6178.15L101.63 6028.15zM101.63 6178.15L231.54 6253.15L231.54 6403.15L101.63 6478.15L-28.28 6403.15L-28.28 6253.15zM231.54 6403.15L361.44 6478.15L361.44 6628.15L231.54 6703.15L101.63 6628.15L101.63 6478.15zM101.63 7528.15L231.54 7603.15L231.54 7753.15L101.63 7828.15L-28.28 7753.15L-28.28 7603.15zM231.54 7753.15L361.44 7828.15L361.44 7978.15L231.54 8053.15L101.63 7978.15L101.63 7828.15zM231.54 9103.15L361.44 9178.15L361.44 9328.15L231.54 9403.15L101.63 9328.15L101.63 9178.15zM361.44 -121.85L491.35 -46.85L491.35 103.15L361.44 178.15L231.54 103.15L231.54 -46.85zM491.35 103.15L621.26 178.15L621.26 328.15L491.35 403.15L361.44 328.15L361.44 178.15zM491.35 1903.15L621.26 1978.15L621.26 2128.15L491.35 2203.15L361.44 2128.15L361.44 1978.15zM361.44 2128.15L491.35 2203.15L491.35 2353.15L361.44 2428.15L231.54 2353.15L231.54 2203.15zM491.35 3253.15L621.26 3328.15L621.26 3478.15L491.35 3553.15L361.44 3478.15L361.44 3328.15zM361.44 3928.15L491.35 4003.15L491.35 4153.15L361.44 4228.15L231.54 4153.15L231.54 4003.15zM361.44 4378.15L491.35 4453.15L491.35 4603.15L361.44 4678.15L231.54 4603.15L231.54 4453.15zM361.44 4828.15L491.35 4903.15L491.35 5053.15L361.44 5128.15L231.54 5053.15L231.54 4903.15zM361.44 5278.15L491.35 5353.15L491.35 5503.15L361.44 5578.15L231.54 5503.15L231.54 5353.15zM361.44 5728.15L491.35 5803.15L491.35 5953.15L361.44 6028.15L231.54 5953.15L231.54 5803.15zM361.44 6178.15L491.35 6253.15L491.35 6403.15L361.44 6478.15L231.54 6403.15L231.54 6253.15zM491.35 6403.15L621.26 6478.15L621.26 6628.15L491.35 6703.15L361.44 6628.15L361.44 6478.15zM361.44 7078.15L491.35 7153.15L491.35 7303.15L361.44 7378.15L231.54 7303.15L231.54 7153.15zM491.35 7753.15L621.26 7828.15L621.26 7978.15L491.35 8053.15L361.44 7978.15L361.44 7828.15zM361.44 8428.15L491.35 8503.15L491.35 8653.15L361.44 8728.15L231.54 8653.15L231.54 8503.15zM621.26 778.15L751.17 853.15L751.17 1003.15L621.26 1078.15L491.35 1003.15L491.35 853.15zM621.26 1228.15L751.17 1303.15L751.17 1453.15L621.26 1528.15L491.35 1453.15L491.35 1303.15zM621.26 2578.15L751.17 2653.15L751.17 2803.15L621.26 2878.15L491.35 2803.15L491.35 2653.15zM751.17 2803.15L881.08 2878.15L881.08 3028.15L751.17 3103.15L621.26 3028.15L621.26 2878.15zM621.26 3028.15L751.17 3103.15L751.17 3253.15L621.26 3328.15L491.35 3253.15L491.35 3103.15zM751.17 3253.15L881.08 3328.15L881.08 3478.15L751.17 3553.15L621.26 3478.15L621.26 3328.15zM621.26 3478.15L751.17 3553.15L751.17 3703.15L621.26 3778.15L491.35 3703.15L491.35 3553.15zM751.17 4153.15L881.08 4228.15L881.08 4378.15L751.17 4453.15L621.26 4378.15L621.26 4228.15zM751.17 4603.15L881.08 4678.15L881.08 4828.15L751.17 4903.15L621.26 4828.15L621.26 4678.15zM621.26 5278.15L751.17 5353.15L751.17 5503.15L621.26 5578.15L491.35 5503.15L491.35 5353.15zM621.26 6628.15L751.17 6703.15L751.17 6853.15L621.26 6928.15L491.35 6853.15L491.35 6703.15zM621.26 8878.15L751.17 8953.15L751.17 9103.15L621.26 9178.15L491.35 9103.15L491.35 8953.15zM881.07 -121.85L1010.98 -46.85L1010.98 103.15L881.07 178.15L751.17 103.15L751.17 -46.85zM881.07 328.15L1010.98 403.15L1010.98 553.15L881.07 628.15L751.17 553.15L751.17 403.15zM881.07 778.15L1010.98 853.15L1010.98 1003.15L881.07 1078.15L751.17 1003.15L751.17 853.15zM881.07 1678.15L1010.98 1753.15L1010.98 1903.15L881.07 1978.15L751.17 1903.15L751.17 1753.15zM881.07 2578.15L1010.98 2653.15L1010.98 2803.15L881.07 2878.15L751.17 2803.15L751.17 2653.15zM1010.98 3253.15L1140.89 3328.15L1140.89 3478.15L1010.98 3553.15L881.07 3478.15L881.07 3328.15zM881.07 3478.15L1010.98 3553.15L1010.98 3703.15L881.07 3778.15L751.17 3703.15L751.17 3553.15zM881.07 3928.15L1010.98 4003.15L1010.98 4153.15L881.07 4228.15L751.17 4153.15L751.17 4003.15zM1010.98 4603.15L1140.89 4678.15L1140.89 4828.15L1010.98 4903.15L881.07 4828.15L881.07 4678.15zM1010.98 5053.15L1140.89 5128.15L1140.89 5278.15L1010.98 5353.15L881.07 5278.15L881.07 5128.15zM881.07 5728.15L1010.98 5803.15L1010.98 5953.15L881.07 6028.15L751.17 5953.15L751.17 5803.15zM1010.98 5953.15L1140.89 6028.15L1140.89 6178.15L1010.98 6253.15L881.07 6178.15L881.07 6028.15zM1010.98 6403.15L1140.89 6478.15L1140.89 6628.15L1010.98 6703.15L881.07 6628.15L881.07 6478.15zM1010.98 7303.15L1140.89 7378.15L1140.89 7528.15L1010.98 7603.15L881.07 7528.15L881.07 7378.15zM881.07 7528.15L1010.98 7603.15L1010.98 7753.15L881.07 7828.15L751.17 7753.15L751.17 7603.15zM881.07 7978.15L1010.98 8053.15L1010.98 8203.15L881.07 8278.15L751.17 8203.15L751.17 8053.15zM1010.98 8653.15L1140.89 8728.15L1140.89 8878.15L1010.98 8953.15L881.07 8878.15L881.07 8728.15zM881.07 8878.15L1010.98 8953.15L1010.98 9103.15L881.07 9178.15L751.17 9103.15L751.17 8953.15zM1140.89 328.15L1270.8 403.15L1270.8 553.15L1140.89 628.15L1010.98 553.15L1010.98 403.15zM1270.8 553.15L1400.7 628.15L1400.7 778.15L1270.8 853.15L1140.89 778.15L1140.89 628.15zM1140.89 778.15L1270.8 853.15L1270.8 1003.15L1140.89 1078.15L1010.98 1003.15L1010.98 853.15zM1270.8 1003.15L1400.7 1078.15L1400.7 1228.15L1270.8 1303.15L1140.89 1228.15L1140.89 1078.15zM1270.8 1903.15L1400.7 1978.15L1400.7 2128.15L1270.8 2203.15L1140.89 2128.15L1140.89 1978.15zM1270.8 2353.15L1400.7 2428.15L1400.7 2578.15L1270.8 2653.15L1140.89 2578.15L1140.89 2428.15zM1140.89 3478.15L1270.8 3553.15L1270.8 3703.15L1140.89 3778.15L1010.98 3703.15L1010.98 3553.15zM1270.8 3703.15L1400.7 3778.15L1400.7 3928.15L1270.8 4003.15L1140.89 3928.15L1140.89 3778.15zM1270.8 4603.15L1400.7 4678.15L1400.7 4828.15L1270.8 4903.15L1140.89 4828.15L1140.89 4678.15zM1140.89 5278.15L1270.8 5353.15L1270.8 5503.15L1140.89 5578.15L1010.98 5503.15L1010.98 5353.15zM1140.89 5728.15L1270.8 5803.15L1270.8 5953.15L1140.89 6028.15L1010.98 5953.15L1010.98 5803.15zM1270.8 8203.15L1400.7 8278.15L1400.7 8428.15L1270.8 8503.15L1140.89 8428.15L1140.89 8278.15zM1140.89 8428.15L1270.8 8503.15L1270.8 8653.15L1140.89 8728.15L1010.98 8653.15L1010.98 8503.15zM1400.7 -121.85L1530.61 -46.85L1530.61 103.15L1400.7 178.15L1270.8 103.15L1270.8 -46.85zM1400.7 778.15L1530.61 853.15L1530.61 1003.15L1400.7 1078.15L1270.8 1003.15L1270.8 853.15zM1400.7 2578.15L1530.61 2653.15L1530.61 2803.15L1400.7 2878.15L1270.8 2803.15L1270.8 2653.15zM1530.61 2803.15L1660.52 2878.15L1660.52 3028.15L1530.61 3103.15L1400.7 3028.15L1400.7 2878.15zM1400.7 3028.15L1530.61 3103.15L1530.61 3253.15L1400.7 3328.15L1270.8 3253.15L1270.8 3103.15zM1530.61 4603.15L1660.52 4678.15L1660.52 4828.15L1530.61 4903.15L1400.7 4828.15L1400.7 4678.15zM1400.7 5728.15L1530.61 5803.15L1530.61 5953.15L1400.7 6028.15L1270.8 5953.15L1270.8 5803.15zM1400.7 6178.15L1530.61 6253.15L1530.61 6403.15L1400.7 6478.15L1270.8 6403.15L1270.8 6253.15zM1530.61 7303.15L1660.52 7378.15L1660.52 7528.15L1530.61 7603.15L1400.7 7528.15L1400.7 7378.15zM1400.7 7978.15L1530.61 8053.15L1530.61 8203.15L1400.7 8278.15L1270.8 8203.15L1270.8 8053.15zM1530.61 8203.15L1660.52 8278.15L1660.52 8428.15L1530.61 8503.15L1400.7 8428.15L1400.7 8278.15zM1530.61 8653.15L1660.52 8728.15L1660.52 8878.15L1530.61 8953.15L1400.7 8878.15L1400.7 8728.15zM1530.61 9103.15L1660.52 9178.15L1660.52 9328.15L1530.61 9403.15L1400.7 9328.15L1400.7 9178.15zM1660.52 778.15L1790.43 853.15L1790.43 1003.15L1660.52 1078.15L1530.61 1003.15L1530.61 853.15zM1790.43 1903.15L1920.34 1978.15L1920.34 2128.15L1790.43 2203.15L1660.52 2128.15L1660.52 1978.15zM1790.43 2353.15L1920.34 2428.15L1920.34 2578.15L1790.43 2653.15L1660.52 2578.15L1660.52 2428.15zM1660.52 2578.15L1790.43 2653.15L1790.43 2803.15L1660.52 2878.15L1530.61 2803.15L1530.61 2653.15zM1790.43 3253.15L1920.34 3328.15L1920.34 3478.15L1790.43 3553.15L1660.52 3478.15L1660.52 3328.15zM1790.43 3703.15L1920.34 3778.15L1920.34 3928.15L1790.43 4003.15L1660.52 3928.15L1660.52 3778.15zM1790.43 5053.15L1920.34 5128.15L1920.34 5278.15L1790.43 5353.15L1660.52 5278.15L1660.52 5128.15zM1660.52 5278.15L1790.43 5353.15L1790.43 5503.15L1660.52 5578.15L1530.61 5503.15L1530.61 5353.15zM1790.43 5953.15L1920.34 6028.15L1920.34 6178.15L1790.43 6253.15L1660.52 6178.15L1660.52 6028.15zM1790.43 6853.15L1920.34 6928.15L1920.34 7078.15L1790.43 7153.15L1660.52 7078.15L1660.52 6928.15zM1790.43 7753.15L1920.34 7828.15L1920.34 7978.15L1790.43 8053.15L1660.52 7978.15L1660.52 7828.15zM1790.43 8203.15L1920.34 8278.15L1920.34 8428.15L1790.43 8503.15L1660.52 8428.15L1660.52 8278.15zM1790.43 8653.15L1920.34 8728.15L1920.34 8878.15L1790.43 8953.15L1660.52 8878.15L1660.52 8728.15zM1920.34 -121.85L2050.24 -46.85L2050.24 103.15L1920.34 178.15L1790.43 103.15L1790.43 -46.85zM1920.34 328.15L2050.24 403.15L2050.24 553.15L1920.34 628.15L1790.43 553.15L1790.43 403.15zM2050.24 553.15L2180.15 628.15L2180.15 778.15L2050.24 853.15L1920.34 778.15L1920.34 628.15zM1920.34 778.15L2050.24 853.15L2050.24 1003.15L1920.34 1078.15L1790.43 1003.15L1790.43 853.15zM1920.34 1678.15L2050.24 1753.15L2050.24 1903.15L1920.34 1978.15L1790.43 1903.15L1790.43 1753.15zM2050.24 3703.15L2180.15 3778.15L2180.15 3928.15L2050.24 4003.15L1920.34 3928.15L1920.34 3778.15zM1920.34 5728.15L2050.24 5803.15L2050.24 5953.15L1920.34 6028.15L1790.43 5953.15L1790.43 5803.15zM2050.24 6403.15L2180.15 6478.15L2180.15 6628.15L2050.24 6703.15L1920.34 6628.15L1920.34 6478.15zM1920.34 7528.15L2050.24 7603.15L2050.24 7753.15L1920.34 7828.15L1790.43 7753.15L1790.43 7603.15zM1920.34 8428.15L2050.24 8503.15L2050.24 8653.15L1920.34 8728.15L1790.43 8653.15L1790.43 8503.15zM1920.34 8878.15L2050.24 8953.15L2050.24 9103.15L1920.34 9178.15L1790.43 9103.15L1790.43 8953.15zM2050.24 9103.15L2180.15 9178.15L2180.15 9328.15L2050.24 9403.15L1920.34 9328.15L1920.34 9178.15zM2180.15 328.15L2310.06 403.15L2310.06 553.15L2180.15 628.15L2050.24 553.15L2050.24 403.15zM2180.15 2128.15L2310.06 2203.15L2310.06 2353.15L2180.15 2428.15L2050.24 2353.15L2050.24 2203.15zM2180.15 2578.15L2310.06 2653.15L2310.06 2803.15L2180.15 2878.15L2050.24 2803.15L2050.24 2653.15zM2180.15 3028.15L2310.06 3103.15L2310.06 3253.15L2180.15 3328.15L2050.24 3253.15L2050.24 3103.15zM2310.06 3253.15L2439.96 3328.15L2439.96 3478.15L2310.06 3553.15L2180.15 3478.15L2180.15 3328.15zM2180.15 4828.15L2310.06 4903.15L2310.06 5053.15L2180.15 5128.15L2050.24 5053.15L2050.24 4903.15zM2180.15 5278.15L2310.06 5353.15L2310.06 5503.15L2180.15 5578.15L2050.24 5503.15L2050.24 5353.15zM2310.06 5503.15L2439.96 5578.15L2439.96 5728.15L2310.06 5803.15L2180.15 5728.15L2180.15 5578.15zM2310.06 5953.15L2439.96 6028.15L2439.96 6178.15L2310.06 6253.15L2180.15 6178.15L2180.15 6028.15zM2310.06 7753.15L2439.96 7828.15L2439.96 7978.15L2310.06 8053.15L2180.15 7978.15L2180.15 7828.15zM2310.06 8653.15L2439.96 8728.15L2439.96 8878.15L2310.06 8953.15L2180.15 8878.15L2180.15 8728.15zM2439.97 -121.85L2569.87 -46.85L2569.87 103.15L2439.97 178.15L2310.06 103.15L2310.06 -46.85zM2569.87 1003.15L2699.78 1078.15L2699.78 1228.15L2569.87 1303.15L2439.97 1228.15L2439.97 1078.15zM2439.97 3478.15L2569.87 3553.15L2569.87 3703.15L2439.97 3778.15L2310.06 3703.15L2310.06 3553.15zM2569.87 4603.15L2699.78 4678.15L2699.78 4828.15L2569.87 4903.15L2439.97 4828.15L2439.97 4678.15zM2439.97 5278.15L2569.87 5353.15L2569.87 5503.15L2439.97 5578.15L2310.06 5503.15L2310.06 5353.15zM2439.97 5728.15L2569.87 5803.15L2569.87 5953.15L2439.97 6028.15L2310.06 5953.15L2310.06 5803.15zM2569.87 5953.15L2699.78 6028.15L2699.78 6178.15L2569.87 6253.15L2439.97 6178.15L2439.97 6028.15zM2439.97 6178.15L2569.87 6253.15L2569.87 6403.15L2439.97 6478.15L2310.06 6403.15L2310.06 6253.15zM2569.87 6853.15L2699.78 6928.15L2699.78 7078.15L2569.87 7153.15L2439.97 7078.15L2439.97 6928.15zM2439.97 8428.15L2569.87 8503.15L2569.87 8653.15L2439.97 8728.15L2310.06 8653.15L2310.06 8503.15zM2569.87 8653.15L2699.78 8728.15L2699.78 8878.15L2569.87 8953.15L2439.97 8878.15L2439.97 8728.15zM2569.87 9103.15L2699.78 9178.15L2699.78 9328.15L2569.87 9403.15L2439.97 9328.15L2439.97 9178.15zM2829.69 553.15L2959.59 628.15L2959.59 778.15L2829.69 853.15L2699.78 778.15L2699.78 628.15zM2699.78 778.15L2829.69 853.15L2829.69 1003.15L2699.78 1078.15L2569.87 1003.15L2569.87 853.15zM2829.69 1003.15L2959.59 1078.15L2959.59 1228.15L2829.69 1303.15L2699.78 1228.15L2699.78 1078.15zM2829.69 1453.15L2959.59 1528.15L2959.59 1678.15L2829.69 1753.15L2699.78 1678.15L2699.78 1528.15zM2699.78 1678.15L2829.69 1753.15L2829.69 1903.15L2699.78 1978.15L2569.87 1903.15L2569.87 1753.15zM2699.78 2128.15L2829.69 2203.15L2829.69 2353.15L2699.78 2428.15L2569.87 2353.15L2569.87 2203.15zM2699.78 3028.15L2829.69 3103.15L2829.69 3253.15L2699.78 3328.15L2569.87 3253.15L2569.87 3103.15zM2699.78 3478.15L2829.69 3553.15L2829.69 3703.15L2699.78 3778.15L2569.87 3703.15L2569.87 3553.15zM2829.69 4153.15L2959.59 4228.15L2959.59 4378.15L2829.69 4453.15L2699.78 4378.15L2699.78 4228.15zM2699.78 5278.15L2829.69 5353.15L2829.69 5503.15L2699.78 5578.15L2569.87 5503.15L2569.87 5353.15zM2829.69 5503.15L2959.59 5578.15L2959.59 5728.15L2829.69 5803.15L2699.78 5728.15L2699.78 5578.15zM2699.78 5728.15L2829.69 5803.15L2829.69 5953.15L2699.78 6028.15L2569.87 5953.15L2569.87 5803.15zM2829.69 5953.15L2959.59 6028.15L2959.59 6178.15L2829.69 6253.15L2699.78 6178.15L2699.78 6028.15zM2829.69 6403.15L2959.59 6478.15L2959.59 6628.15L2829.69 6703.15L2699.78 6628.15L2699.78 6478.15zM2699.78 6628.15L2829.69 6703.15L2829.69 6853.15L2699.78 6928.15L2569.87 6853.15L2569.87 6703.15zM2699.78 7528.15L2829.69 7603.15L2829.69 7753.15L2699.78 7828.15L2569.87 7753.15L2569.87 7603.15zM2829.69 7753.15L2959.59 7828.15L2959.59 7978.15L2829.69 8053.15L2699.78 7978.15L2699.78 7828.15zM2829.69 9103.15L2959.59 9178.15L2959.59 9328.15L2829.69 9403.15L2699.78 9328.15L2699.78 9178.15zM2959.6 -121.85L3089.5 -46.85L3089.5 103.15L2959.6 178.15L2829.69 103.15L2829.69 -46.85zM2959.6 328.15L3089.5 403.15L3089.5 553.15L2959.6 628.15L2829.69 553.15L2829.69 403.15zM3089.5 1003.15L3219.41 1078.15L3219.41 1228.15L3089.5 1303.15L2959.6 1228.15L2959.6 1078.15zM3089.5 1903.15L3219.41 1978.15L3219.41 2128.15L3089.5 2203.15L2959.6 2128.15L2959.6 1978.15zM3089.5 3703.15L3219.41 3778.15L3219.41 3928.15L3089.5 4003.15L2959.6 3928.15L2959.6 3778.15zM3089.5 4603.15L3219.41 4678.15L3219.41 4828.15L3089.5 4903.15L2959.6 4828.15L2959.6 4678.15zM2959.6 4828.15L3089.5 4903.15L3089.5 5053.15L2959.6 5128.15L2829.69 5053.15L2829.69 4903.15zM2959.6 5278.15L3089.5 5353.15L3089.5 5503.15L2959.6 5578.15L2829.69 5503.15L2829.69 5353.15zM2959.6 5728.15L3089.5 5803.15L3089.5 5953.15L2959.6 6028.15L2829.69 5953.15L2829.69 5803.15zM3089.5 5953.15L3219.41 6028.15L3219.41 6178.15L3089.5 6253.15L2959.6 6178.15L2959.6 6028.15zM3089.5 6403.15L3219.41 6478.15L3219.41 6628.15L3089.5 6703.15L2959.6 6628.15L2959.6 6478.15zM3089.5 8203.15L3219.41 8278.15L3219.41 8428.15L3089.5 8503.15L2959.6 8428.15L2959.6 8278.15zM2959.6 8428.15L3089.5 8503.15L3089.5 8653.15L2959.6 8728.15L2829.69 8653.15L2829.69 8503.15zM3089.5 9103.15L3219.41 9178.15L3219.41 9328.15L3089.5 9403.15L2959.6 9328.15L2959.6 9178.15zM3219.41 -121.85L3349.32 -46.85L3349.32 103.15L3219.41 178.15L3089.5 103.15L3089.5 -46.85zM3219.41 328.15L3349.32 403.15L3349.32 553.15L3219.41 628.15L3089.5 553.15L3089.5 403.15zM3219.41 1228.15L3349.32 1303.15L3349.32 1453.15L3219.41 1528.15L3089.5 1453.15L3089.5 1303.15zM3349.32 2803.15L3479.22 2878.15L3479.22 3028.15L3349.32 3103.15L3219.41 3028.15L3219.41 2878.15zM3349.32 3253.15L3479.22 3328.15L3479.22 3478.15L3349.32 3553.15L3219.41 3478.15L3219.41 3328.15zM3219.41 3478.15L3349.32 3553.15L3349.32 3703.15L3219.41 3778.15L3089.5 3703.15L3089.5 3553.15zM3349.32 5053.15L3479.22 5128.15L3479.22 5278.15L3349.32 5353.15L3219.41 5278.15L3219.41 5128.15zM3219.41 5278.15L3349.32 5353.15L3349.32 5503.15L3219.41 5578.15L3089.5 5503.15L3089.5 5353.15zM3349.32 5503.15L3479.22 5578.15L3479.22 5728.15L3349.32 5803.15L3219.41 5728.15L3219.41 5578.15zM3349.32 5953.15L3479.22 6028.15L3479.22 6178.15L3349.32 6253.15L3219.41 6178.15L3219.41 6028.15zM3349.32 6853.15L3479.22 6928.15L3479.22 7078.15L3349.32 7153.15L3219.41 7078.15L3219.41 6928.15zM3219.41 7528.15L3349.32 7603.15L3349.32 7753.15L3219.41 7828.15L3089.5 7753.15L3089.5 7603.15zM3349.32 7753.15L3479.22 7828.15L3479.22 7978.15L3349.32 8053.15L3219.41 7978.15L3219.41 7828.15zM3219.41 7978.15L3349.32 8053.15L3349.32 8203.15L3219.41 8278.15L3089.5 8203.15L3089.5 8053.15zM3219.41 8428.15L3349.32 8503.15L3349.32 8653.15L3219.41 8728.15L3089.5 8653.15L3089.5 8503.15zM3219.41 8878.15L3349.32 8953.15L3349.32 9103.15L3219.41 9178.15L3089.5 9103.15L3089.5 8953.15zM3349.32 9103.15L3479.22 9178.15L3479.22 9328.15L3349.32 9403.15L3219.41 9328.15L3219.41 9178.15zM3609.13 553.15L3739.04 628.15L3739.04 778.15L3609.13 853.15L3479.22 778.15L3479.22 628.15zM3479.22 778.15L3609.13 853.15L3609.13 1003.15L3479.22 1078.15L3349.32 1003.15L3349.32 853.15zM3609.13 1903.15L3739.04 1978.15L3739.04 2128.15L3609.13 2203.15L3479.22 2128.15L3479.22 1978.15zM3609.13 3703.15L3739.04 3778.15L3739.04 3928.15L3609.13 4003.15L3479.22 3928.15L3479.22 3778.15zM3479.22 3928.15L3609.13 4003.15L3609.13 4153.15L3479.22 4228.15L3349.32 4153.15L3349.32 4003.15zM3479.22 4378.15L3609.13 4453.15L3609.13 4603.15L3479.22 4678.15L3349.32 4603.15L3349.32 4453.15zM3609.13 4603.15L3739.04 4678.15L3739.04 4828.15L3609.13 4903.15L3479.22 4828.15L3479.22 4678.15zM3479.22 5278.15L3609.13 5353.15L3609.13 5503.15L3479.22 5578.15L3349.32 5503.15L3349.32 5353.15zM3479.22 5728.15L3609.13 5803.15L3609.13 5953.15L3479.22 6028.15L3349.32 5953.15L3349.32 5803.15zM3609.13 5953.15L3739.04 6028.15L3739.04 6178.15L3609.13 6253.15L3479.22 6178.15L3479.22 6028.15zM3609.13 6403.15L3739.04 6478.15L3739.04 6628.15L3609.13 6703.15L3479.22 6628.15L3479.22 6478.15zM3479.22 7078.15L3609.13 7153.15L3609.13 7303.15L3479.22 7378.15L3349.32 7303.15L3349.32 7153.15zM3609.13 7303.15L3739.04 7378.15L3739.04 7528.15L3609.13 7603.15L3479.22 7528.15L3479.22 7378.15zM3479.22 7528.15L3609.13 7603.15L3609.13 7753.15L3479.22 7828.15L3349.32 7753.15L3349.32 7603.15zM3479.22 7978.15L3609.13 8053.15L3609.13 8203.15L3479.22 8278.15L3349.32 8203.15L3349.32 8053.15zM3479.22 8428.15L3609.13 8503.15L3609.13 8653.15L3479.22 8728.15L3349.32 8653.15L3349.32 8503.15zM3609.13 8653.15L3739.04 8728.15L3739.04 8878.15L3609.13 8953.15L3479.22 8878.15L3479.22 8728.15zM3479.22 8878.15L3609.13 8953.15L3609.13 9103.15L3479.22 9178.15L3349.32 9103.15L3349.32 8953.15zM3739.04 -121.85L3868.95 -46.85L3868.95 103.15L3739.04 178.15L3609.13 103.15L3609.13 -46.85zM3868.95 103.15L3998.85 178.15L3998.85 328.15L3868.95 403.15L3739.04 328.15L3739.04 178.15zM3868.95 553.15L3998.85 628.15L3998.85 778.15L3868.95 853.15L3739.04 778.15L3739.04 628.15zM3868.95 1903.15L3998.85 1978.15L3998.85 2128.15L3868.95 2203.15L3739.04 2128.15L3739.04 1978.15zM3739.04 2128.15L3868.95 2203.15L3868.95 2353.15L3739.04 2428.15L3609.13 2353.15L3609.13 2203.15zM3739.04 2578.15L3868.95 2653.15L3868.95 2803.15L3739.04 2878.15L3609.13 2803.15L3609.13 2653.15zM3868.95 2803.15L3998.85 2878.15L3998.85 3028.15L3868.95 3103.15L3739.04 3028.15L3739.04 2878.15zM3868.95 3253.15L3998.85 3328.15L3998.85 3478.15L3868.95 3553.15L3739.04 3478.15L3739.04 3328.15zM3868.95 5053.15L3998.85 5128.15L3998.85 5278.15L3868.95 5353.15L3739.04 5278.15L3739.04 5128.15zM3739.04 5278.15L3868.95 5353.15L3868.95 5503.15L3739.04 5578.15L3609.13 5503.15L3609.13 5353.15zM3868.95 5503.15L3998.85 5578.15L3998.85 5728.15L3868.95 5803.15L3739.04 5728.15L3739.04 5578.15zM3868.95 5953.15L3998.85 6028.15L3998.85 6178.15L3868.95 6253.15L3739.04 6178.15L3739.04 6028.15zM3868.95 6403.15L3998.85 6478.15L3998.85 6628.15L3868.95 6703.15L3739.04 6628.15L3739.04 6478.15zM3739.04 6628.15L3868.95 6703.15L3868.95 6853.15L3739.04 6928.15L3609.13 6853.15L3609.13 6703.15zM3739.04 7078.15L3868.95 7153.15L3868.95 7303.15L3739.04 7378.15L3609.13 7303.15L3609.13 7153.15zM3868.95 7303.15L3998.85 7378.15L3998.85 7528.15L3868.95 7603.15L3739.04 7528.15L3739.04 7378.15zM3739.04 7978.15L3868.95 8053.15L3868.95 8203.15L3739.04 8278.15L3609.13 8203.15L3609.13 8053.15zM3739.04 8428.15L3868.95 8503.15L3868.95 8653.15L3739.04 8728.15L3609.13 8653.15L3609.13 8503.15zM3868.95 8653.15L3998.85 8728.15L3998.85 8878.15L3868.95 8953.15L3739.04 8878.15L3739.04 8728.15zM3739.04 8878.15L3868.95 8953.15L3868.95 9103.15L3739.04 9178.15L3609.13 9103.15L3609.13 8953.15zM3998.86 778.15L4128.76 853.15L4128.76 1003.15L3998.86 1078.15L3868.95 1003.15L3868.95 853.15zM4128.76 1003.15L4258.67 1078.15L4258.67 1228.15L4128.76 1303.15L3998.86 1228.15L3998.86 1078.15zM3998.86 1228.15L4128.76 1303.15L4128.76 1453.15L3998.86 1528.15L3868.95 1453.15L3868.95 1303.15zM4128.76 1453.15L4258.67 1528.15L4258.67 1678.15L4128.76 1753.15L3998.86 1678.15L3998.86 1528.15zM3998.86 1678.15L4128.76 1753.15L4128.76 1903.15L3998.86 1978.15L3868.95 1903.15L3868.95 1753.15zM4128.76 1903.15L4258.67 1978.15L4258.67 2128.15L4128.76 2203.15L3998.86 2128.15L3998.86 1978.15zM3998.86 2128.15L4128.76 2203.15L4128.76 2353.15L3998.86 2428.15L3868.95 2353.15L3868.95 2203.15zM3998.86 3028.15L4128.76 3103.15L4128.76 3253.15L3998.86 3328.15L3868.95 3253.15L3868.95 3103.15zM3998.86 3478.15L4128.76 3553.15L4128.76 3703.15L3998.86 3778.15L3868.95 3703.15L3868.95 3553.15zM4128.76 3703.15L4258.67 3778.15L4258.67 3928.15L4128.76 4003.15L3998.86 3928.15L3998.86 3778.15zM3998.86 3928.15L4128.76 4003.15L4128.76 4153.15L3998.86 4228.15L3868.95 4153.15L3868.95 4003.15zM3998.86 4378.15L4128.76 4453.15L4128.76 4603.15L3998.86 4678.15L3868.95 4603.15L3868.95 4453.15zM3998.86 4828.15L4128.76 4903.15L4128.76 5053.15L3998.86 5128.15L3868.95 5053.15L3868.95 4903.15zM4128.76 6403.15L4258.67 6478.15L4258.67 6628.15L4128.76 6703.15L3998.86 6628.15L3998.86 6478.15zM4128.76 7303.15L4258.67 7378.15L4258.67 7528.15L4128.76 7603.15L3998.86 7528.15L3998.86 7378.15zM3998.86 7528.15L4128.76 7603.15L4128.76 7753.15L3998.86 7828.15L3868.95 7753.15L3868.95 7603.15zM3998.86 7978.15L4128.76 8053.15L4128.76 8203.15L3998.86 8278.15L3868.95 8203.15L3868.95 8053.15zM4128.76 8203.15L4258.67 8278.15L4258.67 8428.15L4128.76 8503.15L3998.86 8428.15L3998.86 8278.15zM3998.86 8428.15L4128.76 8503.15L4128.76 8653.15L3998.86 8728.15L3868.95 8653.15L3868.95 8503.15zM4128.76 8653.15L4258.67 8728.15L4258.67 8878.15L4128.76 8953.15L3998.86 8878.15L3998.86 8728.15z" stroke="rgba(128, 186, 36, 1)" stroke-width="2"></path>
    </g>
    <defs>
        <mask id="SvgjsMask1005">
            <rect width="4040" height="9251" fill="#ffffff"></rect>
        </mask>
    </defs>
</svg>