<?xml version="1.0" encoding="UTF-8"?>
<svg xmlns="http://www.w3.org/2000/svg" version="1.1" xmlns:xlink="http://www.w3.org/1999/xlink" xmlns:svgjs="http://svgjs.com/svgjs" width="4040" height="9251" preserveAspectRatio="none" viewBox="0 0 4040 9251">
    <g mask="url(&quot;#SvgjsMask1085&quot;)" fill="none">
        <rect width="4040" height="9251" x="0" y="0" fill="rgba(255, 255, 255, 1)"></rect>
        <path d="M290.94 759.56L438.17 844.56L438.17 1014.56L290.94 1099.56L143.71 1014.56L143.71 844.56zM290.94 1779.56L438.17 1864.56L438.17 2034.56L290.94 2119.56L143.71 2034.56L143.71 1864.56zM290.94 2289.56L438.17 2374.56L438.17 2544.56L290.94 2629.56L143.71 2544.56L143.71 2374.56zM143.71 2544.56L290.94 2629.56L290.94 2799.56L143.71 2884.56L-3.52 2799.56L-3.52 2629.56zM143.71 5094.56L290.94 5179.56L290.94 5349.56L143.71 5434.56L-3.52 5349.56L-3.52 5179.56zM143.71 6114.56L290.94 6199.56L290.94 6369.56L143.71 6454.56L-3.52 6369.56L-3.52 6199.56zM143.71 7644.56L290.94 7729.56L290.94 7899.56L143.71 7984.56L-3.52 7899.56L-3.52 7729.56zM143.71 8664.56L290.94 8749.56L290.94 8919.56L143.71 9004.56L-3.52 8919.56L-3.52 8749.56zM438.17 -5.44L585.4 79.56L585.4 249.56L438.17 334.56L290.94 249.56L290.94 79.56zM585.4 249.56L732.62 334.56L732.62 504.56L585.4 589.56L438.17 504.56L438.17 334.56zM585.4 759.56L732.62 844.56L732.62 1014.56L585.4 1099.56L438.17 1014.56L438.17 844.56zM438.17 3054.56L585.4 3139.56L585.4 3309.56L438.17 3394.56L290.94 3309.56L290.94 3139.56zM438.17 4584.56L585.4 4669.56L585.4 4839.56L438.17 4924.56L290.94 4839.56L290.94 4669.56zM585.4 5859.56L732.62 5944.56L732.62 6114.56L585.4 6199.56L438.17 6114.56L438.17 5944.56zM438.17 7134.56L585.4 7219.56L585.4 7389.56L438.17 7474.56L290.94 7389.56L290.94 7219.56zM438.17 7644.56L585.4 7729.56L585.4 7899.56L438.17 7984.56L290.94 7899.56L290.94 7729.56zM585.4 8409.56L732.62 8494.56L732.62 8664.56L585.4 8749.56L438.17 8664.56L438.17 8494.56zM732.62 -5.44L879.85 79.56L879.85 249.56L732.62 334.56L585.4 249.56L585.4 79.56zM879.85 759.56L1027.08 844.56L1027.08 1014.56L879.85 1099.56L732.62 1014.56L732.62 844.56zM879.85 1269.56L1027.08 1354.56L1027.08 1524.56L879.85 1609.56L732.62 1524.56L732.62 1354.56zM732.62 1524.56L879.85 1609.56L879.85 1779.56L732.62 1864.56L585.4 1779.56L585.4 1609.56zM879.85 1779.56L1027.08 1864.56L1027.08 2034.56L879.85 2119.56L732.62 2034.56L732.62 1864.56zM732.62 2034.56L879.85 2119.56L879.85 2289.56L732.62 2374.56L585.4 2289.56L585.4 2119.56zM879.85 2289.56L1027.08 2374.56L1027.08 2544.56L879.85 2629.56L732.62 2544.56L732.62 2374.56zM879.85 2799.56L1027.08 2884.56L1027.08 3054.56L879.85 3139.56L732.62 3054.56L732.62 2884.56zM732.62 3054.56L879.85 3139.56L879.85 3309.56L732.62 3394.56L585.4 3309.56L585.4 3139.56zM879.85 5349.56L1027.08 5434.56L1027.08 5604.56L879.85 5689.56L732.62 5604.56L732.62 5434.56zM732.62 5604.56L879.85 5689.56L879.85 5859.56L732.62 5944.56L585.4 5859.56L585.4 5689.56zM732.62 6624.56L879.85 6709.56L879.85 6879.56L732.62 6964.56L585.4 6879.56L585.4 6709.56zM879.85 7389.56L1027.08 7474.56L1027.08 7644.56L879.85 7729.56L732.62 7644.56L732.62 7474.56zM732.62 8664.56L879.85 8749.56L879.85 8919.56L732.62 9004.56L585.4 8919.56L585.4 8749.56zM879.85 8919.56L1027.08 9004.56L1027.08 9174.56L879.85 9259.56L732.62 9174.56L732.62 9004.56zM732.62 9174.56L879.85 9259.56L879.85 9429.56L732.62 9514.56L585.4 9429.56L585.4 9259.56zM1027.08 -5.44L1174.31 79.56L1174.31 249.56L1027.08 334.56L879.85 249.56L879.85 79.56zM1027.08 504.56L1174.31 589.56L1174.31 759.56L1027.08 844.56L879.85 759.56L879.85 589.56zM1027.08 2034.56L1174.31 2119.56L1174.31 2289.56L1027.08 2374.56L879.85 2289.56L879.85 2119.56zM1174.31 2799.56L1321.54 2884.56L1321.54 3054.56L1174.31 3139.56L1027.08 3054.56L1027.08 2884.56zM1027.08 3054.56L1174.31 3139.56L1174.31 3309.56L1027.08 3394.56L879.85 3309.56L879.85 3139.56zM1027.08 4074.56L1174.31 4159.56L1174.31 4329.56L1027.08 4414.56L879.85 4329.56L879.85 4159.56zM1027.08 4584.56L1174.31 4669.56L1174.31 4839.56L1027.08 4924.56L879.85 4839.56L879.85 4669.56zM1027.08 5094.56L1174.31 5179.56L1174.31 5349.56L1027.08 5434.56L879.85 5349.56L879.85 5179.56zM1027.08 5604.56L1174.31 5689.56L1174.31 5859.56L1027.08 5944.56L879.85 5859.56L879.85 5689.56zM1027.08 7134.56L1174.31 7219.56L1174.31 7389.56L1027.08 7474.56L879.85 7389.56L879.85 7219.56zM1321.54 -5.44L1468.77 79.56L1468.77 249.56L1321.54 334.56L1174.31 249.56L1174.31 79.56zM1468.77 759.56L1615.99 844.56L1615.99 1014.56L1468.77 1099.56L1321.54 1014.56L1321.54 844.56zM1321.54 1014.56L1468.77 1099.56L1468.77 1269.56L1321.54 1354.56L1174.31 1269.56L1174.31 1099.56zM1321.54 1524.56L1468.77 1609.56L1468.77 1779.56L1321.54 1864.56L1174.31 1779.56L1174.31 1609.56zM1468.77 2289.56L1615.99 2374.56L1615.99 2544.56L1468.77 2629.56L1321.54 2544.56L1321.54 2374.56zM1321.54 2544.56L1468.77 2629.56L1468.77 2799.56L1321.54 2884.56L1174.31 2799.56L1174.31 2629.56zM1468.77 3819.56L1615.99 3904.56L1615.99 4074.56L1468.77 4159.56L1321.54 4074.56L1321.54 3904.56zM1321.54 4074.56L1468.77 4159.56L1468.77 4329.56L1321.54 4414.56L1174.31 4329.56L1174.31 4159.56zM1468.77 6369.56L1615.99 6454.56L1615.99 6624.56L1468.77 6709.56L1321.54 6624.56L1321.54 6454.56zM1468.77 7389.56L1615.99 7474.56L1615.99 7644.56L1468.77 7729.56L1321.54 7644.56L1321.54 7474.56zM1321.54 7644.56L1468.77 7729.56L1468.77 7899.56L1321.54 7984.56L1174.31 7899.56L1174.31 7729.56zM1321.54 8154.56L1468.77 8239.56L1468.77 8409.56L1321.54 8494.56L1174.31 8409.56L1174.31 8239.56zM1468.77 8409.56L1615.99 8494.56L1615.99 8664.56L1468.77 8749.56L1321.54 8664.56L1321.54 8494.56zM1615.99 -5.44L1763.22 79.56L1763.22 249.56L1615.99 334.56L1468.77 249.56L1468.77 79.56zM1615.99 1014.56L1763.22 1099.56L1763.22 1269.56L1615.99 1354.56L1468.77 1269.56L1468.77 1099.56zM1615.99 2034.56L1763.22 2119.56L1763.22 2289.56L1615.99 2374.56L1468.77 2289.56L1468.77 2119.56zM1763.22 2289.56L1910.45 2374.56L1910.45 2544.56L1763.22 2629.56L1615.99 2544.56L1615.99 2374.56zM1763.22 2799.56L1910.45 2884.56L1910.45 3054.56L1763.22 3139.56L1615.99 3054.56L1615.99 2884.56zM1763.22 3309.56L1910.45 3394.56L1910.45 3564.56L1763.22 3649.56L1615.99 3564.56L1615.99 3394.56zM1763.22 3819.56L1910.45 3904.56L1910.45 4074.56L1763.22 4159.56L1615.99 4074.56L1615.99 3904.56zM1763.22 4839.56L1910.45 4924.56L1910.45 5094.56L1763.22 5179.56L1615.99 5094.56L1615.99 4924.56zM1763.22 5349.56L1910.45 5434.56L1910.45 5604.56L1763.22 5689.56L1615.99 5604.56L1615.99 5434.56zM1615.99 5604.56L1763.22 5689.56L1763.22 5859.56L1615.99 5944.56L1468.77 5859.56L1468.77 5689.56zM1763.22 6369.56L1910.45 6454.56L1910.45 6624.56L1763.22 6709.56L1615.99 6624.56L1615.99 6454.56zM1615.99 6624.56L1763.22 6709.56L1763.22 6879.56L1615.99 6964.56L1468.77 6879.56L1468.77 6709.56zM1763.22 6879.56L1910.45 6964.56L1910.45 7134.56L1763.22 7219.56L1615.99 7134.56L1615.99 6964.56zM1763.22 7389.56L1910.45 7474.56L1910.45 7644.56L1763.22 7729.56L1615.99 7644.56L1615.99 7474.56zM1615.99 9174.56L1763.22 9259.56L1763.22 9429.56L1615.99 9514.56L1468.77 9429.56L1468.77 9259.56zM1910.45 3054.56L2057.68 3139.56L2057.68 3309.56L1910.45 3394.56L1763.22 3309.56L1763.22 3139.56zM1910.45 4584.56L2057.68 4669.56L2057.68 4839.56L1910.45 4924.56L1763.22 4839.56L1763.22 4669.56zM1910.45 5604.56L2057.68 5689.56L2057.68 5859.56L1910.45 5944.56L1763.22 5859.56L1763.22 5689.56zM2057.68 6879.56L2204.91 6964.56L2204.91 7134.56L2057.68 7219.56L1910.45 7134.56L1910.45 6964.56zM2057.68 7389.56L2204.91 7474.56L2204.91 7644.56L2057.68 7729.56L1910.45 7644.56L1910.45 7474.56zM2057.68 7899.56L2204.91 7984.56L2204.91 8154.56L2057.68 8239.56L1910.45 8154.56L1910.45 7984.56zM1910.45 8154.56L2057.68 8239.56L2057.68 8409.56L1910.45 8494.56L1763.22 8409.56L1763.22 8239.56zM1910.45 9174.56L2057.68 9259.56L2057.68 9429.56L1910.45 9514.56L1763.22 9429.56L1763.22 9259.56zM2204.91 -5.44L2352.14 79.56L2352.14 249.56L2204.91 334.56L2057.68 249.56L2057.68 79.56zM2352.14 759.56L2499.37 844.56L2499.37 1014.56L2352.14 1099.56L2204.91 1014.56L2204.91 844.56zM2204.91 1014.56L2352.14 1099.56L2352.14 1269.56L2204.91 1354.56L2057.68 1269.56L2057.68 1099.56zM2204.91 1524.56L2352.14 1609.56L2352.14 1779.56L2204.91 1864.56L2057.68 1779.56L2057.68 1609.56zM2204.91 5094.56L2352.14 5179.56L2352.14 5349.56L2204.91 5434.56L2057.68 5349.56L2057.68 5179.56zM2352.14 7389.56L2499.37 7474.56L2499.37 7644.56L2352.14 7729.56L2204.91 7644.56L2204.91 7474.56zM2352.14 8409.56L2499.37 8494.56L2499.37 8664.56L2352.14 8749.56L2204.91 8664.56L2204.91 8494.56zM2204.91 8664.56L2352.14 8749.56L2352.14 8919.56L2204.91 9004.56L2057.68 8919.56L2057.68 8749.56zM2352.14 8919.56L2499.37 9004.56L2499.37 9174.56L2352.14 9259.56L2204.91 9174.56L2204.91 9004.56zM2499.37 -5.44L2646.59 79.56L2646.59 249.56L2499.37 334.56L2352.14 249.56L2352.14 79.56zM2646.59 1779.56L2793.82 1864.56L2793.82 2034.56L2646.59 2119.56L2499.37 2034.56L2499.37 1864.56zM2499.37 2544.56L2646.59 2629.56L2646.59 2799.56L2499.37 2884.56L2352.14 2799.56L2352.14 2629.56zM2646.59 4329.56L2793.82 4414.56L2793.82 4584.56L2646.59 4669.56L2499.37 4584.56L2499.37 4414.56zM2646.59 5349.56L2793.82 5434.56L2793.82 5604.56L2646.59 5689.56L2499.37 5604.56L2499.37 5434.56zM2646.59 5859.56L2793.82 5944.56L2793.82 6114.56L2646.59 6199.56L2499.37 6114.56L2499.37 5944.56zM2646.59 6369.56L2793.82 6454.56L2793.82 6624.56L2646.59 6709.56L2499.37 6624.56L2499.37 6454.56zM2646.59 8409.56L2793.82 8494.56L2793.82 8664.56L2646.59 8749.56L2499.37 8664.56L2499.37 8494.56zM2646.59 8919.56L2793.82 9004.56L2793.82 9174.56L2646.59 9259.56L2499.37 9174.56L2499.37 9004.56zM2793.82 -5.44L2941.05 79.56L2941.05 249.56L2793.82 334.56L2646.59 249.56L2646.59 79.56zM2793.82 2544.56L2941.05 2629.56L2941.05 2799.56L2793.82 2884.56L2646.59 2799.56L2646.59 2629.56zM2941.05 5349.56L3088.28 5434.56L3088.28 5604.56L2941.05 5689.56L2793.82 5604.56L2793.82 5434.56zM2793.82 6114.56L2941.05 6199.56L2941.05 6369.56L2793.82 6454.56L2646.59 6369.56L2646.59 6199.56zM2941.05 7389.56L3088.28 7474.56L3088.28 7644.56L2941.05 7729.56L2793.82 7644.56L2793.82 7474.56zM2941.05 7899.56L3088.28 7984.56L3088.28 8154.56L2941.05 8239.56L2793.82 8154.56L2793.82 7984.56zM2793.82 8664.56L2941.05 8749.56L2941.05 8919.56L2793.82 9004.56L2646.59 8919.56L2646.59 8749.56zM2793.82 9174.56L2941.05 9259.56L2941.05 9429.56L2793.82 9514.56L2646.59 9429.56L2646.59 9259.56zM3235.51 249.56L3382.74 334.56L3382.74 504.56L3235.51 589.56L3088.28 504.56L3088.28 334.56zM3088.28 504.56L3235.51 589.56L3235.51 759.56L3088.28 844.56L2941.05 759.56L2941.05 589.56zM3235.51 759.56L3382.74 844.56L3382.74 1014.56L3235.51 1099.56L3088.28 1014.56L3088.28 844.56zM3088.28 1524.56L3235.51 1609.56L3235.51 1779.56L3088.28 1864.56L2941.05 1779.56L2941.05 1609.56zM3235.51 1779.56L3382.74 1864.56L3382.74 2034.56L3235.51 2119.56L3088.28 2034.56L3088.28 1864.56zM3088.28 2034.56L3235.51 2119.56L3235.51 2289.56L3088.28 2374.56L2941.05 2289.56L2941.05 2119.56zM3235.51 2289.56L3382.74 2374.56L3382.74 2544.56L3235.51 2629.56L3088.28 2544.56L3088.28 2374.56zM3088.28 3054.56L3235.51 3139.56L3235.51 3309.56L3088.28 3394.56L2941.05 3309.56L2941.05 3139.56zM3088.28 3564.56L3235.51 3649.56L3235.51 3819.56L3088.28 3904.56L2941.05 3819.56L2941.05 3649.56zM3088.28 4584.56L3235.51 4669.56L3235.51 4839.56L3088.28 4924.56L2941.05 4839.56L2941.05 4669.56zM3235.51 4839.56L3382.74 4924.56L3382.74 5094.56L3235.51 5179.56L3088.28 5094.56L3088.28 4924.56zM3235.51 5859.56L3382.74 5944.56L3382.74 6114.56L3235.51 6199.56L3088.28 6114.56L3088.28 5944.56zM3235.51 6369.56L3382.74 6454.56L3382.74 6624.56L3235.51 6709.56L3088.28 6624.56L3088.28 6454.56zM3088.28 8664.56L3235.51 8749.56L3235.51 8919.56L3088.28 9004.56L2941.05 8919.56L2941.05 8749.56zM3529.97 249.56L3677.19 334.56L3677.19 504.56L3529.97 589.56L3382.74 504.56L3382.74 334.56zM3382.74 504.56L3529.97 589.56L3529.97 759.56L3382.74 844.56L3235.51 759.56L3235.51 589.56zM3529.97 759.56L3677.19 844.56L3677.19 1014.56L3529.97 1099.56L3382.74 1014.56L3382.74 844.56zM3529.97 1269.56L3677.19 1354.56L3677.19 1524.56L3529.97 1609.56L3382.74 1524.56L3382.74 1354.56zM3382.74 2034.56L3529.97 2119.56L3529.97 2289.56L3382.74 2374.56L3235.51 2289.56L3235.51 2119.56zM3529.97 3309.56L3677.19 3394.56L3677.19 3564.56L3529.97 3649.56L3382.74 3564.56L3382.74 3394.56zM3529.97 4839.56L3677.19 4924.56L3677.19 5094.56L3529.97 5179.56L3382.74 5094.56L3382.74 4924.56zM3529.97 6369.56L3677.19 6454.56L3677.19 6624.56L3529.97 6709.56L3382.74 6624.56L3382.74 6454.56zM3529.97 7389.56L3677.19 7474.56L3677.19 7644.56L3529.97 7729.56L3382.74 7644.56L3382.74 7474.56zM3382.74 7644.56L3529.97 7729.56L3529.97 7899.56L3382.74 7984.56L3235.51 7899.56L3235.51 7729.56zM3529.97 8409.56L3677.19 8494.56L3677.19 8664.56L3529.97 8749.56L3382.74 8664.56L3382.74 8494.56zM3382.74 8664.56L3529.97 8749.56L3529.97 8919.56L3382.74 9004.56L3235.51 8919.56L3235.51 8749.56zM3824.42 759.56L3971.65 844.56L3971.65 1014.56L3824.42 1099.56L3677.19 1014.56L3677.19 844.56zM3824.42 1269.56L3971.65 1354.56L3971.65 1524.56L3824.42 1609.56L3677.19 1524.56L3677.19 1354.56zM3824.42 4329.56L3971.65 4414.56L3971.65 4584.56L3824.42 4669.56L3677.19 4584.56L3677.19 4414.56zM3677.19 4584.56L3824.42 4669.56L3824.42 4839.56L3677.19 4924.56L3529.97 4839.56L3529.97 4669.56zM3677.19 5094.56L3824.42 5179.56L3824.42 5349.56L3677.19 5434.56L3529.97 5349.56L3529.97 5179.56zM3824.42 5349.56L3971.65 5434.56L3971.65 5604.56L3824.42 5689.56L3677.19 5604.56L3677.19 5434.56zM3824.42 5859.56L3971.65 5944.56L3971.65 6114.56L3824.42 6199.56L3677.19 6114.56L3677.19 5944.56zM3677.19 6114.56L3824.42 6199.56L3824.42 6369.56L3677.19 6454.56L3529.97 6369.56L3529.97 6199.56zM3824.42 7389.56L3971.65 7474.56L3971.65 7644.56L3824.42 7729.56L3677.19 7644.56L3677.19 7474.56zM3677.19 7644.56L3824.42 7729.56L3824.42 7899.56L3677.19 7984.56L3529.97 7899.56L3529.97 7729.56zM3824.42 8409.56L3971.65 8494.56L3971.65 8664.56L3824.42 8749.56L3677.19 8664.56L3677.19 8494.56zM4118.88 249.56L4266.11 334.56L4266.11 504.56L4118.88 589.56L3971.65 504.56L3971.65 334.56zM4118.88 759.56L4266.11 844.56L4266.11 1014.56L4118.88 1099.56L3971.65 1014.56L3971.65 844.56zM4118.88 1269.56L4266.11 1354.56L4266.11 1524.56L4118.88 1609.56L3971.65 1524.56L3971.65 1354.56zM3971.65 2034.56L4118.88 2119.56L4118.88 2289.56L3971.65 2374.56L3824.42 2289.56L3824.42 2119.56zM3971.65 2544.56L4118.88 2629.56L4118.88 2799.56L3971.65 2884.56L3824.42 2799.56L3824.42 2629.56zM3971.65 3054.56L4118.88 3139.56L4118.88 3309.56L3971.65 3394.56L3824.42 3309.56L3824.42 3139.56zM3971.65 3564.56L4118.88 3649.56L4118.88 3819.56L3971.65 3904.56L3824.42 3819.56L3824.42 3649.56zM3971.65 4074.56L4118.88 4159.56L4118.88 4329.56L3971.65 4414.56L3824.42 4329.56L3824.42 4159.56zM3971.65 4584.56L4118.88 4669.56L4118.88 4839.56L3971.65 4924.56L3824.42 4839.56L3824.42 4669.56zM3971.65 6114.56L4118.88 6199.56L4118.88 6369.56L3971.65 6454.56L3824.42 6369.56L3824.42 6199.56zM4118.88 6879.56L4266.11 6964.56L4266.11 7134.56L4118.88 7219.56L3971.65 7134.56L3971.65 6964.56zM3971.65 7644.56L4118.88 7729.56L4118.88 7899.56L3971.65 7984.56L3824.42 7899.56L3824.42 7729.56zM3971.65 8664.56L4118.88 8749.56L4118.88 8919.56L3971.65 9004.56L3824.42 8919.56L3824.42 8749.56z" stroke="rgba(74, 92, 102, 1)" stroke-width="2"></path>
        <path d="M207.88 230.58L356.84 316.58L356.84 488.58L207.88 574.58L58.92 488.58L58.92 316.58zM58.92 1520.58L207.88 1606.58L207.88 1778.58L58.92 1864.58L-90.04 1778.58L-90.04 1606.58zM207.88 2294.58L356.84 2380.58L356.84 2552.58L207.88 2638.58L58.92 2552.58L58.92 2380.58zM207.88 3326.58L356.84 3412.58L356.84 3584.58L207.88 3670.58L58.92 3584.58L58.92 3412.58zM58.92 3584.58L207.88 3670.58L207.88 3842.58L58.92 3928.58L-90.04 3842.58L-90.04 3670.58zM207.88 4358.58L356.84 4444.58L356.84 4616.58L207.88 4702.58L58.92 4616.58L58.92 4444.58zM58.92 4616.58L207.88 4702.58L207.88 4874.58L58.92 4960.58L-90.04 4874.58L-90.04 4702.58zM207.88 5906.58L356.84 5992.58L356.84 6164.58L207.88 6250.58L58.92 6164.58L58.92 5992.58zM58.92 7712.58L207.88 7798.58L207.88 7970.58L58.92 8056.58L-90.04 7970.58L-90.04 7798.58zM58.92 8228.58L207.88 8314.58L207.88 8486.58L58.92 8572.58L-90.04 8486.58L-90.04 8314.58zM207.88 8486.58L356.84 8572.58L356.84 8744.58L207.88 8830.58L58.92 8744.58L58.92 8572.58zM207.88 9002.58L356.84 9088.58L356.84 9260.58L207.88 9346.58L58.92 9260.58L58.92 9088.58zM505.8 746.58L654.76 832.58L654.76 1004.58L505.8 1090.58L356.84 1004.58L356.84 832.58zM505.8 4358.58L654.76 4444.58L654.76 4616.58L505.8 4702.58L356.84 4616.58L356.84 4444.58zM356.84 5132.58L505.8 5218.58L505.8 5390.58L356.84 5476.58L207.88 5390.58L207.88 5218.58zM356.84 6164.58L505.8 6250.58L505.8 6422.58L356.84 6508.58L207.88 6422.58L207.88 6250.58zM356.84 7196.58L505.8 7282.58L505.8 7454.58L356.84 7540.58L207.88 7454.58L207.88 7282.58zM505.8 7454.58L654.76 7540.58L654.76 7712.58L505.8 7798.58L356.84 7712.58L356.84 7540.58zM356.84 8744.58L505.8 8830.58L505.8 9002.58L356.84 9088.58L207.88 9002.58L207.88 8830.58zM505.8 9002.58L654.76 9088.58L654.76 9260.58L505.8 9346.58L356.84 9260.58L356.84 9088.58zM654.76 488.58L803.72 574.58L803.72 746.58L654.76 832.58L505.8 746.58L505.8 574.58zM803.72 746.58L952.68 832.58L952.68 1004.58L803.72 1090.58L654.76 1004.58L654.76 832.58zM654.76 3068.58L803.72 3154.58L803.72 3326.58L654.76 3412.58L505.8 3326.58L505.8 3154.58zM803.72 3326.58L952.68 3412.58L952.68 3584.58L803.72 3670.58L654.76 3584.58L654.76 3412.58zM803.72 4874.58L952.68 4960.58L952.68 5132.58L803.72 5218.58L654.76 5132.58L654.76 4960.58zM654.76 5648.58L803.72 5734.58L803.72 5906.58L654.76 5992.58L505.8 5906.58L505.8 5734.58zM654.76 6680.58L803.72 6766.58L803.72 6938.58L654.76 7024.58L505.8 6938.58L505.8 6766.58zM803.72 7454.58L952.68 7540.58L952.68 7712.58L803.72 7798.58L654.76 7712.58L654.76 7540.58zM654.76 8228.58L803.72 8314.58L803.72 8486.58L654.76 8572.58L505.8 8486.58L505.8 8314.58zM654.76 8744.58L803.72 8830.58L803.72 9002.58L654.76 9088.58L505.8 9002.58L505.8 8830.58zM654.76 9260.58L803.72 9346.58L803.72 9518.58L654.76 9604.58L505.8 9518.58L505.8 9346.58zM952.68 1004.58L1101.64 1090.58L1101.64 1262.58L952.68 1348.58L803.72 1262.58L803.72 1090.58zM1101.64 1778.58L1250.6 1864.58L1250.6 2036.58L1101.64 2122.58L952.68 2036.58L952.68 1864.58zM952.68 4616.58L1101.64 4702.58L1101.64 4874.58L952.68 4960.58L803.72 4874.58L803.72 4702.58zM952.68 7196.58L1101.64 7282.58L1101.64 7454.58L952.68 7540.58L803.72 7454.58L803.72 7282.58zM952.68 7712.58L1101.64 7798.58L1101.64 7970.58L952.68 8056.58L803.72 7970.58L803.72 7798.58zM952.68 8228.58L1101.64 8314.58L1101.64 8486.58L952.68 8572.58L803.72 8486.58L803.72 8314.58zM1101.64 8486.58L1250.6 8572.58L1250.6 8744.58L1101.64 8830.58L952.68 8744.58L952.68 8572.58zM952.68 8744.58L1101.64 8830.58L1101.64 9002.58L952.68 9088.58L803.72 9002.58L803.72 8830.58zM1250.6 488.58L1399.57 574.58L1399.57 746.58L1250.6 832.58L1101.64 746.58L1101.64 574.58zM1399.57 1262.58L1548.53 1348.58L1548.53 1520.58L1399.57 1606.58L1250.6 1520.58L1250.6 1348.58zM1399.57 3326.58L1548.53 3412.58L1548.53 3584.58L1399.57 3670.58L1250.6 3584.58L1250.6 3412.58zM1399.57 4358.58L1548.53 4444.58L1548.53 4616.58L1399.57 4702.58L1250.6 4616.58L1250.6 4444.58zM1399.57 4874.58L1548.53 4960.58L1548.53 5132.58L1399.57 5218.58L1250.6 5132.58L1250.6 4960.58zM1250.6 5648.58L1399.57 5734.58L1399.57 5906.58L1250.6 5992.58L1101.64 5906.58L1101.64 5734.58zM1399.57 5906.58L1548.53 5992.58L1548.53 6164.58L1399.57 6250.58L1250.6 6164.58L1250.6 5992.58zM1250.6 6164.58L1399.57 6250.58L1399.57 6422.58L1250.6 6508.58L1101.64 6422.58L1101.64 6250.58zM1399.57 6938.58L1548.53 7024.58L1548.53 7196.58L1399.57 7282.58L1250.6 7196.58L1250.6 7024.58zM1250.6 8744.58L1399.57 8830.58L1399.57 9002.58L1250.6 9088.58L1101.64 9002.58L1101.64 8830.58zM1250.6 9260.58L1399.57 9346.58L1399.57 9518.58L1250.6 9604.58L1101.64 9518.58L1101.64 9346.58zM1548.53 -27.42L1697.49 58.58L1697.49 230.58L1548.53 316.58L1399.57 230.58L1399.57 58.58zM1697.49 746.58L1846.45 832.58L1846.45 1004.58L1697.49 1090.58L1548.53 1004.58L1548.53 832.58zM1697.49 2810.58L1846.45 2896.58L1846.45 3068.58L1697.49 3154.58L1548.53 3068.58L1548.53 2896.58zM1697.49 3326.58L1846.45 3412.58L1846.45 3584.58L1697.49 3670.58L1548.53 3584.58L1548.53 3412.58zM1548.53 4100.58L1697.49 4186.58L1697.49 4358.58L1548.53 4444.58L1399.57 4358.58L1399.57 4186.58zM1548.53 5648.58L1697.49 5734.58L1697.49 5906.58L1548.53 5992.58L1399.57 5906.58L1399.57 5734.58zM1697.49 6422.58L1846.45 6508.58L1846.45 6680.58L1697.49 6766.58L1548.53 6680.58L1548.53 6508.58zM1697.49 7454.58L1846.45 7540.58L1846.45 7712.58L1697.49 7798.58L1548.53 7712.58L1548.53 7540.58zM1846.45 -27.42L1995.41 58.58L1995.41 230.58L1846.45 316.58L1697.49 230.58L1697.49 58.58zM1995.41 230.58L2144.37 316.58L2144.37 488.58L1995.41 574.58L1846.45 488.58L1846.45 316.58zM1995.41 1262.58L2144.37 1348.58L2144.37 1520.58L1995.41 1606.58L1846.45 1520.58L1846.45 1348.58zM1846.45 1520.58L1995.41 1606.58L1995.41 1778.58L1846.45 1864.58L1697.49 1778.58L1697.49 1606.58zM1995.41 2294.58L2144.37 2380.58L2144.37 2552.58L1995.41 2638.58L1846.45 2552.58L1846.45 2380.58zM1846.45 2552.58L1995.41 2638.58L1995.41 2810.58L1846.45 2896.58L1697.49 2810.58L1697.49 2638.58zM1846.45 3068.58L1995.41 3154.58L1995.41 3326.58L1846.45 3412.58L1697.49 3326.58L1697.49 3154.58zM1995.41 3326.58L2144.37 3412.58L2144.37 3584.58L1995.41 3670.58L1846.45 3584.58L1846.45 3412.58zM1846.45 4616.58L1995.41 4702.58L1995.41 4874.58L1846.45 4960.58L1697.49 4874.58L1697.49 4702.58zM1995.41 7454.58L2144.37 7540.58L2144.37 7712.58L1995.41 7798.58L1846.45 7712.58L1846.45 7540.58zM1995.41 7970.58L2144.37 8056.58L2144.37 8228.58L1995.41 8314.58L1846.45 8228.58L1846.45 8056.58zM1846.45 8228.58L1995.41 8314.58L1995.41 8486.58L1846.45 8572.58L1697.49 8486.58L1697.49 8314.58zM2144.37 -27.42L2293.33 58.58L2293.33 230.58L2144.37 316.58L1995.41 230.58L1995.41 58.58zM2144.37 488.58L2293.33 574.58L2293.33 746.58L2144.37 832.58L1995.41 746.58L1995.41 574.58zM2293.33 1262.58L2442.29 1348.58L2442.29 1520.58L2293.33 1606.58L2144.37 1520.58L2144.37 1348.58zM2144.37 2036.58L2293.33 2122.58L2293.33 2294.58L2144.37 2380.58L1995.41 2294.58L1995.41 2122.58zM2293.33 2294.58L2442.29 2380.58L2442.29 2552.58L2293.33 2638.58L2144.37 2552.58L2144.37 2380.58zM2144.37 2552.58L2293.33 2638.58L2293.33 2810.58L2144.37 2896.58L1995.41 2810.58L1995.41 2638.58zM2293.33 3326.58L2442.29 3412.58L2442.29 3584.58L2293.33 3670.58L2144.37 3584.58L2144.37 3412.58zM2144.37 3584.58L2293.33 3670.58L2293.33 3842.58L2144.37 3928.58L1995.41 3842.58L1995.41 3670.58zM2293.33 4358.58L2442.29 4444.58L2442.29 4616.58L2293.33 4702.58L2144.37 4616.58L2144.37 4444.58zM2293.33 5390.58L2442.29 5476.58L2442.29 5648.58L2293.33 5734.58L2144.37 5648.58L2144.37 5476.58zM2144.37 8744.58L2293.33 8830.58L2293.33 9002.58L2144.37 9088.58L1995.41 9002.58L1995.41 8830.58zM2591.25 230.58L2740.21 316.58L2740.21 488.58L2591.25 574.58L2442.29 488.58L2442.29 316.58zM2442.29 1520.58L2591.25 1606.58L2591.25 1778.58L2442.29 1864.58L2293.33 1778.58L2293.33 1606.58zM2442.29 4616.58L2591.25 4702.58L2591.25 4874.58L2442.29 4960.58L2293.33 4874.58L2293.33 4702.58zM2591.25 6422.58L2740.21 6508.58L2740.21 6680.58L2591.25 6766.58L2442.29 6680.58L2442.29 6508.58zM2442.29 8744.58L2591.25 8830.58L2591.25 9002.58L2442.29 9088.58L2293.33 9002.58L2293.33 8830.58zM2591.25 9002.58L2740.21 9088.58L2740.21 9260.58L2591.25 9346.58L2442.29 9260.58L2442.29 9088.58zM2740.21 488.58L2889.17 574.58L2889.17 746.58L2740.21 832.58L2591.25 746.58L2591.25 574.58zM2740.21 1004.58L2889.17 1090.58L2889.17 1262.58L2740.21 1348.58L2591.25 1262.58L2591.25 1090.58zM2740.21 3584.58L2889.17 3670.58L2889.17 3842.58L2740.21 3928.58L2591.25 3842.58L2591.25 3670.58zM2740.21 4616.58L2889.17 4702.58L2889.17 4874.58L2740.21 4960.58L2591.25 4874.58L2591.25 4702.58zM2889.17 4874.58L3038.13 4960.58L3038.13 5132.58L2889.17 5218.58L2740.21 5132.58L2740.21 4960.58zM2740.21 5648.58L2889.17 5734.58L2889.17 5906.58L2740.21 5992.58L2591.25 5906.58L2591.25 5734.58zM2740.21 6164.58L2889.17 6250.58L2889.17 6422.58L2740.21 6508.58L2591.25 6422.58L2591.25 6250.58zM3187.09 1778.58L3336.05 1864.58L3336.05 2036.58L3187.09 2122.58L3038.13 2036.58L3038.13 1864.58zM3038.13 3068.58L3187.09 3154.58L3187.09 3326.58L3038.13 3412.58L2889.17 3326.58L2889.17 3154.58zM3038.13 4616.58L3187.09 4702.58L3187.09 4874.58L3038.13 4960.58L2889.17 4874.58L2889.17 4702.58zM3187.09 4874.58L3336.05 4960.58L3336.05 5132.58L3187.09 5218.58L3038.13 5132.58L3038.13 4960.58zM3038.13 5132.58L3187.09 5218.58L3187.09 5390.58L3038.13 5476.58L2889.17 5390.58L2889.17 5218.58zM3187.09 5390.58L3336.05 5476.58L3336.05 5648.58L3187.09 5734.58L3038.13 5648.58L3038.13 5476.58zM3187.09 5906.58L3336.05 5992.58L3336.05 6164.58L3187.09 6250.58L3038.13 6164.58L3038.13 5992.58zM3038.13 6164.58L3187.09 6250.58L3187.09 6422.58L3038.13 6508.58L2889.17 6422.58L2889.17 6250.58zM3187.09 6422.58L3336.05 6508.58L3336.05 6680.58L3187.09 6766.58L3038.13 6680.58L3038.13 6508.58zM3187.09 7454.58L3336.05 7540.58L3336.05 7712.58L3187.09 7798.58L3038.13 7712.58L3038.13 7540.58zM3187.09 7970.58L3336.05 8056.58L3336.05 8228.58L3187.09 8314.58L3038.13 8228.58L3038.13 8056.58zM3038.13 9260.58L3187.09 9346.58L3187.09 9518.58L3038.13 9604.58L2889.17 9518.58L2889.17 9346.58zM3485.01 230.58L3633.97 316.58L3633.97 488.58L3485.01 574.58L3336.05 488.58L3336.05 316.58zM3485.01 746.58L3633.97 832.58L3633.97 1004.58L3485.01 1090.58L3336.05 1004.58L3336.05 832.58zM3485.01 3326.58L3633.97 3412.58L3633.97 3584.58L3485.01 3670.58L3336.05 3584.58L3336.05 3412.58zM3485.01 3842.58L3633.97 3928.58L3633.97 4100.58L3485.01 4186.58L3336.05 4100.58L3336.05 3928.58zM3336.05 5132.58L3485.01 5218.58L3485.01 5390.58L3336.05 5476.58L3187.09 5390.58L3187.09 5218.58zM3485.01 5906.58L3633.97 5992.58L3633.97 6164.58L3485.01 6250.58L3336.05 6164.58L3336.05 5992.58zM3336.05 6164.58L3485.01 6250.58L3485.01 6422.58L3336.05 6508.58L3187.09 6422.58L3187.09 6250.58zM3336.05 6680.58L3485.01 6766.58L3485.01 6938.58L3336.05 7024.58L3187.09 6938.58L3187.09 6766.58zM3336.05 7196.58L3485.01 7282.58L3485.01 7454.58L3336.05 7540.58L3187.09 7454.58L3187.09 7282.58zM3485.01 7454.58L3633.97 7540.58L3633.97 7712.58L3485.01 7798.58L3336.05 7712.58L3336.05 7540.58zM3485.01 7970.58L3633.97 8056.58L3633.97 8228.58L3485.01 8314.58L3336.05 8228.58L3336.05 8056.58zM3336.05 8744.58L3485.01 8830.58L3485.01 9002.58L3336.05 9088.58L3187.09 9002.58L3187.09 8830.58zM3633.97 1520.58L3782.93 1606.58L3782.93 1778.58L3633.97 1864.58L3485.01 1778.58L3485.01 1606.58zM3633.97 2552.58L3782.93 2638.58L3782.93 2810.58L3633.97 2896.58L3485.01 2810.58L3485.01 2638.58zM3782.93 2810.58L3931.9 2896.58L3931.9 3068.58L3782.93 3154.58L3633.97 3068.58L3633.97 2896.58zM3633.97 4100.58L3782.93 4186.58L3782.93 4358.58L3633.97 4444.58L3485.01 4358.58L3485.01 4186.58zM3782.93 4358.58L3931.9 4444.58L3931.9 4616.58L3782.93 4702.58L3633.97 4616.58L3633.97 4444.58zM3782.93 4874.58L3931.9 4960.58L3931.9 5132.58L3782.93 5218.58L3633.97 5132.58L3633.97 4960.58zM3633.97 6680.58L3782.93 6766.58L3782.93 6938.58L3633.97 7024.58L3485.01 6938.58L3485.01 6766.58zM3633.97 7196.58L3782.93 7282.58L3782.93 7454.58L3633.97 7540.58L3485.01 7454.58L3485.01 7282.58zM3633.97 7712.58L3782.93 7798.58L3782.93 7970.58L3633.97 8056.58L3485.01 7970.58L3485.01 7798.58zM3633.97 8228.58L3782.93 8314.58L3782.93 8486.58L3633.97 8572.58L3485.01 8486.58L3485.01 8314.58zM3782.93 8486.58L3931.9 8572.58L3931.9 8744.58L3782.93 8830.58L3633.97 8744.58L3633.97 8572.58zM3931.9 488.58L4080.86 574.58L4080.86 746.58L3931.9 832.58L3782.93 746.58L3782.93 574.58zM4080.86 746.58L4229.82 832.58L4229.82 1004.58L4080.86 1090.58L3931.9 1004.58L3931.9 832.58zM4080.86 1262.58L4229.82 1348.58L4229.82 1520.58L4080.86 1606.58L3931.9 1520.58L3931.9 1348.58zM4080.86 4358.58L4229.82 4444.58L4229.82 4616.58L4080.86 4702.58L3931.9 4616.58L3931.9 4444.58zM4080.86 5906.58L4229.82 5992.58L4229.82 6164.58L4080.86 6250.58L3931.9 6164.58L3931.9 5992.58zM4080.86 6422.58L4229.82 6508.58L4229.82 6680.58L4080.86 6766.58L3931.9 6680.58L3931.9 6508.58zM4080.86 7454.58L4229.82 7540.58L4229.82 7712.58L4080.86 7798.58L3931.9 7712.58L3931.9 7540.58zM4080.86 8486.58L4229.82 8572.58L4229.82 8744.58L4080.86 8830.58L3931.9 8744.58L3931.9 8572.58zM4080.86 9002.58L4229.82 9088.58L4229.82 9260.58L4080.86 9346.58L3931.9 9260.58L3931.9 9088.58z" stroke="rgba(128, 186, 36, 1)" stroke-width="2"></path>
    </g>
</svg>