<svg id="visual" viewBox="0 0 1440 4500" width="1440" height="4500" xmlns="http://www.w3.org/2000/svg" xmlns:xlink="http://www.w3.org/1999/xlink" version="1.1"><rect x="0" y="0" width="1440" height="4500" fill="#ffffff"></rect><path d="M0 2573L34.3 2549.7C68.7 2526.3 137.3 2479.7 205.8 2454.3C274.3 2429 342.7 2425 411.2 2441.3C479.7 2457.7 548.3 2494.3 617 2514.7C685.7 2535 754.3 2539 823 2549.5C891.7 2560 960.3 2577 1028.8 2570.8C1097.3 2564.7 1165.7 2535.3 1234.2 2524.5C1302.7 2513.7 1371.3 2521.3 1405.7 2525.2L1440 2529L1440 4501L1405.7 4501C1371.3 4501 1302.7 4501 1234.2 4501C1165.7 4501 1097.3 4501 1028.8 4501C960.3 4501 891.7 4501 823 4501C754.3 4501 685.7 4501 617 4501C548.3 4501 479.7 4501 411.2 4501C342.7 4501 274.3 4501 205.8 4501C137.3 4501 68.7 4501 34.3 4501L0 4501Z" fill="#efffd5"></path><path d="M0 2664L34.3 2694.2C68.7 2724.3 137.3 2784.7 205.8 2784.7C274.3 2784.7 342.7 2724.3 411.2 2719.5C479.7 2714.7 548.3 2765.3 617 2783.7C685.7 2802 754.3 2788 823 2783.5C891.7 2779 960.3 2784 1028.8 2764.7C1097.3 2745.3 1165.7 2701.7 1234.2 2709C1302.7 2716.3 1371.3 2774.7 1405.7 2803.8L1440 2833L1440 4501L1405.7 4501C1371.3 4501 1302.7 4501 1234.2 4501C1165.7 4501 1097.3 4501 1028.8 4501C960.3 4501 891.7 4501 823 4501C754.3 4501 685.7 4501 617 4501C548.3 4501 479.7 4501 411.2 4501C342.7 4501 274.3 4501 205.8 4501C137.3 4501 68.7 4501 34.3 4501L0 4501Z" fill="#e0f5bd"></path><path d="M0 3006L34.3 3007.8C68.7 3009.7 137.3 3013.3 205.8 3000.2C274.3 2987 342.7 2957 411.2 2950.3C479.7 2943.7 548.3 2960.3 617 2963.8C685.7 2967.3 754.3 2957.7 823 2949.5C891.7 2941.3 960.3 2934.7 1028.8 2956.8C1097.3 2979 1165.7 3030 1234.2 3051C1302.7 3072 1371.3 3063 1405.7 3058.5L1440 3054L1440 4501L1405.7 4501C1371.3 4501 1302.7 4501 1234.2 4501C1165.7 4501 1097.3 4501 1028.8 4501C960.3 4501 891.7 4501 823 4501C754.3 4501 685.7 4501 617 4501C548.3 4501 479.7 4501 411.2 4501C342.7 4501 274.3 4501 205.8 4501C137.3 4501 68.7 4501 34.3 4501L0 4501Z" fill="#d0eba6"></path><path d="M0 3328L34.3 3319.7C68.7 3311.3 137.3 3294.7 205.8 3273.2C274.3 3251.7 342.7 3225.3 411.2 3232C479.7 3238.7 548.3 3278.3 617 3284.3C685.7 3290.3 754.3 3262.7 823 3238.2C891.7 3213.7 960.3 3192.3 1028.8 3189.5C1097.3 3186.7 1165.7 3202.3 1234.2 3222.5C1302.7 3242.7 1371.3 3267.3 1405.7 3279.7L1440 3292L1440 4501L1405.7 4501C1371.3 4501 1302.7 4501 1234.2 4501C1165.7 4501 1097.3 4501 1028.8 4501C960.3 4501 891.7 4501 823 4501C754.3 4501 685.7 4501 617 4501C548.3 4501 479.7 4501 411.2 4501C342.7 4501 274.3 4501 205.8 4501C137.3 4501 68.7 4501 34.3 4501L0 4501Z" fill="#c1e18e"></path><path d="M0 3542L34.3 3530C68.7 3518 137.3 3494 205.8 3488.7C274.3 3483.3 342.7 3496.7 411.2 3500.3C479.7 3504 548.3 3498 617 3486.2C685.7 3474.3 754.3 3456.7 823 3462.5C891.7 3468.3 960.3 3497.7 1028.8 3500.7C1097.3 3503.7 1165.7 3480.3 1234.2 3487.8C1302.7 3495.3 1371.3 3533.7 1405.7 3552.8L1440 3572L1440 4501L1405.7 4501C1371.3 4501 1302.7 4501 1234.2 4501C1165.7 4501 1097.3 4501 1028.8 4501C960.3 4501 891.7 4501 823 4501C754.3 4501 685.7 4501 617 4501C548.3 4501 479.7 4501 411.2 4501C342.7 4501 274.3 4501 205.8 4501C137.3 4501 68.7 4501 34.3 4501L0 4501Z" fill="#b1d776"></path><path d="M0 3849L34.3 3827.3C68.7 3805.7 137.3 3762.3 205.8 3745.7C274.3 3729 342.7 3739 411.2 3737.5C479.7 3736 548.3 3723 617 3706.8C685.7 3690.7 754.3 3671.3 823 3681.5C891.7 3691.7 960.3 3731.3 1028.8 3764C1097.3 3796.7 1165.7 3822.3 1234.2 3814C1302.7 3805.7 1371.3 3763.3 1405.7 3742.2L1440 3721L1440 4501L1405.7 4501C1371.3 4501 1302.7 4501 1234.2 4501C1165.7 4501 1097.3 4501 1028.8 4501C960.3 4501 891.7 4501 823 4501C754.3 4501 685.7 4501 617 4501C548.3 4501 479.7 4501 411.2 4501C342.7 4501 274.3 4501 205.8 4501C137.3 4501 68.7 4501 34.3 4501L0 4501Z" fill="#a1cd5d"></path><path d="M0 4030L34.3 4026.5C68.7 4023 137.3 4016 205.8 4013.2C274.3 4010.3 342.7 4011.7 411.2 4024.3C479.7 4037 548.3 4061 617 4043.7C685.7 4026.3 754.3 3967.7 823 3938.3C891.7 3909 960.3 3909 1028.8 3908.3C1097.3 3907.7 1165.7 3906.3 1234.2 3937.8C1302.7 3969.3 1371.3 4033.7 1405.7 4065.8L1440 4098L1440 4501L1405.7 4501C1371.3 4501 1302.7 4501 1234.2 4501C1165.7 4501 1097.3 4501 1028.8 4501C960.3 4501 891.7 4501 823 4501C754.3 4501 685.7 4501 617 4501C548.3 4501 479.7 4501 411.2 4501C342.7 4501 274.3 4501 205.8 4501C137.3 4501 68.7 4501 34.3 4501L0 4501Z" fill="#91c443"></path><path d="M0 4345L34.3 4322C68.7 4299 137.3 4253 205.8 4220.8C274.3 4188.7 342.7 4170.3 411.2 4170.8C479.7 4171.3 548.3 4190.7 617 4191.2C685.7 4191.7 754.3 4173.3 823 4185.5C891.7 4197.7 960.3 4240.3 1028.8 4248.7C1097.3 4257 1165.7 4231 1234.2 4219C1302.7 4207 1371.3 4209 1405.7 4210L1440 4211L1440 4501L1405.7 4501C1371.3 4501 1302.7 4501 1234.2 4501C1165.7 4501 1097.3 4501 1028.8 4501C960.3 4501 891.7 4501 823 4501C754.3 4501 685.7 4501 617 4501C548.3 4501 479.7 4501 411.2 4501C342.7 4501 274.3 4501 205.8 4501C137.3 4501 68.7 4501 34.3 4501L0 4501Z" fill="#80ba24"></path></svg>